<?xml version="1.0" encoding="iso-8859-1"?>
<!-- Generator: Adobe Illustrator 19.0.0, SVG Export Plug-In . SVG Version: 6.00 Build 0)  -->
<svg version="1.1" id="Layer_1" xmlns="http://www.w3.org/2000/svg" xmlns:xlink="http://www.w3.org/1999/xlink" x="0px" y="0px"
	 viewBox="0 0 472.552 472.552" style="enable-background:new 0 0 472.552 472.552;" xml:space="preserve">
<g>
	<g>
		<g>
			<path d="M368.293,232.552h-26.4l2.4-23.2c0.4-4.4-2.8-8.4-7.2-8.8c-4.4-0.4-8.4,2.8-8.8,7.2l-18.8,198
				c-2.8,28.8-26.8,50.8-55.6,50.8h-107.2c-29.2,0-53.2-21.6-55.6-50.8l-18-189.2h163.2c4.4,0,8-3.6,8-8c0-4.4-3.6-8-8-8h-168
				c-0.8,0-1.2,0-2,0.4c-0.8-0.4-2-0.4-2.8-0.4c-4.4,0.4-7.6,4.4-7.2,8.8l18.8,198c3.2,37.2,34,65.2,71.6,65.2h107.2
				c37.2,0,68-28,71.6-65.2l1.6-18.8h41.2c26.4,0,48-21.6,48-48v-60C416.293,254.152,394.693,232.552,368.293,232.552z
				 M368.293,372.552h-39.6l11.6-124h27.6c17.6,0,32,14.4,32,32v60h0.4C400.293,358.152,385.893,372.552,368.293,372.552z"/>
			<path d="M264.293,208.552c0,4.4,3.6,8,8,8h12c4.4,0,8-3.6,8-8c0-4.4-3.6-8-8-8h-12
				C267.893,200.552,264.293,204.152,264.293,208.552z"/>
			<path d="M132.693,166.552c0.8,3.6,4.4,6,7.6,6c0.8,0,1.6,0,2-0.4c4.4-1.2,6.8-5.6,5.6-10l-8.8-31.2c-4-13.6-2-28,5.2-40.4
				l3.2-5.2c6-10.4,9.2-21.2,9.2-32.4c0-4.4-3.6-8-8-8c-4.4,0-8,3.6-8,8c0,8.4-2.4,16.4-6.8,24.4l-3.2,5.2c-9.6,16-12,35.2-6.8,53.2
				L132.693,166.552z"/>
			<path d="M192.693,166.552c0.8,3.6,4.4,6,7.6,6c0.8,0,1.6,0,2-0.4c4.4-1.2,6.8-5.6,5.6-10l-8.8-31.2c-4-13.6-2-28,5.2-40.4
				l3.2-5.6c8.4-14.8,11.2-32.4,7.6-49.6l-7.2-29.2c-1.2-4.4-5.2-6.8-9.6-6c-4.4,1.2-6.8,5.2-6,9.6l7.2,28.8
				c2.8,12.8,0.8,26.4-5.6,37.6l-3.2,5.2c-9.6,16-12,35.2-6.8,53.2L192.693,166.552z"/>
			<path d="M252.693,166.552c0.8,3.6,4.4,6,7.6,6c0.8,0,1.6,0,2-0.4c4.4-1.2,6.8-5.6,5.6-10l-8.8-31.2c-4-13.6-2-28,5.2-40.4
				c2.4-4,0.8-8.8-2.8-10.8c-4-2.4-8.8-0.8-10.8,2.8c-9.6,16-12,35.2-6.8,53.2L252.693,166.552z"/>
		</g>
	</g>
</g>
<g>
</g>
<g>
</g>
<g>
</g>
<g>
</g>
<g>
</g>
<g>
</g>
<g>
</g>
<g>
</g>
<g>
</g>
<g>
</g>
<g>
</g>
<g>
</g>
<g>
</g>
<g>
</g>
<g>
</g>
</svg>
