<?xml version="1.0" encoding="UTF-8" standalone="no"?>
<!DOCTYPE svg PUBLIC "-//W3C//DTD SVG 1.1//EN" "http://www.w3.org/Graphics/SVG/1.1/DTD/svg11.dtd">
<svg xmlns:dc="http://purl.org/dc/elements/1.1/" xmlns:xl="http://www.w3.org/1999/xlink" version="1.1" xmlns="http://www.w3.org/2000/svg" viewBox="20.785842 28.602493 367.62996 53.85391" width="367.62996" height="53.85391">
  <defs/>
  <metadata> Produced by OmniGraffle 7.8.1 
    <dc:date>2018-09-14 20:01:24 +0000</dc:date>
  </metadata>
  <g id="Canvas_6" fill-opacity="1" stroke-dasharray="none" stroke="none" stroke-opacity="1" fill="none">
    <title>Canvas 6</title>
    <g id="Canvas_6: Layer 1">
      <title>Layer 1</title>
      <g id="Graphic_3">
        <path d="M 95.1006 72.7159 L 102.1346 72.7159 L 102.1346 38.0079 L 95.1006 38.0079 L 95.1006 29.1189 L 117.0536 29.1189 L 136.3016 61.8939 L 136.4566 61.8939 L 136.4566 38.0079 L 129.6536 38.0079 L 129.6536 29.1189 L 153.2306 29.1189 L 153.2306 38.0079 L 145.8096 38.0079 L 145.8096 81.6069 L 134.0596 81.6069 L 111.6426 43.0329 L 111.4886 43.0329 L 111.4886 72.7159 L 118.0586 72.7159 L 118.0586 81.6069 L 95.1006 81.6069 Z" fill="white"/>
      </g>
      <g id="Graphic_4">
        <path d="M 172.8091 53.2364 C 168.1711 53.2364 165.6201 56.9464 165.6201 63.5174 C 165.6201 69.7024 168.3261 73.4124 172.8091 73.4124 C 177.4471 73.4124 180.0761 69.7024 180.0761 63.2864 C 180.0761 56.9464 177.4471 53.2364 172.8091 53.2364 M 172.8091 82.4564 C 161.9871 82.4564 153.6391 75.4224 153.6391 63.2864 C 153.6391 50.4534 162.9141 44.1924 172.8091 44.1924 C 183.4761 44.1924 192.0571 50.9944 192.0571 63.2864 C 192.0571 74.8034 184.2501 82.4564 172.8091 82.4564" fill="white"/>
      </g>
      <g id="Graphic_5">
        <path d="M 194.4648 45.0431 L 199.1018 45.0431 L 199.1018 39.3221 L 210.9298 30.9741 L 210.9298 45.0431 L 217.4998 45.0431 L 217.4998 53.4691 L 210.9298 53.4691 L 210.9298 69.3151 C 210.9298 72.4841 211.4708 73.1031 213.9438 73.1031 C 215.1818 73.1031 215.8768 72.9481 217.4998 72.4071 L 217.4998 80.2921 C 214.5628 81.5281 211.6248 82.1471 208.7658 82.1471 C 204.1268 82.1471 199.1018 79.9051 199.1018 73.4121 L 199.1018 53.4691 L 194.4648 53.4691 Z" fill="white"/>
      </g>
      <g id="Graphic_6">
        <path d="M 221.0566 45.0431 L 239.6856 45.0431 L 239.6856 48.0571 C 243.9376 45.5841 247.4926 44.5021 251.2816 44.5021 C 256.1506 44.5021 260.1696 46.2791 262.4906 49.5251 C 267.7456 45.9711 271.8436 44.5021 276.9456 44.5021 C 283.5916 44.5021 289.4666 47.2841 289.4666 56.5611 L 289.4666 73.1811 L 296.7346 73.1811 L 296.7346 81.6061 L 277.6406 81.6061 L 277.6406 60.3491 C 277.6406 56.3281 276.1716 54.4731 272.8476 54.4731 C 270.2966 54.4731 267.5916 55.3241 264.5766 56.9461 L 264.5766 73.1811 L 271.1466 73.1811 L 271.1466 81.6061 L 252.7496 81.6061 L 252.7496 60.3491 C 252.7496 56.1741 251.3576 54.4731 248.0336 54.4731 C 245.4066 54.4731 243.1636 55.1691 239.6856 56.9461 L 239.6856 73.1811 L 246.2556 73.1811 L 246.2556 81.6061 L 221.0566 81.6061 L 221.0566 73.1811 L 227.8596 73.1811 L 227.8596 53.4691 L 221.0566 53.4691 Z" fill="white"/>
      </g>
      <g id="Graphic_7">
        <path d="M 315.752 65.4503 C 312.66 65.4503 310.418 67.3823 310.418 70.0113 C 310.418 72.7943 312.506 74.8813 315.211 74.8813 C 317.529 74.8813 319.385 73.8763 322.477 71.0933 L 322.477 68.0783 C 319.617 66.2233 317.529 65.4503 315.752 65.4503 M 340.18 81.6063 L 322.477 81.6063 L 322.477 78.7453 C 319.076 81.1413 316.139 82.1473 312.582 82.1473 C 304.93 82.1473 299.209 77.2763 299.209 70.7063 C 299.209 63.5953 305.471 58.4153 314.207 58.4153 C 317.529 58.4153 319.539 59.0343 322.477 60.0393 L 322.477 58.0293 C 322.477 54.2413 319.695 51.6133 315.52 51.6133 C 312.814 51.6133 310.959 52.4633 308.873 54.4723 L 299.441 52.8493 C 302.379 46.8983 307.945 44.1923 317.143 44.1923 C 329.125 44.1923 334.305 48.4433 334.305 58.1833 L 334.305 73.1803 L 340.18 73.1803 Z" fill="white"/>
      </g>
      <g id="Graphic_8">
        <path d="M 343.9688 45.0431 L 361.4378 45.0431 L 361.4378 48.4431 C 365.2268 45.6611 368.2398 44.5021 371.9508 44.5021 C 376.8208 44.5021 383.0818 47.1301 383.0818 56.9461 L 383.0818 73.1811 L 388.4158 73.1811 L 388.4158 81.6061 L 371.2558 81.6061 L 371.2558 58.4151 C 371.2558 55.4791 370.0178 54.3181 367.8538 54.3181 C 365.8438 54.3181 363.6018 55.1691 361.4378 56.7151 L 361.4378 73.1811 L 366.3088 73.1811 L 366.3088 81.6061 L 343.9688 81.6061 L 343.9688 73.1811 L 349.6118 73.1811 L 349.6118 53.4691 L 343.9688 53.4691 Z" fill="white"/>
      </g>
      <g id="Graphic_9">
        <path d="M 47.8042 31.3165 C 46.4922 32.4195 27.5832 50.4745 23.9232 53.7635 C 21.5202 55.9235 23.2222 57.5825 25.6802 57.5825 L 29.7542 57.5825 L 29.7542 77.8735 C 29.7542 79.3255 30.7432 80.5035 31.9632 80.5035 L 67.7192 80.5035 C 68.9382 80.5035 69.9282 79.3255 69.9282 77.8735 L 69.9372 57.5825 L 74.0202 57.5825 C 76.4782 57.5825 78.1802 55.9235 75.7782 53.7635 C 72.1172 50.4745 52.8012 32.4045 51.4572 31.3165 C 50.1132 30.2275 49.1152 30.2125 47.8042 31.3165 Z" stroke="white" stroke-linecap="butt" stroke-linejoin="miter" stroke-width="3"/>
      </g>
      <g id="Graphic_10">
        <path d="M 50.0952 55.6144 C 47.6742 55.6144 46.4442 58.8964 46.4442 61.2354 C 46.4442 62.7954 46.7722 63.4924 47.5512 63.4924 C 49.0702 63.4924 50.5872 61.2764 51.3672 57.2564 L 51.6552 55.8194 C 51.2032 55.6964 50.6692 55.6144 50.0952 55.6144 M 55.4702 67.0614 C 52.7622 67.0614 51.5732 65.5444 51.6552 63.6564 L 51.5322 63.6564 C 50.6692 65.3804 48.7822 67.0614 46.4032 67.0614 C 43.9412 67.0614 42.5862 65.3804 42.5862 61.9734 C 42.5862 56.7624 45.4172 52.4964 51.2442 52.4964 C 52.9262 52.4964 54.6502 52.8244 55.7982 53.1934 L 54.5682 60.0054 C 54.1162 62.5904 54.6092 63.4514 56.0852 63.4514 C 58.3422 63.4514 59.8202 61.8504 59.8202 57.5434 C 59.8202 53.3164 57.2762 49.4604 50.8332 49.4604 C 44.5972 49.4604 39.5912 54.1774 39.5912 61.0714 C 39.5912 66.9384 42.8322 70.7554 49.7262 70.7554 C 51.8602 70.7554 54.0752 70.4274 56.1272 69.6874 L 56.1272 73.5454 C 54.4042 74.2424 51.3262 74.6114 49.1112 74.6114 C 40.0012 74.6114 35.0772 69.3594 35.0772 61.5224 C 35.0772 52.1274 42.2172 45.6024 51.0802 45.6024 C 59.4502 45.6024 64.2512 50.8544 64.2512 57.2974 C 64.2512 63.8614 60.6402 67.0614 55.4702 67.0614" fill="white"/>
      </g>
    </g>
  </g>
</svg>
