<?xml version="1.0" encoding="UTF-8" standalone="no"?>
<!DOCTYPE svg PUBLIC "-//W3C//DTD SVG 1.1//EN" "http://www.w3.org/Graphics/SVG/1.1/DTD/svg11.dtd">
<svg xmlns="http://www.w3.org/2000/svg" xmlns:xl="http://www.w3.org/1999/xlink" version="1.1" viewBox="24 25 370 55" width="370pt" height="55pt" xmlns:dc="http://purl.org/dc/elements/1.1/">
  <metadata> Produced by OmniGraffle 7.4 
    <dc:date>2017-08-16 19:33:53 +0000</dc:date>
  </metadata>
  <defs/>
  <g stroke="none" stroke-opacity="1" stroke-dasharray="none" fill="none" fill-opacity="1">
    <title>Canvas 1</title>
    <g>
      <title>Layer 1</title>
      <path d="M 99.8672 70.1787 L 106.9012 70.1787 L 106.9012 35.4707 L 99.8672 35.4707 L 99.8672 26.5817 L 121.8202 26.5817 L 141.0682 59.3567 L 141.2232 59.3567 L 141.2232 35.4707 L 134.4202 35.4707 L 134.4202 26.5817 L 157.9972 26.5817 L 157.9972 35.4707 L 150.5762 35.4707 L 150.5762 79.0697 L 138.8262 79.0697 L 116.4092 40.4957 L 116.2552 40.4957 L 116.2552 70.1787 L 122.8252 70.1787 L 122.8252 79.0697 L 99.8672 79.0697 Z" fill="#5a3c59"/>
      <path d="M 177.5757 50.6992 C 172.9377 50.6992 170.3867 54.4092 170.3867 60.9802 C 170.3867 67.1652 173.0927 70.8752 177.5757 70.8752 C 182.2137 70.8752 184.8427 67.1652 184.8427 60.7492 C 184.8427 54.4092 182.2137 50.6992 177.5757 50.6992 M 177.5757 79.9192 C 166.7537 79.9192 158.4057 72.8852 158.4057 60.7492 C 158.4057 47.9162 167.6807 41.6552 177.5757 41.6552 C 188.2427 41.6552 196.8237 48.4572 196.8237 60.7492 C 196.8237 72.2662 189.0167 79.9192 177.5757 79.9192" fill="#5a3c59"/>
      <path d="M 199.2314 42.5059 L 203.8684 42.5059 L 203.8684 36.7849 L 215.6964 28.4369 L 215.6964 42.5059 L 222.2664 42.5059 L 222.2664 50.9319 L 215.6964 50.9319 L 215.6964 66.7779 C 215.6964 69.9469 216.2374 70.5659 218.7104 70.5659 C 219.9484 70.5659 220.6434 70.4109 222.2664 69.8699 L 222.2664 77.7549 C 219.3294 78.9909 216.3914 79.6099 213.5324 79.6099 C 208.8934 79.6099 203.8684 77.3679 203.8684 70.8749 L 203.8684 50.9319 L 199.2314 50.9319 Z" fill="#5a3c59"/>
      <path d="M 225.8232 42.5059 L 244.4522 42.5059 L 244.4522 45.5199 C 248.7042 43.0469 252.2592 41.9649 256.0482 41.9649 C 260.9172 41.9649 264.9362 43.7419 267.2572 46.9879 C 272.5122 43.4339 276.6102 41.9649 281.7122 41.9649 C 288.3582 41.9649 294.2332 44.7469 294.2332 54.0239 L 294.2332 70.6439 L 301.5012 70.6439 L 301.5012 79.0689 L 282.4072 79.0689 L 282.4072 57.8119 C 282.4072 53.7909 280.9382 51.9359 277.6142 51.9359 C 275.0632 51.9359 272.3582 52.7869 269.3432 54.4089 L 269.3432 70.6439 L 275.9132 70.6439 L 275.9132 79.0689 L 257.5162 79.0689 L 257.5162 57.8119 C 257.5162 53.6369 256.1242 51.9359 252.8002 51.9359 C 250.1732 51.9359 247.9302 52.6319 244.4522 54.4089 L 244.4522 70.6439 L 251.0222 70.6439 L 251.0222 79.0689 L 225.8232 79.0689 L 225.8232 70.6439 L 232.6262 70.6439 L 232.6262 50.9319 L 225.8232 50.9319 Z" fill="#5a3c59"/>
      <path d="M 320.5186 62.9131 C 317.4266 62.9131 315.1846 64.8451 315.1846 67.4741 C 315.1846 70.2571 317.2726 72.3441 319.9776 72.3441 C 322.2956 72.3441 324.1516 71.3391 327.2436 68.5561 L 327.2436 65.5411 C 324.3836 63.6861 322.2956 62.9131 320.5186 62.9131 M 344.9466 79.0691 L 327.2436 79.0691 L 327.2436 76.2081 C 323.8426 78.6041 320.9056 79.6101 317.3486 79.6101 C 309.6966 79.6101 303.9756 74.7391 303.9756 68.1691 C 303.9756 61.0581 310.2376 55.8781 318.9736 55.8781 C 322.2956 55.8781 324.3056 56.4971 327.2436 57.5021 L 327.2436 55.4921 C 327.2436 51.7041 324.4616 49.0761 320.2866 49.0761 C 317.5806 49.0761 315.7256 49.9261 313.6396 51.9351 L 304.2076 50.3121 C 307.1456 44.3611 312.7116 41.6551 321.9096 41.6551 C 333.8916 41.6551 339.0716 45.9061 339.0716 55.6461 L 339.0716 70.6431 L 344.9466 70.6431 Z" fill="#5a3c59"/>
      <path d="M 348.7354 42.5059 L 366.2044 42.5059 L 366.2044 45.9059 C 369.9934 43.1239 373.0064 41.9649 376.7174 41.9649 C 381.5874 41.9649 387.8484 44.5929 387.8484 54.4089 L 387.8484 70.6439 L 393.1824 70.6439 L 393.1824 79.0689 L 376.0224 79.0689 L 376.0224 55.8779 C 376.0224 52.9419 374.7844 51.7809 372.6204 51.7809 C 370.6104 51.7809 368.3684 52.6319 366.2044 54.1779 L 366.2044 70.6439 L 371.0754 70.6439 L 371.0754 79.0689 L 348.7354 79.0689 L 348.7354 70.6439 L 354.3784 70.6439 L 354.3784 50.9319 L 348.7354 50.9319 Z" fill="#5a3c59"/>
      <path d="M 52.5708 28.7793 C 51.2588 29.8823 32.3498 47.9373 28.6898 51.2263 C 26.2868 53.3863 27.9888 55.0453 30.4468 55.0453 L 34.5208 55.0453 L 34.5208 75.3363 C 34.5208 76.7883 35.5098 77.9663 36.7298 77.9663 L 72.4858 77.9663 C 73.7048 77.9663 74.6948 76.7883 74.6948 75.3363 L 74.7038 55.0453 L 78.7868 55.0453 C 81.2448 55.0453 82.9468 53.3863 80.5448 51.2263 C 76.8838 47.9373 57.5678 29.8673 56.2238 28.7793 C 54.8798 27.6903 53.8818 27.6753 52.5708 28.7793 Z" stroke="#5a3c59" stroke-linejoin="miter" stroke-width="4"/>
      <path d="M 54.8618 53.0771 C 52.4408 53.0771 51.2108 56.3591 51.2108 58.6981 C 51.2108 60.2581 51.5388 60.9551 52.3178 60.9551 C 53.8368 60.9551 55.3538 58.7391 56.1338 54.7191 L 56.4218 53.2821 C 55.9698 53.1591 55.4358 53.0771 54.8618 53.0771 M 60.2368 64.5241 C 57.5288 64.5241 56.3398 63.0071 56.4218 61.1191 L 56.2988 61.1191 C 55.4358 62.8431 53.5488 64.5241 51.1698 64.5241 C 48.7078 64.5241 47.3528 62.8431 47.3528 59.4361 C 47.3528 54.2251 50.1838 49.9591 56.0108 49.9591 C 57.6928 49.9591 59.4168 50.2871 60.5648 50.6561 L 59.3348 57.4681 C 58.8828 60.0531 59.3758 60.9141 60.8518 60.9141 C 63.1088 60.9141 64.5868 59.3131 64.5868 55.0061 C 64.5868 50.7791 62.0428 46.9231 55.5998 46.9231 C 49.3638 46.9231 44.3578 51.6401 44.3578 58.5341 C 44.3578 64.4011 47.5988 68.2181 54.4928 68.2181 C 56.6268 68.2181 58.8418 67.8901 60.8938 67.1501 L 60.8938 71.0081 C 59.1708 71.7051 56.0928 72.0741 53.8778 72.0741 C 44.7678 72.0741 39.8438 66.8221 39.8438 58.9851 C 39.8438 49.5901 46.9838 43.0651 55.8468 43.0651 C 64.2168 43.0651 69.0178 48.3171 69.0178 54.7601 C 69.0178 61.3241 65.4068 64.5241 60.2368 64.5241" fill="#5a3c59"/>
    </g>
  </g>
</svg>
