<?xml version="1.0" encoding="utf-8"?>
<!-- Generator: Adobe Illustrator 14.0.0, SVG Export Plug-In . SVG Version: 6.00 Build 43363)  -->
<!DOCTYPE svg PUBLIC "-//W3C//DTD SVG 1.1//EN" "http://www.w3.org/Graphics/SVG/1.1/DTD/svg11.dtd">
<svg version="1.1" id="Layer_1" xmlns="http://www.w3.org/2000/svg" xmlns:xlink="http://www.w3.org/1999/xlink" x="0px" y="0px"
	 width="400px" height="76.482px" viewBox="0 0 400 76.482" enable-background="new 0 0 400 76.482" xml:space="preserve">
<g>
	<path fill="#5A5A5A" d="M0,15.263h10.997v7.55h0.164c2.38-4.431,5.006-8.698,11.981-8.698c0.739,0,1.477,0.081,2.215,0.164v11.653
		c-0.984-0.164-2.215-0.164-3.282-0.164c-8.945,0-10.586,5.581-10.586,10.422v22.731H0V15.263z"/>
	<path fill="#5A5A5A" d="M67.869,46.117c-3.036,10.505-11.735,13.951-19.203,13.951c-12.31,0-21.747-5.906-21.747-23.879
		c0-5.252,1.806-22.075,20.927-22.075c8.616,0,20.515,4.102,20.515,24.045v2.051H38.409c0.328,3.282,0.984,10.668,10.257,10.668
		c3.201,0,6.483-1.641,7.386-4.762H67.869z M56.544,32.743c-0.656-7.058-5.169-9.191-8.862-9.191c-5.416,0-8.289,3.446-8.945,9.191
		H56.544z"/>
	<path fill="#5A5A5A" d="M113.499,46.117c-3.036,10.505-11.735,13.951-19.203,13.951c-12.31,0-21.747-5.906-21.747-23.879
		c0-5.252,1.806-22.075,20.927-22.075c8.616,0,20.515,4.102,20.515,24.045v2.051H84.039c0.328,3.282,0.984,10.668,10.257,10.668
		c3.201,0,6.483-1.641,7.386-4.762H113.499z M102.174,32.743c-0.656-7.058-5.169-9.191-8.862-9.191
		c-5.416,0-8.289,3.446-8.945,9.191H102.174z"/>
	<path fill="#5A5A5A" d="M133.444,58.921h-11.488V0h11.488V58.921z"/>
	<path fill="#5A5A5A" d="M167.091,58.182c-5.417,16.167-6.894,18.301-16.905,18.301c-1.559,0-3.529-0.082-5.17-0.165v-9.191
		c0.492,0.085,1.231,0.165,2.216,0.165c4.185,0,6.483-0.576,7.549-6.564l-16.084-45.464h12.802l9.356,32.17h0.164l8.945-32.17
		h12.145L167.091,58.182z"/>
	<path fill="#5A5A5A" d="M199.017,41.77l-6.154,17.151h-8.208L206.812,0h9.029l21.336,58.921h-8.698L222.65,41.77H199.017z
		 M219.778,34.712L211.08,8.78h-0.163l-9.438,25.932H219.778z"/>
	<path fill="#5A5A5A" d="M268.774,30.445c-0.901-5.745-4.103-9.191-10.176-9.191c-8.944,0-11.816,8.534-11.816,16.167
		c0,7.385,1.806,16.497,11.733,16.497c4.844,0,9.029-3.611,10.259-10.179h6.976c-0.739,6.813-4.924,16.415-17.479,16.415
		c-12.062,0-19.202-9.111-19.202-21.502c0-13.294,6.401-23.881,20.597-23.881c11.243,0,15.511,8.207,16.085,15.675H268.774z"/>
	<path fill="#5A5A5A" d="M291.836,21.993v27.902c0,3.363,2.873,3.363,4.351,3.363h2.545v5.663c-2.627,0.245-4.679,0.576-5.417,0.576
		c-7.139,0-8.699-4.022-8.699-9.191V21.993h-5.825v-5.991h5.825V4.021h7.221v11.981h6.896v5.991H291.836z"/>
	<rect x="305.954" fill="#FF6900" width="7.224" height="8.206"/>
	<rect x="305.954" y="16.002" fill="#5A5A5A" width="7.224" height="42.919"/>
	<path fill="#5A5A5A" d="M351.172,16.002h7.879l-16.332,42.919h-7.714l-15.674-42.919h8.37l11.16,34.959h0.166L351.172,16.002z"/>
	<path fill="#5A5A5A" d="M399.427,45.462c-0.248,2.054-2.217,8.124-7.634,11.735c-1.969,1.313-4.759,2.956-11.651,2.956
		c-12.064,0-19.202-9.111-19.202-21.502c0-13.294,6.399-23.881,20.598-23.881c12.39,0,18.463,9.848,18.463,25.029h-31.347
		c0,8.945,4.186,14.117,12.473,14.117c6.813,0,10.832-5.255,11.077-8.455H399.427z M392.531,34.056
		c-0.408-6.647-3.198-12.802-11.979-12.802c-6.647,0-11.899,6.155-11.899,12.802H392.531z"/>
	<rect x="0.006" y="67.126" fill="#0770A2" width="133.438" height="9.191"/>
	<rect x="175.471" y="67.126" fill="#FF6900" width="223.956" height="9.191"/>
</g>
</svg>
