<?xml version="1.0" encoding="UTF-8" standalone="no"?>
<!DOCTYPE svg PUBLIC "-//W3C//DTD SVG 1.1//EN" "http://www.w3.org/Graphics/SVG/1.1/DTD/svg11.dtd">
<svg xmlns:dc="http://purl.org/dc/elements/1.1/" version="1.1" xmlns="http://www.w3.org/2000/svg" xmlns:xl="http://www.w3.org/1999/xlink" viewBox="28 26 879.1539 190" width="879.1539" height="190">
  <defs/>
  <metadata> Produced by OmniGraffle 7.10.2 
    <dc:date>2019-05-23 19:50:27 +0000</dc:date>
  </metadata>
  <g id="Canvas_1" fill="none" fill-opacity="1" stroke="none" stroke-dasharray="none" stroke-opacity="1">
    <title>Canvas 1</title>
    <g id="Canvas_1: Layer 1">
      <title>Layer 1</title>
      <g id="Graphic_2">
        <rect x="38" y="36" width="170.05143" height="170" fill="#ffd200"/>
      </g>
      <g id="Graphic_3">
        <path d="M 83.92984 79.62726 L 166.19618 120.52666 L 83.8139 162.36718 L 136.78918 120.63329 Z" fill="black"/>
      </g>
      <g id="Graphic_4">
        <path d="M 299.88143 160.79694 L 283.35303 160.79694 L 256.88162 80.46314 L 271.93062 80.46314 L 291.68215 142.66064 L 311.5728 80.46314 L 326.48732 80.46314 Z" fill="black"/>
      </g>
      <g id="Graphic_5">
        <rect x="343.6826" y="80.46453" width="14.11221" height="80.3338" fill="black"/>
      </g>
      <g id="Graphic_6">
        <path d="M 416.1089 147.36393 C 416.91584 147.36393 417.05033 147.22949 417.05033 147.22949 C 418.92856 146.15392 422.96327 142.65832 422.96327 141.0496 L 422.96327 100.61382 C 422.96327 100.21048 422.82877 99.94159 422.82877 99.94159 C 421.2149 97.25267 418.5251 94.83727 416.91584 94.0306 C 416.78135 93.89615 415.9744 93.89615 415.70542 93.89615 L 394.34 93.89615 L 394.34 147.36393 Z M 435.0535 148.97728 C 433.44424 151.39268 428.06926 156.76588 425.11047 158.37923 C 422.96327 159.58924 419.87 160.79462 417.05033 160.79462 L 380.2278 160.79462 L 380.2278 80.46083 L 417.05033 80.46083 C 419.601 80.46083 422.96327 81.2675 425.24496 82.74641 C 428.20375 84.48957 433.30975 90.27075 434.92363 92.55633 C 436.66737 94.97172 437.07084 97.656 437.07084 100.21048 L 437.07084 141.3185 C 437.07084 143.73853 436.66737 146.55726 435.0535 148.97728" fill="black"/>
      </g>
      <g id="Graphic_7">
        <path d="M 459.50243 160.79694 L 459.50243 80.46314 L 510.0337 80.46314 L 510.0337 93.89383 L 473.61464 93.89383 L 473.61464 114.18127 L 507.4784 114.18127 L 507.4784 127.6166 L 473.61464 127.6166 L 473.61464 147.36625 L 510.0337 147.36625 L 510.0337 160.79694 Z" fill="black"/>
      </g>
      <g id="Graphic_8">
        <path d="M 544.96315 141.58693 C 544.96315 141.99026 545.093 142.12471 545.093 142.12471 C 546.7069 144.54474 549.5312 147.08994 551.0106 147.90125 C 551.2749 148.0357 551.54854 148.0357 551.6784 148.0357 L 571.0311 148.0357 C 571.43456 148.0357 571.7082 147.90125 571.7082 147.90125 C 573.18293 147.08994 576.0026 144.54474 577.6165 142.12471 C 577.751 141.85582 577.751 141.58693 577.751 141.58693 L 577.751 100.07557 C 577.751 99.54242 577.6165 99.40334 577.6165 99.40334 C 576.0026 96.98795 573.18293 94.29903 571.7082 93.49235 C 571.43456 93.36254 571.1656 93.36254 571.0311 93.36254 L 551.6784 93.36254 C 551.1451 93.36254 551.0106 93.49235 551.0106 93.49235 C 549.5312 94.29903 546.7069 96.98795 545.093 99.40334 C 544.96315 99.67223 544.96315 100.07557 544.96315 100.07557 Z M 589.7113 149.38016 C 587.96296 151.6611 582.7225 157.43764 579.9028 159.051 C 577.751 160.39546 574.39335 161.46639 571.56905 161.46639 L 551.1451 161.46639 C 548.1863 161.46639 544.96315 160.39546 542.8113 159.051 C 539.99165 157.43764 534.6167 151.6611 533.0028 149.38016 C 531.3889 146.96013 530.85094 144.27121 530.85094 141.72137 L 530.85094 99.67223 C 530.85094 97.12239 531.3889 94.43347 533.0028 92.01808 C 534.6167 89.7325 539.99165 83.95596 542.8113 82.34724 C 544.96315 81.00278 548.1863 79.92721 551.1451 79.92721 L 571.56905 79.92721 C 574.39335 79.92721 577.751 81.00278 579.9028 82.34724 C 582.7225 83.95596 587.96296 89.7325 589.7113 92.01808 C 591.3252 94.43347 591.85854 97.12239 591.85854 99.67223 L 591.85854 141.72137 C 591.85854 144.27121 591.3252 146.96013 589.7113 149.38016" fill="black"/>
      </g>
      <g id="Graphic_9">
        <path d="M 640.7676 93.89522 L 640.7676 160.79833 L 626.65536 160.79833 L 626.65536 93.89522 L 604.8865 93.89522 L 604.8865 80.46453 L 662.53645 80.46453 L 662.53645 93.89522 Z" fill="black"/>
      </g>
      <g id="Graphic_10">
        <path d="M 723.32005 99.13815 C 723.32005 98.46129 723.1856 98.19703 723.1856 98.19703 C 722.3786 96.72276 720.2268 94.02921 718.8865 93.89476 L 694.5623 93.89476 L 694.5623 115.65647 L 718.2094 115.65647 C 719.4198 115.65647 722.1096 113.10663 723.1856 111.22439 C 723.32005 110.96013 723.32005 110.6866 723.32005 110.6866 Z M 735.0114 119.01762 C 733.801 120.76541 729.6318 124.79416 727.7536 126.13862 C 726.6777 126.9453 725.4719 127.61752 724.25685 128.01623 L 740.2473 160.79787 L 724.9339 160.79787 L 710.0148 129.0918 L 694.5623 129.0918 L 694.5623 160.79787 L 680.4501 160.79787 L 680.4501 80.46407 L 718.2094 80.46407 C 721.4372 80.46407 725.0638 81.53964 727.7536 83.41725 C 729.6318 84.76171 733.801 89.05934 735.0114 90.80714 C 736.6207 93.22717 737.4276 96.18034 737.4276 99.00371 L 737.4276 110.82568 C 737.4276 113.77886 736.6207 116.60223 735.0114 119.01762" fill="black"/>
      </g>
      <g id="Graphic_11">
        <path d="M 772.409 141.58693 C 772.409 141.99026 772.5435 142.12471 772.5435 142.12471 C 774.1574 144.54474 776.9771 147.08994 778.45645 147.90125 C 778.7208 148.0357 778.9944 148.0357 779.1289 148.0357 L 798.477 148.0357 C 798.8851 148.0357 799.15405 147.90125 799.15405 147.90125 C 800.6288 147.08994 803.4485 144.54474 805.06235 142.12471 C 805.1968 141.85582 805.1968 141.58693 805.1968 141.58693 L 805.1968 100.07557 C 805.1968 99.54242 805.06235 99.40334 805.06235 99.40334 C 803.4485 96.98795 800.6288 94.29903 799.15405 93.49235 C 798.8851 93.36254 798.61145 93.36254 798.477 93.36254 L 779.1289 93.36254 C 778.5909 93.36254 778.45645 93.49235 778.45645 93.49235 C 776.9771 94.29903 774.1574 96.98795 772.5435 99.40334 C 772.409 99.67223 772.409 100.07557 772.409 100.07557 Z M 817.1572 149.38016 C 815.4088 151.6611 810.173 157.43764 807.3487 159.051 C 805.1968 160.39546 801.8392 161.46639 799.0149 161.46639 L 778.5909 161.46639 C 775.6322 161.46639 772.409 160.39546 770.2572 159.051 C 767.4375 157.43764 762.0625 151.6611 760.4487 149.38016 C 758.8348 146.96013 758.2968 144.27121 758.2968 141.72137 L 758.2968 99.67223 C 758.2968 97.12239 758.8348 94.43347 760.4487 92.01808 C 762.0625 89.7325 767.4375 83.95596 770.2572 82.34724 C 772.409 81.00278 775.6322 79.92721 778.5909 79.92721 L 799.0149 79.92721 C 801.8392 79.92721 805.1968 81.00278 807.3487 82.34724 C 810.173 83.95596 815.4088 89.7325 817.1572 92.01808 C 818.7711 94.43347 819.30905 97.12239 819.30905 99.67223 L 819.30905 141.72137 C 819.30905 144.27121 818.7711 146.96013 817.1572 149.38016" fill="black"/>
      </g>
      <g id="Graphic_12">
        <path d="M 882.2394 160.79694 L 854.4231 107.46361 L 854.4231 160.79694 L 840.3109 160.79694 L 840.3109 80.46314 L 855.4944 80.46314 L 883.0463 134.46407 L 883.0463 80.46314 L 897.1539 80.46314 L 897.1539 160.79694 Z" fill="black"/>
      </g>
      <g id="Graphic_13">
        <path d="M 503.8926 59.072786 L 488.48185 59.072786 L 478.2977 72.22068 L 491.14383 72.22068 Z" fill="black"/>
      </g>
    </g>
  </g>
</svg>
