<?xml version="1.0" encoding="UTF-8" standalone="no"?>
<svg
   xmlns:dc="http://purl.org/dc/elements/1.1/"
   xmlns:cc="http://creativecommons.org/ns#"
   xmlns:rdf="http://www.w3.org/1999/02/22-rdf-syntax-ns#"
   xmlns:svg="http://www.w3.org/2000/svg"
   xmlns="http://www.w3.org/2000/svg"
   viewBox="0 0 597.33331 190.66667"
   height="190.66667"
   width="597.33331"
   xml:space="preserve"
   id="svg2"
   version="1.1"><metadata
     id="metadata8"><rdf:RDF><cc:Work
         rdf:about=""><dc:format>image/svg+xml</dc:format><dc:type
           rdf:resource="http://purl.org/dc/dcmitype/StillImage" /></cc:Work></rdf:RDF></metadata><defs
     id="defs6"><clipPath
       id="clipPath20"
       clipPathUnits="userSpaceOnUse"><path
         id="path18"
         d="M 0.06,142.478 H 447.403 V 0.06 H 0.06 Z" /></clipPath><clipPath
       id="clipPath26"
       clipPathUnits="userSpaceOnUse"><path
         id="path24"
         d="M 0,0 H 448 V 143 H 0 Z" /></clipPath><clipPath
       id="clipPath36"
       clipPathUnits="userSpaceOnUse"><path
         id="path34"
         d="M 0,0 H 448 V 143 H 0 Z" /></clipPath></defs><g
     transform="matrix(1.3333333,0,0,-1.3333333,0,190.66667)"
     id="g10"><g
       id="g12" /><g
       id="g14"><g
         clip-path="url(#clipPath20)"
         id="g16"><g
           clip-path="url(#clipPath26)"
           id="g22"><path
             id="path28"
             style="fill:#231f20;fill-opacity:1;fill-rule:nonzero;stroke:none"
             d="M 97.853,33.063 C 87.608,25.25 74.813,20.61 60.934,20.61 27.282,20.61 0,47.892 0,81.544 c 0,33.652 27.282,60.934 60.934,60.934 33.652,0 60.934,-27.282 60.934,-60.934 0,-13.909 -4.661,-26.731 -12.506,-36.987 l -10e-4,-0.003 c 3.073,-2.285 16.894,-12.551 18.368,-14.367 -0.553,5.061 -2.273,21.23 -2.273,21.23 L 176.477,13.234 176.603,12.117 138.9,28.707 141.996,0 97.843,33.056 Z M 83.391,44.512 C 76.361,49.759 48.894,69.735 48.894,69.735 H 75.722 C 77.276,68.537 89.279,59.588 95.127,55.209 l -0.013,-0.01 c 5.534,7.31 8.822,16.448 8.822,26.361 0,23.989 -19.253,43.436 -43.002,43.436 -23.749,0 -43.001,-19.447 -43.001,-43.436 0,-23.989 19.252,-43.436 43.001,-43.436 8.228,0 15.916,2.334 22.451,6.383 l 0.006,0.005" /></g></g></g><g
       id="g30"><g
         clip-path="url(#clipPath36)"
         id="g32"><path
           id="path38"
           style="fill:#231f20;fill-opacity:1;fill-rule:nonzero;stroke:none"
           d="m 199.183,89.729 -7.302,33.561 h 10.806 l 2.269,-15.78 c 0.548,-3.742 1.026,-6.674 1.301,-8.961 h 0.152 c 0.787,2.2 1.825,4.928 3.401,8.854 l 6.586,15.887 h 10.816 l -23.488,-47.331 -12.087,-0.008 7.546,13.778" /><path
           id="path40"
           style="fill:#231f20;fill-opacity:1;fill-rule:nonzero;stroke:none"
           d="m 161.71,136.96 -3.719,-19.509 h 18.465 l 3.714,19.509 h 10.308 L 181.033,87.159 H 170.73 l 3.993,21.152 h -18.479 l -3.978,-21.152 h -10.261 l 9.439,49.801 h 10.266" /><path
           id="path42"
           style="fill:#231f20;fill-opacity:1;fill-rule:nonzero;stroke:none"
           d="m 264.648,87.159 4.102,21.646 c 1.002,5.377 1.469,11.352 1.848,14.483 h 8.892 c -0.199,-2.442 -0.398,-4.89 -0.689,-7.44 h 0.23 c 2.535,4.812 6.533,8.254 11.474,8.254 0.664,0 1.357,-0.028 1.966,-0.084 l -2,-10.012 c -0.462,0.042 -1.048,0.07 -1.635,0.07 -6.649,0 -9.971,-6.075 -11.32,-13.284 l -2.565,-13.633 h -10.303" /><path
           id="path44"
           style="fill:#231f20;fill-opacity:1;fill-rule:nonzero;stroke:none"
           d="m 306.292,86.346 c -9.18,0 -15.225,6.007 -15.225,14.929 0,12.443 8.707,22.827 21.439,22.827 9.712,0 15.225,-6.704 15.225,-14.903 0,-13.005 -8.968,-22.853 -21.365,-22.853 z m 1.364,7.846 c 5.894,0 9.381,8.602 9.381,14.929 0,3.43 -1.498,7.134 -5.909,7.134 -6.268,0 -9.528,-8.951 -9.514,-14.763 0,-4.361 2.203,-7.3 5.968,-7.3 h 0.074" /><path
           id="path46"
           style="fill:#231f20;fill-opacity:1;fill-rule:nonzero;stroke:none"
           d="m 265.818,138.24 -7.1,-37.275 c -0.863,-4.536 -1.496,-9.608 -1.69,-13.806 h -9.394 l 0.556,5.962 h -0.148 c -3.173,-4.827 -7.616,-6.775 -11.923,-6.775 -6.206,0 -11.137,4.912 -11.137,13.584 0,12.59 9.085,24.172 22.677,24.172 1.541,0 3.501,-0.292 5.039,-0.902 l 2.901,15.04 z m -14.572,-23.265 c -0.907,0.716 -2.53,1.28 -4.353,1.28 -6.553,0 -11.235,-7.498 -11.235,-14.652 0,-4.36 1.854,-6.982 5.124,-6.982 3.207,0 7.122,3.417 8.527,10.427 l 1.937,9.927" /><path
           id="path48"
           style="fill:#231f20;fill-opacity:1;fill-rule:nonzero;stroke:none"
           d="m 301.724,62.289 -4.62,-24.466 c -0.885,-4.528 -1.444,-8.447 -1.91,-11.664 h -9.081 l 0.689,5.951 -0.148,0.028 c -3.664,-4.705 -8.076,-6.792 -12.46,-6.792 -5.684,0 -9.297,3.195 -9.297,10.133 0,1.966 0.245,4.126 0.72,6.61 l 3.838,20.2 h 10.261 l -3.672,-19.408 c -0.314,-1.696 -0.549,-3.474 -0.549,-4.819 0,-2.43 0.995,-4.344 3.817,-4.344 3.667,0 7.572,4.418 8.959,11.676 l 3.192,16.895 h 10.261" /><path
           id="path50"
           style="fill:#231f20;fill-opacity:1;fill-rule:nonzero;stroke:none"
           d="m 441.978,27.319 c -2.266,-1.094 -5.914,-1.936 -10.276,-1.936 -8.937,0 -15.09,5.531 -15.09,14.764 0,12.771 9.769,22.927 23.449,22.927 3.09,0 5.77,-0.612 7.342,-1.258 l -2.545,-7.883 c -1.28,0.527 -2.801,0.935 -4.988,0.935 -7.715,0 -12.513,-6.667 -12.513,-13.578 0,-5.083 3.14,-7.674 7.248,-7.674 3.129,0 5.413,0.768 7.242,1.545 l 0.131,-7.842" /><path
           id="path52"
           style="fill:#231f20;fill-opacity:1;fill-rule:nonzero;stroke:none"
           d="m 338.482,27.698 9.296,49.668 10.207,-0.009 -3.749,-19.712 0.149,-0.014 c 1.98,3.315 6.716,5.746 11.179,5.813 7.561,0.112 11.15,-5.749 11.129,-12.664 C 376.634,30.591 359.06,20.079 338.482,27.698 Z m 11.252,5.845 c 9.429,-4.128 16.256,6.627 16.246,15.073 -0.004,3.704 -1.747,6.461 -4.881,6.418 -4.182,-0.058 -8.12,-4.019 -9.517,-11.59 l -1.848,-9.901" /><path
           id="path54"
           style="fill:#231f20;fill-opacity:1;fill-rule:nonzero;stroke:none"
           d="m 413.199,43.63 c 1.495,6.801 1.396,19.434 -12.283,19.434 -13.351,0 -21.046,-11.585 -21.046,-22.537 0,-9.211 5.026,-15.153 15.566,-15.153 4.141,0 9.273,0.817 13.254,2.848 l -0.773,7.467 c -2.701,-1.791 -17.835,-6.058 -18.202,4.563 z m -22.795,3.321 c 0.313,2.509 2.87,8.02 8.016,8.592 4.754,0.529 6.565,-3.529 5.832,-6.596 l -13.848,-1.996" /><path
           id="path56"
           style="fill:#231f20;fill-opacity:1;fill-rule:nonzero;stroke:none"
           d="m 233.538,25.253 c -8.5,-0.012 -19.896,5.198 -19.896,21.06 0,15.088 9.546,30.477 27.251,30.477 13.745,0 19.966,-9.939 19.966,-20.727 0,-11.488 -7.26,-20.39 -11.797,-22.856 l 10e-4,-0.102 c 0.4,0.025 4,1.033 7.75,1.033 0,0 1.963,-0.003 3.2,-0.003 l -1.675,-7.948 c -0.767,-0.011 -5.859,-0.001 -12.508,-0.001 -5.3,0 -5.4,-0.922 -12.292,-0.933 z m 1.61,8.693 c 9.094,0 14.817,12.445 14.831,22.069 0,5.702 -2.178,12.228 -10.256,12.228 -9.307,0 -15.176,-12.596 -15.176,-21.944 0,-7.073 3.241,-12.353 10.528,-12.353 h 0.073" /><path
           id="path58"
           style="fill:#231f20;fill-opacity:1;fill-rule:nonzero;stroke:none"
           d="m 337.042,77.392 -9.245,-10.807 h -7.4 l 6.763,10.807 z M 336.744,43.63 c 1.494,6.801 1.396,19.434 -12.284,19.434 -13.35,0 -21.046,-11.585 -21.046,-22.537 0,-9.211 5.025,-15.153 15.566,-15.153 4.141,0 9.273,0.817 13.254,2.848 l -0.773,7.467 c -2.701,-1.791 -17.835,-6.058 -18.201,4.563 z m -22.796,3.321 c 0.313,2.509 2.87,8.02 8.017,8.592 4.753,0.529 6.564,-3.529 5.831,-6.596 l -13.848,-1.996" /></g></g></g></svg>