<?xml version="1.0" encoding="UTF-8" standalone="no"?>
<svg viewBox="0 0 965.5368 509.3309" xmlns="http://www.w3.org/2000/svg">
<g transform="translate(338.49143,-267.03286)">
<path d="m-305.39905,696.98749h44.95179v40.27984h-44.95179z" fill="#e6e6e6"/>
<path d="m445.22046,775.69674c-20.07628-2.80202-35.57312-7.14433-66.81917-18.72312-29.73625-11.01931-33.41327-11.95485-44.29761-11.27067-9.62176.60481-15.64544,2.48434-31.3481,9.78136-14.03113,6.52027-24.87939,9.58164-41.47306,11.70367-21.72207,2.77786-54.79199.47403-74.29282-5.17564-21.43418-6.20979-33.42633-12.64331-58.8079-31.54915-26.44337-19.69673-36.81261-24.44978-53.32806-24.44447-12.97324.004-33.00454,6.31335-47.83644,15.06688-22.59213,13.33347-30.44624,15.0042-55.05331,11.71094-21.95616-2.93847-32.61291-1.45097-51.19557,7.14603-21.28958,9.84932-26.30914,10.29803-53.64126,4.79501-14.47716-2.91481-20.77162-3.70763-29.51346-3.71735-11.98334-.0133-14.98146.57982-36.87057,7.29452-17.84753,5.4749-25.57362,6.79391-50.77753,8.66881-45.87104,3.41232-54.07911,1.56408-72.0122-16.21522-6.3821-6.32736-9.21656-10.10119-12.51869-16.66751-3.68404-7.32575-4.20687-9.15415-3.81765-13.35087 .59034-6.36524 5.52494-11.55841 15.83507-16.6648 7.46943-3.69945 7.61529-3.7263 20.20305-3.71875 11.71528.007 13.23611.23481 20.0029,2.99598 4.02798,1.64361 7.32361,3.53548 7.32361,4.20414 0,2.06943-9.89048,12.1599-13.68279,13.95947-1.97713.93821-3.96504,2.69608-4.41756,3.90638-2.44791,6.54701-2.66398,6.16613 5.71074,10.06639 15.89831,7.40412 36.16864,10.93868 50.38291,8.78533 11.09198-1.68036 22.91679-5.26472 33.40016-10.12432 13.75172-6.37466 24.42511-9.1479 35.3353-9.18107 9.87117-.03 9.84427-.038 29.36976,8.66648 10.86933,4.84553 21.66611,7.04699 30.12062,6.14159 3.62504-.38821 13.47296-3.13996 22.40263-6.25985 20.60576-7.19934 29.31256-8.00219 43.06871-3.97138 10.70581,3.13701 16.55478,3.30816 21.78951.6376 6.65424-3.39474 14.22358-13.99017 15.86786-22.21156 .49481-2.47402 1.93707-3.45033 11.32409-7.66552 18.90064-8.48724 30.67933-11.5933 43.79698-11.54933 10.16317.0341 14.28302,1.16836 29.02561,7.9914 21.63481,10.01284 33.45301,12.58254 47.12864,10.24744 3.83535-.65488 15.61019-4.10391 26.16628-7.66449 17.60208-5.93721 30.2708-8.7402 35.12072-7.77055 1.59301.31849 1.44098,1.00375-1.40912,6.35107-3.965,7.43912-15.64641,18.71599-22.82667,22.03615-4.91478,2.2726-5.37655,2.80907-7.28673,8.46544-1.12169,3.3215-1.78757,6.4466-1.47974,6.94468 1.11266,1.80032 16.99532,9.13085 27.02311,12.47234 21.04039,7.01111 46.38306,10.44216 63.34371,8.57585 19.17144-2.10957 37.12884-7.52684 62.24342-18.77718 24.0765-10.78533 39.0528-14.20124 58.17218-13.26838 13.13348.6408 16.64861,1.70796 36.83522,11.18282 22.48357,10.55298 31.63445,13.09791 47.24875,13.14028 13.65504.037 21.46724-1.7734 46.51044-10.77863 23.46291-8.43696 31.49753-10.25788 44.90837-10.17775 8.56467.0512 12.24259.58124 19.10459,2.75333 4.67389,1.47948 8.64564,2.8376 8.82609,3.01805 .67468.67468-11.52626,14.69688-21.81809,25.07493-16.4353,16.57299-24.70865,21.03403-46.75023,25.20798-11.95209,2.26333-43.75761,3.37895-54.3167,1.90522z" fill="#e6e6e6"/>
<g transform="translate(93.94419,102.02541)">
<path d="m-150.70464,595.69805c-13.11311-1.29941-25.4827-4.047-35.51701-7.88918l-1.5743-.60281 3.25742-2.69292c15.30975-12.65662 21.36594-27.17491 26.22484-62.8678 1.36042-9.99345 2.56534-21.71138 4.82804-46.95301 3.40212-37.95242 10.29832-71.99692 22.34138-110.29296 10.14411-32.25749 17.87623-50.33847 27.81026-65.03213 18.63677-27.56611 40.08572-42.12583 74.70949-50.71336 11.7221-2.90737 19.21335-3.9695 27.99715-3.9695 19.53117,0 43.12491,7.00119 59.47996,17.65003 13.07037,8.51018 28.65927,27.37167 37.73394,45.65548 11.2303,22.62687 21.41635,60.21878 25.64733,94.65175 3.08345,25.09352 6.54171,48.29231 9.58417,64.29139 2.16171,11.36767 5.46948,23.59378 10.70506,39.56729 5.37264,16.39186 7.00969,22.69566 8.36372,32.20628 1.4212,9.98304 1.36927,17.40579-.15521,22.19245-1.37572,4.31951-4.49568,9.44363-8.10578,13.31265-6.2624,6.71156-8.71418,6.92747-25.25335,2.2238-11.23988-3.19657-15.97057-3.86848-23.97158-3.40467-11.59249.67198-18.54418,2.36871-37.08306,9.051-16.8268,6.06518-22.79426,7.50303-31.13754,7.50256-10.13983-.00055-17.27272-2.10792-34.22322-10.11092-8.53401-4.02925-15.79258-6.81457-20.44158-7.84403-5.34491-1.18357-14.26788-1.6078-21.6147-1.02761-13.66876,1.07939-25.09898,4.20959-40.45483,11.07864-12.86594,5.75525-20.28217,8.51627-28.86953,10.74795-12.12919,3.15214-21.38314,4.15135-30.28108,3.26963z" fill="#71c837"/>
<path d="m85.42636,575.63532-1.88938-1.89777-1.60887-21.18683c-.88488-11.65275-1.58396-21.21173-1.55352-21.24217 .07086-.0709 15.75824-3.50112 15.80145-3.45523 .07737.0822 15.23746,48.13201 15.23746,48.29507 0,.32642-.9996.45046-5.08837.63142-2.21776.0982-4.93956.26908-6.04845.37982s-4.47872.24007-7.48855.2874l-5.4724.0861-1.88938-1.89776z" fill="#8dd35f"/>
<path d="m-20.24893,578.26465c-.26402-.0428-.65285-.15081-.86406-.23999-.78173-.33005-1.96808-.57557-3.74428-.77491-1.00327-.11259-2.25616-.29467-2.7842-.40462s-2.34258-.2754-4.0323-.36767-3.50759-.22099-4.03971-.28604l-.96749-.11829-.23266-1.95939c-.37317-3.14273-.3074-6.57807.15149-7.91184 .32876-.95557.38402-1.61627.38402-4.59121v-3.47502l5.18641-1.32526c2.85252-.72889 5.22869-1.28297 5.28037-1.23129 .18203.18204 9.11866,21.72276 9.11866,21.97951 0,.14307-.11973.26012-.26607.26012s-.51356.12908-.81605.28684c-.52515.27388-1.33251.32797-2.37412.15906z" fill="#8dd35f"/>
<path d="m-42.10899,574.70527c.04007-.16715.08596-.33277.13272-.49815s.10536-.34415.15496-.51716c.03102-.10929.05946-.21925.08235-.33052 .03072-.13917.05094-.28029.07231-.42112 .02038-.15748.03726-.31528.05056-.47349 .01787-.23619.03786-.47233.05011-.7089 .01353-.25842.02342-.51697.02897-.77568 .0061-.31878.01072-.63759.01574-.95639 .0053-.36025.01019-.72052.01483-1.08079 .0068-.36738.0078-.73476.0068-1.10217-.0015-.4136-.0038-.82717-.0061-1.24076-.0015-.43423-.0023-.86843-.0094-1.30262-.0088-.45814-.01422-.91636-.02616-1.37443-.01011-.45198-.02981-.90359-.0536-1.35502-.02441-.49133-.05786-.98212-.08962-1.47302-.03536-.49835-.07345-.99649-.11553-1.49433-.02775-.34315-.05923-.68597-.09141-1.02874l8.05687-.75936c.03475.36795.06843.736.09894,1.10435 .04668.54903.08926,1.09841.12825,1.64805 .0349.52402.07094,1.04798.09755,1.5725 .02821.5257.05216,1.0516.06448,1.57795 .01224.48334.02015.96677.02965,1.45017 .0078.46252.01065.92507.01361,1.38764 .003.41777.0061.83553.0084,1.25329 .0023.41046.0015.82089-.0046,1.23132-.0038.36468-.0078.72935-.01186,1.09402-.0038.33922-.008.67845-.01376,1.01763-.0068.34934-.01946.69852-.03642,1.04753-.01749.31423-.03901.62823-.06341.942-.02775.33437-.06204.66822-.1095,1.00043-.04547.30627-.09426.61213-.15947.91492-.06182.28815-.13066.57473-.21083.85838-.04448.15708-.09137.31346-.13739.47007l-.09147.33018-7.87669-2.00778z"/>
<path d="m-200.56436,588.83208c.0367-.0148 2.92004-9.01042 2.99601-9.03818l.93552-.34837c.36007-.13954.71032-.30236 1.05968-.4664 .53135-.25295 1.05644-.5187 1.58384-.77972 .55958-.27817 1.12074-.55335 1.67574-.84061 .54483-.28378 1.08064-.58451 1.61198-.89269 .55676-.32236 1.09339-.67672 1.62302-1.04138 .63192-.4373 1.23991-.90751 1.84167-1.38504 .66223-.52764 1.29346-1.09199 1.91999-1.66103 .69668-.63492 1.37961-1.28453 2.05427-1.94274 .66183-.64356 1.30157-1.30885 1.92898-1.98583 .61919-.6687 1.20058-1.3708 1.76686-2.08444 .60437-.76715 1.17377-1.56077 1.72476-2.36684 .56364-.82216 1.08724-1.67031 1.58792-2.53195 .51725-.89177.98092-1.81266 1.43338-2.73847 .47877-.9852.91893-1.98822 1.34472-2.99721 .44541-1.05526.8529-2.12578 1.24489-3.20184 .4072-1.11763.77147-2.2502 1.12787-3.38483 .38799-1.24225.74204-2.49465 1.08641-3.74955 .37466-1.36829.71882-2.74455 1.03924-4.12646 .34699-1.50346.65426-3.01559.95496-4.52885 .31968-1.6012.60066-3.20978.87194-4.81978 .28155-1.68967.54706-3.38196.80719-5.07505 .27248-1.77616.52851-3.55477.77841-5.33423 .2644-1.88555.51043-3.77359.75128-5.66227 .25521-2.00438.49276-4.01094.72527-6.01807 .24514-2.12337.47471-4.24848.69959-6.37408 .23542-2.22816.45718-4.45773.67443-6.68773 .22575-2.32282.43971-4.64674.64964-6.97103 .21509-2.38497.42114-4.77074.62483-7.15671 .20715-2.43288.40304-4.8667.61205-7.29942 .2116-2.47829.44175-4.95496.68183-7.43065 .24905-2.52278.51598-5.04376.79319-7.56359 .28505-2.58346.59877-5.16362.92363-7.74234 .33329-2.62945.69015-5.25583 1.06508-7.87964 .38314-2.6869.81879-5.36587 1.26136-8.0435 .44832-2.69409.91856-5.38449 1.40048-8.07275s.99979-5.38026 1.5255-8.06545c.52537-2.67822 1.07867-5.35083 1.64155-8.02138 .56521-2.68567 1.16239-5.36444 1.77512-8.03962 .61898-2.69018 1.26485-5.37402 1.92463-8.05445 .66406-2.69663 1.35902-5.38547 2.06361-8.07175 .71248-2.69965 1.44742-5.39327 2.19691-8.08286 .75283-2.70882 1.53403-5.40966 2.33009-8.10605 .80629-2.72511 1.6376-5.44271 2.4812-8.15647 .84957-2.72258 1.71926-5.43883 2.59627-8.15268s1.76875-5.40823 2.6743-8.10532c.89356-2.65576 1.81633-5.30154 2.74333-7.94577 .91637-2.60373 1.86909-5.19436 2.84047-7.778 .95195-2.53567 1.95442-5.05185 2.98002-7.5585 1.00089-2.44413 2.05968-4.86384 3.1432-7.2723 1.05798-2.36305 2.19892-4.68716 3.38007-6.99066 1.1674-2.24349 2.43038-4.43491 3.7109-6.61513 1.24056-2.11966 2.55673-4.19312 3.9057-6.24499 1.31089-1.97461 2.66946-3.91689 4.04893-5.84402 1.34159-1.8742 2.74142-3.70529 4.1621-5.51991 1.38221-1.76781 2.82059-3.49031 4.28193-5.19291 1.41463-1.64705 2.88727-3.24255 4.37917-4.81946 1.46501-1.5481 2.99045-3.03693 4.54046-4.49933 1.50741-1.42241 3.07216-2.78147 4.66859-4.10252 1.53971-1.26432 3.14035-2.45075 4.75848-3.61195 1.53748-1.10022 3.12099-2.13324 4.71337-3.15154 1.51981-.9692 3.05847-1.90833 4.60761-2.82976 1.51323-.89712 3.04472-1.76289 4.58234-2.61737 1.55865-.86958 3.14729-1.68298 4.74955-2.46866 1.5945-.7786 3.21119-1.51001 4.83641-2.22176s3.2901-1.3795 4.95227-2.02681c1.66927-.64901 3.35216-1.26168 5.04347-1.85056 1.70317-.58468 3.41961-1.12953 5.13782-1.66807 1.68996-.53114 3.38856-1.03397 5.09335-1.51519 1.68522-.47646 3.38104-.91392 5.07926-1.3412 1.6764-.42063 3.36124-.80644 5.04791-1.18337 1.66539-.37303 3.33687-.7177 5.01226-1.04259 1.67073-.32682 3.34942-.6101 5.02993-.88133 1.70633-.27849 3.42039-.50272 5.13833-.6951 1.745-.18586 3.49709-.29149 5.24911-.38353 1.73775-.0926 3.47722-.13597 5.21727-.14205 1.78756.00076 3.573.0949 5.35609.21265 1.72944.1108 3.45495.27072 5.17721.46167 1.70858.19562 3.40934.45042 5.10709.72288 1.63629.2712 3.26729.57265 4.89614.88505 1.65173.31524 3.28951.69688 4.92241,1.09695 1.60124.39159 3.19095.8272 4.77551,1.28097 1.54655.44393 3.08244.92363 4.61624,1.40941 1.51997.47393 3.02587.9909 4.52881,1.51582 1.50119.52967 2.99092,1.09071 4.47501,1.6663 1.49933.57905 2.9826,1.19811 4.45474,1.84282 1.5086.66249 2.98929,1.38609 4.46072,2.12675s2.92464,1.52798 4.36305,2.33605c1.46472.82743 2.90199,1.70185 4.32762,2.59455 1.45022.90501 2.87038,1.85648 4.27477,2.83071 1.45202,1.01066 2.85391,2.08956 4.23415,3.19538 1.39633,1.12025 2.73664,2.3074 4.05702,3.51545 1.32402,1.2162 2.60155,2.48118 3.85903,3.76561 1.2713,1.29942 2.49136,2.64717 3.69543,4.00867 1.20423,1.36631 2.36848,2.76689 3.51869,4.17873 1.16868,1.43349 2.28907,2.9051 3.39419,4.38781 1.09253,1.4693 2.16012,2.95684 3.21448,4.45366 1.0558,1.49979 2.08234,3.01984 3.09678,4.54782s2.00197,3.06519 2.97482,4.61581c.9857,1.58119 1.94129,3.18085 2.87043,4.7959 .96091,1.67112 1.85134,3.38114 2.72512,5.09895 .88921,1.74238 1.71517,3.51576 2.51808,5.29922s1.54509,3.58937 2.28565,5.39745c.72833,1.78347 1.43788,3.57452 2.13952,5.36861 .71357,1.8145 1.3902,3.64312 2.05032,5.47762 .66096,1.83722 1.28626,3.68685 1.89856,5.54074 .60478,1.85156 1.18598,3.71065 1.75326,5.57399 .56037,1.85173 1.09398,3.71131 1.62089,5.57278 .5184,1.8328 1.02395,3.66919 1.5222,5.50756s.98547,3.68175 1.46159,5.52702c.474,1.84397.93149,3.6921 1.38435,5.54134 .45012,1.85693.88579,3.71732 1.31097,5.58011 .42237,1.85684.81805,3.71962 1.21319,5.5824 .39112,1.84209.77334,3.68602 1.145,5.53211s.71076,3.7057 1.04987,5.56159c.33744,1.84722.65434,3.6981.96289,5.55034 .30877,1.83617.59702,3.67563.875,5.51668 .27919,1.84568.53398,3.69493.77607,5.54581 .24004,1.84082.45803,3.68438.6748,5.52804 .21426,1.82257.42138,3.64595.6272,5.46948 .20058,1.81145.40633,3.62229.61816,5.43245 .20917,1.81528.43255,3.62883.66096,5.44176 .23471,1.84346.4835,3.68508.73836,5.52585 .25616,1.86224.5298,3.722.80178,5.58196 .27144,1.85114.55862,3.6999.84177,5.54926 .28793,1.83768.57048,3.67622.85796,5.51397 .28543,1.83039.57519,3.66012.86572,5.48971s.58546,3.65584.88564,5.48256 .60918,3.66404.92822,5.4936c.31371,1.81036.64408,3.61774.98023,5.42405 .32991,1.7749.67685,3.54642 1.04561,5.31365 .3661,1.76365.75623,3.52213 1.16111,5.27725 .39811,1.7265.82702,3.44551 1.26497,5.16226 .43933,1.70091.89713,3.39703 1.36641,5.08992s.97095,3.37548 1.47437,5.05796c.49999,1.66532 1.02128,3.32414 1.55154,4.98006 .53915,1.6819 1.08781,3.36074 1.64256,5.03755 .56728,1.70506 1.1272,3.41257 1.68171,5.12184l1.65426,5.07263c.57254,1.756 1.12941,3.51698 1.66286,5.28527 .56121,1.83193 1.05945,3.68168 1.52547,5.53982 .46182,1.8748.85804,3.76469 1.23303,5.65848 .37493,1.89697.68385,3.80603.97483,5.7174 .27958,1.87561.53133,3.7552.76718,5.63675 .23609,1.865.42754,3.73504.60059,5.60679 .17686,1.87739.29699,3.759.35242,5.64376 .0525,1.93217-.0783,3.86146-.27403,5.7823-.19829,1.87384-.59374,3.71596-1.06158,5.5385-.45559,1.74328-1.08112,3.43355-1.76672,5.09751-.65784,1.56816-1.43992,3.07881-2.25683,4.56875-.78398,1.42547-1.6583,2.79735-2.56888,4.14446-.88693,1.30208-1.85096,2.54801-2.8508,3.76462-.9746,1.17287-2.01642,2.28717-3.08659,3.37269-1.08629,1.11052-2.28557,2.09748-3.52523,3.03-1.22171.92484-2.54545,1.69056-3.91885,2.36354-1.33439.63837-2.74489,1.08113-4.17897,1.42871-1.35225.31464-2.73858.4026-4.12178.43832-1.16803.0245-2.33545-.0213-3.50021-.10511-1.26566-.0964-2.51512-.32373-3.7601-.56234-1.21152-.23367-2.41711-.49581-3.61852-.77634-1.32846-.31608-2.6465-.67368-3.96288-1.0361-1.40145-.38236-2.78344-.83053-4.1636-1.28234-1.31113-.43355-2.62552-.85681-3.94554-1.26261-1.34778-.42432-2.7192-.76364-4.09898-1.06477-1.4806-.32977-2.98105-.54827-4.4907-.68536-1.78033-.12249-3.56674-.0998-5.34981-.0735-1.83728.0246-3.66987.15514-5.49681.34402-1.80276.20333-3.59297.49967-5.37779.82145-1.74025.30761-3.45861.7194-5.16806,1.1642-1.74407.46122-3.47149.98207-5.19362,1.51857-1.75572.54643-3.49361,1.14769-5.22595,1.76362-1.82149.65456-3.63646,1.3271-5.4497,2.0041-1.8907.70767-3.77767,1.42519-5.67078,2.12642-2.04325.75607-4.1033,1.46504-6.17204,2.14783-2.11146.69219-4.23824,1.3358-6.37278,1.95262-2.21986.64145-4.47244,1.1576-6.73497,1.62239-2.28613.47574-4.60177.77339-6.9261.9787-2.2376.18427-4.48312.2002-6.72585.1359-2.19818-.074-4.38088-.35156-6.55163-.69072-2.08338-.33313-4.13916-.81031-6.17949-1.34259-1.97055-.52781-3.9132-1.15185-5.84541-1.80435-1.91451-.64647-3.80064-1.37165-5.6769-2.12074-1.88309-.75573-3.73783-1.57891-5.58121-2.42613s-3.65026-1.75722-5.45749-2.67201c-1.75276-.89246-3.50699-1.78208-5.28113-2.6314-1.75621-.84014-3.5617-1.56955-5.37766-2.26867-1.85629-.71277-3.7505-1.31773-5.66694-1.84521-1.87101-.51997-3.79553-.78532-5.71973-1.01247-2.07485-.23556-4.15986-.35262-6.24604-.42217-2.03686-.069-4.07381.006-6.10707.12521-1.98987.12062-3.96982.35397-5.94304.63201s-3.92199.66957-5.86855,1.07928-3.88866.88996-5.81661,1.4016c-1.89192.50415-3.7646,1.0753-5.62457,1.68588-1.81657.60189-3.60061,1.29488-5.37242,2.01634-1.81455.74828-3.59771,1.56938-5.37728,2.39652-1.8727.87434-3.74139,1.75713-5.61871,2.62155-2.01546.92067-4.05185,1.79448-6.09113,2.66075-2.07938.88686-4.18102,1.71881-6.29503,2.51903-2.13679.80558-4.29616,1.54854-6.46667,2.25753-2.17972.70097-4.38131,1.33044-6.58753,1.94182-2.17612.60469-4.37037,1.13937-6.57395,1.63347-2.16456.47439-4.34502.87041-6.52906,1.24295-2.15756.37438-4.33014.64635-6.50957.85301-2.11943.196-4.24722.2539-6.37451.26565-2.0174.01-4.03276-.0828-6.04546-.21065-1.89899-.12527-3.7931-.3122-5.68528-.51362-1.81378-.19438-3.62264-.43043-5.42909-.68315-1.75096-.24608-3.49568-.53323-5.23743-.83693-1.7138-.30285-3.41617-.66549-5.11502-1.04214-1.64198-.3646-3.27424-.77033-4.90043-1.19937-1.56568-.41784-3.12265-.86719-4.67479-1.33251-1.49782-.45286-2.9847-.94082-4.46694-1.442-1.44194-.48749-2.86805-1.01949-4.28661-1.57083-1.33199-.52367-2.64919-1.08388-3.96275-1.65189-1.22789-.52743-2.4375-1.09556-3.64238-1.67316-1.12584-.54157-2.23415-1.11841-3.33492-1.70897-1.04803-.55735-2.06328-1.17256-3.06886-1.80239-.44048-.279-.87685-.56438-1.31439-.84794l6.22388-9.57861 1.17163.76061c.78509.49658 1.57585.98507 2.39543,1.42339 .94697.51189 1.90045,1.01213 2.86899,1.4822 1.06915.51639 2.14203,1.02542 3.23179,1.49722 1.18184.51421 2.36677,1.0219 3.56495,1.49711 1.2583.49227 2.5236.96672 3.80298,1.4018 1.35659.46072 2.71719.91002 4.0879,1.32717 1.43075.43088 2.86578.84769 4.30905,1.23484 1.48008.39251 2.96588.76312 4.46041,1.097 1.53018.34127 3.06337.67076 4.60701.94614 1.61611.28394 3.235.55249 4.8597.78301 1.68283.23768 3.36791.45979 5.05763.6432 1.73269.18679 3.46709.36109 5.20606.47882 1.75314.11466 3.50864.1995 5.2661.19413 1.7929-.006 3.58636-.0483 5.3731-.20847 1.8973-.17379 3.788-.41063 5.6661-.73377 1.99211-.33744 3.9813-.69443 5.9558-1.12465 2.02066-.4512 4.03274-.93972 6.02849-1.4917 2.04142-.56432 4.07852-1.14559 6.09541-1.79305 2.00523-.65408 3.99932-1.34185 5.97334-2.08536 1.97279-.7463 3.93386-1.52272 5.87396-2.35078 1.93252-.82179 3.86268-1.64994 5.77039-2.52817 1.86759-.86482 3.72811-1.74469 5.59371-2.6138 1.94573-.90332 3.89519-1.80044 5.87931-2.61711 2.01619-.8197 4.04726-1.60438 6.11474-2.28655s4.14814-1.31104 6.25087-1.86903c2.11781-.5598 4.24472-1.08444 6.38899-1.53404 2.19768-.46034 4.40211-.89328 6.62571-1.21056 2.27791-.31659 4.56349-.58161 6.8603-.71604 2.37741-.13448 4.75906-.21543 7.14023-.13225 2.40248.0831 4.80335.22225 7.19259.49591 2.49112.29667 4.97927.65969 7.4004,1.33621 2.26933.62949 4.51557,1.33986 6.71493,2.18474 2.09411.8048 4.17556,1.64575 6.20094,2.61302 1.84982.88392 3.6811,1.80539 5.50804,2.7356 1.68282.84994 3.36793,1.69607 5.07998,2.4861 1.6678.76729 3.34659,1.51119 5.05002,2.19642 1.68675.67358 3.3819,1.32691 5.10322,1.90781 1.68265.56901 3.37389,1.11478 5.08927,1.57776 1.67419.44072 3.3614.83559 5.07107,1.11407 1.70062.27059 3.41045.49672 5.133.56312 1.80327.0587 3.60897.0484 5.40889-.0909 1.89002-.1584 3.77255-.39798 5.63116-.78279 1.97029-.40206 3.93185-.84956 5.86476-1.40695 1.99837-.57756 3.98899-1.18182 5.96585-1.82956 1.93796-.64026 3.86715-1.30678 5.7799-2.01927 1.88417-.70086 3.76147-1.41988 5.64422-2.1245 1.86764-.69871 3.73747-1.3917 5.61357-2.06743 1.87492-.66888 3.75574-1.32239 5.65701-1.91313 1.8948-.58981 3.79591-1.1606 5.71513-1.66645 1.98941-.51561 3.98988-.98985 6.01483-1.3462 2.06739-.36949 4.14131-.70768 6.22974-.93596 2.15501-.21736 4.3162-.37113 6.48285-.39847 2.17776-.0306 4.35939-.0541 6.53335.10183 1.97596.17813 3.94166.44859 5.88022.87831 1.68719.36509 3.36555.77187 5.01518,1.28358 1.39058.42322 2.77493.86594 4.15524,1.32163 1.20704.39388 2.41529.7861 3.64103,1.1186 1.17008.31995 2.34108.63775 3.52226.91452 1.05748.24279 2.11883.46747 3.18467.67025 .81356.15441 1.62842.31302 2.4546.38231 .79911.0601 1.60051.0876 2.4019.0756 .59497-.0111 1.19434-.0242 1.78049-.13624 .62781-.13373 1.24079-.32828 1.82876-.587 .72513-.33746 1.41354-.7411 2.05511-1.2208 .79189-.58433 1.55847-1.20345 2.24976-1.90614 .83181-.83678 1.63975-1.69809 2.39788-2.60267 .77752-.93995 1.52584-1.90363 2.21707-2.90939 .71631-1.053 1.40472-2.12519 2.02128-3.24037s1.216-2.26142 1.71973-3.44267c.49034-1.17275.93909-2.36425 1.26877-3.59344 .33394-1.27289.62127-2.55879.76703-3.86867 .15389-1.42464.25775-2.85632.22627-4.2904-.041-1.64278-.15305-3.28221-.30253-4.91865-.15945-1.74812-.33721-3.4945-.55634-5.23628-.22255-1.78212-.46054-3.56234-.72468-5.33882-.26558-1.74513-.54615-3.48837-.88853-5.22034-.33865-1.7088-.69556-3.4143-1.11078-5.10638-.42122-1.68378-.87393-3.35929-1.38305-5.01889-.5098-1.68864-1.04371-3.36978-1.59093-5.04668-.55322-1.69607-1.10842-3.39152-1.66012-5.0881-.54714-1.68788-1.0996-3.37401-1.65981-5.0576-.56645-1.71129-1.12735-3.42445-1.67723-5.14113-.55292-1.726-1.09762-3.4547-1.61686-5.19117-.52395-1.75443-1.04189-3.51069-1.53466-5.27418-.49148-1.76941-.96951-3.54261-1.42746-5.32101-.45909-1.80193-.90731-3.60657-1.32397-5.41886-.42131-1.83187-.8293-3.66679-1.21084-5.5074-.38519-1.84762-.74817-3.6996-1.09207-5.55536-.34383-1.84954-.68202-3.70014-1.00228-5.55394-.32375-1.86443-.63929-3.73026-.94578-5.5976-.30391-1.84754-.6012-3.69616-.89743-5.54496-.29143-1.83809-.58219-3.67628-.86861-5.51517-.28915-1.85009-.57367-3.7009-.86252-5.55103-.28642-1.8742-.57611-3.74791-.85097-5.62384-.27593-1.88797-.55376-3.77569-.81387-5.66591s-.51756-3.772-.75965-5.6602c-.23411-1.84741-.46274-3.6955-.67594-5.54544-.21358-1.82564-.42237-3.65181-.62439-5.47877-.20362-1.80625-.40929-3.61229-.62104-5.41762-.21061-1.79463-.42191-3.58924-.65632-5.38096-.23221-1.77701-.47681-3.55244-.74513-5.3244-.26894-1.78425-.54783-3.56699-.84641-5.34656-.29836-1.79403-.60439-3.58682-.93187-5.3758s-.65397-3.57838-1.01072-5.36191c-.36336-1.80771-.73714-3.61327-1.11967-5.41703-.38275-1.80635-.76604-3.61269-1.17533-5.41326s-.83394-3.60558-1.26862-5.40417c-.44206-1.8047-.88929-3.60815-1.3518-5.40774s-.93811-3.59668-1.42434-5.39047c-.48814-1.79867-.98266-3.5956-1.48912-5.3892s-1.01756-3.57667-1.55565-5.35643-1.09641-3.55422-1.67366-5.32214c-.58082-1.75948-1.17403-3.51487-1.80146-5.25833-.62432-1.73657-1.26566-3.46703-1.94069-5.1846-.67997-1.73776-1.3664-3.47303-2.0723-5.20041-.69198-1.68803-1.39012-3.37373-2.13358-5.03988-.72969-1.61941-1.47954-3.23012-2.28823-4.81187-.78611-1.54403-1.58629-3.08151-2.45049-4.58361-.85819-1.4905-1.74207-2.9661-2.65129-4.42608-.92003-1.46765-1.85826-2.92379-2.81439-4.3682s-1.92496-2.87491-2.92069-4.28958-2.00363-2.81872-3.0352-4.20651c-1.00825-1.35205-2.03052-2.69384-3.09662-4.00107-1.05348-1.29304-2.11958-2.57597-3.22257-3.82728-1.07722-1.21787-2.16857-2.42358-3.30592-3.58593-1.11206-1.13583-2.24188-2.25443-3.41247-3.33026-1.13764-1.04104-2.29205-2.0645-3.49502-3.03002-1.1763-.94311-2.37112-1.86317-3.60843-2.72545-1.25701-.87287-2.52906-1.72398-3.82778-2.53385-1.27335-.79739-2.55812-1.57676-3.86624-2.31608-1.28772-.72407-2.5875-1.42672-3.90687-2.09169-1.29044-.65008-2.58947-1.28432-3.91235-1.86617s-2.65802-1.13437-4.00556-1.65625c-1.36388-.52991-2.73318-1.04584-4.1128-1.53354-1.39805-.48932-2.79901-.97075-4.21313-1.412-1.43246-.4549-2.86672-.90472-4.31133-1.31978-1.44422-.41432-2.8927-.81362-4.35248-1.17001-1.44519-.35528-2.89479-.6939-4.35664-.97435-1.51677-.29153-3.03536-.57365-4.55885-.82819-1.51606-.24476-3.0348-.47395-4.56054-.65057-1.55341-.17429-3.1101-.31787-4.67014-.41869-1.52047-.1013-3.04289-.18353-4.56724-.18651-1.55386.005-3.10722.0437-4.65906.12576-1.52938.0804-3.05885.17198-4.58244.33062-1.53555.17155-3.06772.37092-4.59286.61984-1.56337.25187-3.12497.51549-4.67932.81876-1.57121.30368-3.13853.62704-4.70041.97575-1.58685.35282-3.17157.71569-4.74877,1.10974-1.59401.401-3.18627.80959-4.76816,1.25644-1.60169.45127-3.19749.923-4.78536,1.42085-1.6038.50098-3.20553,1.00933-4.79482,1.55491-1.56188.54397-3.11554,1.11112-4.65708,1.71054-1.51573.59009-3.02546,1.19601-4.51592,1.84776-1.47671.64704-2.94636,1.31043-4.39515,2.0182-1.42769.69924-2.84301,1.42373-4.23196,2.19758-1.44219.80121-2.87994,1.61069-4.29961,2.45134-1.44461.85705-2.87886,1.73156-4.29636,2.63285-1.42414.9089-2.84214,1.82824-4.21834,2.80892-1.41033,1.00822-2.807,2.0364-4.14996,3.13365-1.40918,1.15897-2.78734,2.35516-4.11754,3.60446-1.39541,1.31191-2.76706,2.64933-4.08626,4.03831-1.3691,1.44467-2.72201,2.90501-4.02145,4.41307-1.35275,1.56974-2.68251,3.15941-3.9612,4.79037-1.3229,1.68626-2.62687,3.3875-3.87697,5.12877-1.29488,1.80415-2.57045,3.62234-3.80141,5.47088-1.24687,1.89115-2.4623,3.80302-3.60853,5.75723-1.17413,1.99407-2.33425,3.99729-3.40666,6.04846-1.09684,2.13085-2.15509,4.28146-3.13738,6.46788-1.03335,2.28867-2.04218,4.58855-2.99717,6.91118-.98695,2.40571-1.95162,4.82063-2.86778,7.25432-.94382,2.50415-1.86914,5.01525-2.75978,7.53887-.91252,2.59606-1.82003,5.19395-2.69979,7.80132-.8932,2.65568-1.77405,5.31549-2.63558,7.98164s-1.72051,5.34857-2.55733,8.03028c-.8266,2.66231-1.64085,5.32845-2.43108,8.0018-.7783,2.64246-1.54348,5.28884-2.28091,7.94303-.73326,2.63459-1.45225,5.27311-2.15016,7.9173-.68915,2.63178-1.37127,5.26546-2.02039,7.90745-.6445,2.62165-1.27518,5.24668-1.88089,7.8776-.59753,2.61248-1.17971,5.2285-1.73152,7.85107s-1.09365,5.2369-1.60937,7.86167c-.51413,2.62641-1.01858,5.25475-1.49284,7.88869-.47261,2.63761-.93399,5.27726-1.37265,7.92074-.42818,2.59687-.849,5.19515-1.21849,7.80115-.36502,2.56158-.71114,5.12583-1.03518,7.69294-.31566,2.52042-.62156,5.0421-.89771,7.56719-.27035,2.47244-.5291,4.94616-.77248,7.42141-.23529,2.43474-.46073,4.87044-.66798,7.30773-.20793,2.42997-.40271,4.86103-.60836,7.29119-.20343,2.40453-.41059,4.80875-.62526,7.2123-.21041,2.34979-.42328,4.69938-.64865,7.04779-.21729,2.26112-.43837,4.52188-.67397,6.78117-.2256,2.16199-.4553,4.32358-.70085,6.48341-.23343,2.05138-.47298,4.10208-.72918,6.15076-.24363,1.93638-.49221,3.87217-.75929,5.80548-.25345,1.82852-.51288,3.65624-.79055,5.48127-.26579,1.74943-.53851,3.49782-.82807,5.24349-.28797,1.71674-.58606,3.43199-.92382,5.13974-.32081,1.63204-.6498,3.26261-1.02089,4.8841-.35164,1.52895-.72622,3.05255-1.13697,4.5668-.37765,1.38959-.76626,2.77634-1.19224,4.15201-.40605,1.30359-.82577,2.60327-1.29239,3.88665-.45662,1.25278-.92969,2.49967-1.44765,3.72859-.50687,1.20337-1.03208,2.39913-1.6034,3.57355s-1.16501,2.34189-1.82141,3.47338c-.64178,1.10054-1.3099,2.18569-2.03092,3.2365-.70334,1.02646-1.42828,2.03831-2.19844,3.01605-.74792.94281-1.51571,1.87045-2.33383,2.75366-.75796.81745-1.52984,1.62178-2.32951,2.39873-.76992.75061-1.54879,1.49195-2.34297,2.21692-.81212.7394-1.63289,1.46986-2.49157,2.1553-.8012.63824-1.61161,1.26556-2.45264,1.85088-.77339.53575-1.55883,1.05405-2.37189,1.52816-.6935.40378-1.39187.79958-2.1039,1.16994-.61311.31685-1.23032.62564-1.84852.93244-.58621.29104-1.17002.58697-1.75984.87068s-1.17733.55603-1.78209.79726c-.36776.14568-.73761.28588-1.10731.42656-.44241.16756-.89055.31956-1.35011.43342l-5.66371-2.16059z"/>
<path d="m432.3453,417.48129c0,19.24727-12.43717,34.85026-27.7792,34.85026s-27.77919-15.60299-27.77919-34.85026 12.43716-34.85026 27.77919-34.85026 27.7792,15.60299 27.7792,34.85026z" transform="matrix(.75554,-.0853,.0853,.75554,-334.43613,67.3777)"/>
<path d="m521.23873,428.59299c0,10.87889-9.04522,19.69797-20.20305,19.69797s-20.20306-8.81908-20.20306-19.69797 9.04522-19.69798 20.20306-19.69798 20.20305,8.81909 20.20305,19.69798z" transform="matrix(.76034,0,0,.76034,-313.82288,17.80623)"/>
<path d="m77.76719,575.16776c.0015-.20656.0046-.41314.003-.61971-.0046-.30683-.0089-.61368-.01285-.92052-.0061-.41566-.01072-.83132-.01559-1.24699-.0053-.48709-.01026-.9742-.01566-1.4613-.0061-.53036-.01133-1.06073-.01597-1.5911-.0046-.5877-.0098-1.17541-.0146-1.76311-.0053-.62681-.01004-1.25363-.01498-1.88046s-.01308-1.26378-.02821-1.89554c-.01749-.7033-.03482-1.4066-.0511-2.10993-.01825-.76701-.03475-1.53405-.05049-2.30112-.01734-.80749-.03125-1.61506-.05155-2.42249s-.04243-1.61685-.06851-2.42514-.05725-1.61193-.09104-2.41772c-.03513-.80603-.07911-1.61161-.12417-2.41714-.04631-.81764-.10395-1.63454-.16427-2.45124-.06471-.84555-.13787-1.69042-.21486-2.53493-.07751-.86272-.16321-1.72465-.25303-2.58616-.09042-.87512-.18488-1.74982-.28354-2.62404-.09884-.87591-.20064-1.75149-.31294-2.62578-.11599-.88637-.24222-1.77135-.36833-2.65632-.10638-.75234-.21747-1.504-.32673-2.25592l7.97054-1.15911c.11052.7594.22295,1.51854.33051,2.27837 .13151.92237.26245,1.84482.38422,2.76854 .11703.91431.22557,1.82966.32856,2.74567 .10147.89709.19884,1.79463.29177,2.69264s.18322,1.7921.26413,2.68919c.08132.88901.15889,1.77836.22801,2.66841 .06516.86579.12702,1.73185.17656,2.59871 .04752.84327.09375,1.68662.1307,2.53044 .03505.83281.06797,1.66571.09414,2.49886s.04783,1.65508.07056,2.48266c.02.8147.0349,1.62952.05444,2.44422 .01802.75977.03634,1.51953.05604,2.27925 .0187.70283.03779,1.40564.05741,2.10843 .01756.6759.03011,1.35188.03315,2.02802 .0061.62455.01209,1.24909.0184,1.87363 .0061.584.01224,1.16801.02015,1.75198 .0068.5267.01308,1.05339.02007,1.58007 .0061.48099.01338.96195.02175,1.4429 .0068.40557.01437.81112.02319,1.21665 .0076.31999.01688.63993.0241.95992 .0038.24239.0038.4848.0061.72721h-8.12946z"/>
<path d="m-79.96276,448.57327c.01498-.0961-.03193-.40134.0076-.17078 .04243.24553.08343.4914.13204.73581 .05923.30612.12627.61062.19883.91382 .0944.3706.18878.74118.28643,1.11093 .10723.41676.22519.83065.34465,1.24402 .14643.49896.29401.99758.44826,1.49418l.5554,1.77388c.20819.65476.41959,1.30847.63303,1.96152 .23139.71151.46,1.42399.6994,2.13286 .21347.63889.45266,1.26849.70778,1.89177 .29597.72058.60378,1.43624.91816,2.14896 .33447.74.67546,1.47708 1.02047,2.21222 .38171.81427.76335,1.62854 1.13821,2.44599 .39041.84744.77026,1.69967 1.15898,2.54788 .41273.90125.81982,1.80505 1.22648,2.70904 .40651.9164.81872,1.8303 1.23989,2.74006 .39792.85883.82028,1.70587 1.25547,2.54632 .3456.68289.72969,1.34412 1.16769,1.97165 .28934.42009.6387.79057.99959,1.1487 .41039.39808.84925.7654 1.29056,1.1284 .32618.24981.63622.53443 1.00249.72638 .24873.13874.50948.25136.77739.34683 .07813.0528.28498.0682.31834.0667-.0203-.0377.00019.00032-.02334-.038-.04334.009-.08841-.007-.13221-.0133 .0823-.0564.03376-.0343.07676-.0898 .17978-.17591.34287-.36742.50031-.56325 .19335-.24865.35785-.51741.51921-.78735 .22461-.38273.41927-.78166.60964-1.18216 .21549-.44831.40514-.90788.57776-1.37418 .19465-.52906.35893-1.06849.51134-1.61101 .17208-.6206.3034-1.25113.43325-1.88158 .15745-.77262.3057-1.54707.45041-2.32217 .14374-.79867.27514-1.59949.40535-2.40046 .13792-.84922.26914-1.69949.397-2.55027 .13416-.89649.2598-1.79422.38378-2.69216 .1288-.93528.25073-1.87149.37104-2.80789 .12341-.96226.24181-1.92515.35826-2.88827s.21393-1.91693.30597-2.87694c.08974-.97327.16721-1.94759.23235-2.92281 .06752-1.01022.1206-2.02133.16534-3.03278 .04669-1.03574.08106-2.07193.11203-3.10823 .03262-1.04546.05056-2.0913.06303-3.13717 .01513-1.06297.01528-2.12605.01635-3.18911s-.01247-2.11685-.0279-3.1752c-.003-.18071-.0053-.36144-.0085-.54216l11.40948-.18146c.003.18473.0061.36946.009.55419 .0168,1.11788.0273,2.23584.02988,3.35385-.00067,1.1055-.0015,2.21102-.01657,3.31644-.01331,1.11301-.03254,2.22599-.0663,3.3386-.03209,1.09322-.06797,2.18631-.11709,3.27893-.04927,1.0963-.10538,2.19233-.17761,3.28739-.07276,1.08288-.1563,2.16499-.2566,3.2457-.10021,1.05196-.20401,2.10364-.33343,3.15248-.11848.99318-.2405,1.98593-.36685,2.97814-.12415.97184-.25018,1.94345-.38203,2.91428-.12908.9407-.25973,1.88121-.39836,2.82056-.13311.89859-.27044,1.79655-.41548,2.6933-.14354.88803-.28858,1.77588-.44809,2.66121-.15643.84492-.31669,1.68913-.48759,2.53126-.18403.89989-.3758,1.79868-.62215,2.68401-.23804.84449-.49341,1.68438-.79785,2.50768-.29157.77995-.60566,1.55116-.96576,2.30237-.35104.73607-.7171,1.46566-1.13543,2.16631-.44938.74393-.9236,1.47414-1.47426,2.14824s-1.12906,1.3142-1.77711,1.89028c-.77776.67345-1.60415,1.28918-2.53017,1.74684-.98693.48181-2.01175.88623-3.10137,1.06636-1.07722.16632-2.16599.24431-3.25295.11159-1.03626-.13969-2.05811-.36084-3.03418-.74519-.90987-.35466-1.80119-.75703-2.63766-1.26444-.82068-.51031-1.60933-1.06784-2.34716-1.69342-.73246-.60875-1.45611-1.22992-2.12846-1.90546-.84239-.86004-1.63863-1.76543-2.31266-2.7659-.68092-1.01426-1.31014-2.06105-1.86083-3.15242-.51056-.98867-1.007-1.9846-1.47469-2.99439-.43694-.94417-.8661-1.89193-1.28969-2.84217-.39766-.88015-.79602-1.75996-1.19958-2.63741-.38855-.84567-.76922-1.69493-1.16025-2.53947-.36368-.78911-.73368-1.57524-1.10311-2.36166-.38237-.81458-.76221-1.63043-1.13163-2.45098-.3574-.80871-.7075-1.62072-1.04467-2.43809-.34525-.84468-.67178-1.69683-.96162-2.56231-.24944-.73926-.49032-1.48136-.73292-2.22288-.22872-.69379-.45676-1.3878-.68085-2.0831-.1913-.60138-.38247-1.2028-.57271-1.80452-.1775-.56585-.3489-1.13357-.51875-1.70176-.14732-.50202-.29468-1.00415-.42606-1.51064-.12194-.45763-.24029-.9162-.35718-1.37515-.10516-.4375-.20477-.87634-.29471-1.31725-.07056-.34697-.13588-.69497-.19814-1.04351-.09306-.53167-.16992-1.06785-.172-1.60885l11.48994-.18837z"/>
</g>
<path d="m220.59504,737.82357c-17.24644-1.70899-33.51501-5.32264-46.71219-10.3759l-2.07053-.79282 4.28417-3.54174c20.13549-16.64607 28.10063-35.74061 34.49108-82.68412 1.78923-13.14345 3.37395-28.55495 6.34987-61.75289 4.47449-49.91527 13.54441-94.69081 29.38352-145.058 13.3416-42.42525 23.51093-66.20546 36.57623-85.53066 24.51119-36.25512 52.72099-55.40415 98.25838-66.69853 15.41698-3.82379 25.26952-5.2207 36.82203-5.2207 25.68751,0 56.71815,9.208 78.22841,23.21342 17.19023,11.19264 37.69285,35.9994 49.62792,60.04638 14.77016,29.75899 28.16691,79.20011 33.73153,124.48657 4.05537,33.00315 8.6037,63.51434 12.60515,84.55643 2.8431,14.95084 7.1935,31.03069 14.07937,52.03915 7.06613,21.55868 9.21918,29.84947 11.00001,42.3579 1.86917,13.12976 1.80088,22.8922-.20413,29.18765-1.80935,5.68105-5.91275,12.42032-10.66077,17.50888-8.23635,8.82709-11.46095,9.11105-33.21336,2.92476-14.78277-4.20415-21.0046-5.08785-31.52757-4.47785-15.24652.8838-24.38942,3.11534-48.77187,11.90393-22.13071,7.97696-29.97915,9.86803-40.95228,9.86742-13.33597-.00073-22.71719-2.77235-45.01059-13.29795-11.22398-5.29929-20.7705-8.96256-26.8849-10.31652-7.02966-1.55664-18.76521-2.11458-28.42779-1.35152-17.97724,1.41963-33.01034,5.53648-53.20644,14.5707-16.92137,7.56934-26.67523,11.20065-37.96938,14.13577-15.95239,4.14572-28.12325,5.45988-39.82587,4.30024z" fill="#fff"/>
<path d="m531.156,711.43694-2.48492-2.49595-2.116-27.86505c-1.1638-15.32577-2.08324-27.8978-2.0432-27.93784 .0932-.0932 20.72534-4.6047 20.78217-4.54434 .10176.10809 20.0404,63.30352 20.0404,63.51797 0,.42931-1.31468.59245-6.69226.83046-2.91681.1291-6.49654.35389-7.95495.49954s-5.89045.31574-9.84899.37798l-7.19733.11318-2.48492-2.49595z" fill="#ccc"/>
<path d="m391.41359,715.40013c-.34724-.0563-.85863-.19835-1.13642-.31564-1.02814-.43408-2.58843-.757-4.9245-1.01917-1.31951-.14808-2.96732-.38755-3.6618-.53216s-3.08097-.36221-5.3033-.48356-4.61321-.29064-5.31305-.3762l-1.27245-.15557-.306-2.57701c-.4908-4.13333-.40429-8.65152.19924-10.4057 .43239-1.25677.50507-2.12573.50507-6.03839v-4.57036l6.8212-1.74299c3.75165-.95864 6.8768-1.68737 6.94477-1.6194 .23941.23941 11.99292,28.56991 11.99292,28.90758 0,.18817-.15747.34212-.34994.34212s-.67544.16976-1.07328.37725c-.69068.36021-1.75253.43135-3.12246.2092z" fill="#ccc"/>
<path d="m363.42071,710.21373c.0527-.21983.11305-.43766.17455-.65516 .0641-.22788.13857-.45263.20381-.68017 .0408-.14375.0782-.28836.10831-.43471 .0404-.18304.067-.36864.0951-.55386 .0268-.20711.049-.41465.0665-.62273 .0235-.31065.0498-.62121.0659-.93235 .0178-.33988.0308-.67993.0381-1.02018 .008-.41926.0141-.83856.0207-1.25785 .007-.47381.0134-.94764.0195-1.42147 .009-.48317.0102-.96635.009-1.44958-.002-.54396-.005-1.0879-.008-1.63185-.002-.57111-.003-1.14217-.0124-1.71321-.0116-.60255-.0187-1.20521-.0344-1.80767-.0133-.59444-.0392-1.1884-.0705-1.78212-.0321-.6462-.0761-1.2917-.11787-1.93733-.0465-.65544-.0966-1.31059-.15195-1.96535-.0365-.45132-.0779-.9022-.12022-1.35301l10.59645-.99871c.0457.48393.09.96799.13013,1.45244 .0614.72209.11739,1.44464.16868,2.16753 .0459.68919.0933,1.37831.1283,2.06816s.0686,1.38308.0848,2.07533c.0161.63569.0265,1.2715.039,1.90728 .0102.6083.014,1.21665.0179,1.82503 .004.54945.008,1.09889.0111,1.64833 .003.53984.002,1.07964-.006,1.61944-.005.47963-.0102.95925-.0156,1.43887-.005.44614-.0105.89229-.0181,1.33839-.009.45945-.0256.9187-.0479,1.37771-.023.41328-.0513.82626-.0834,1.23893-.0365.43977-.0816.87885-.14402,1.31577-.0598.40281-.12397.80508-.20973,1.20331-.0813.37898-.17184.75589-.27729,1.12895-.0585.20659-.12017.41226-.18069.61824l-.1203.43425-10.35947-2.64065z"/>
<path d="m155.01922,728.7934c.0483-.0194 3.84046-11.85056 3.94037-11.88706 .41031-.15228.8219-.30111 1.23041-.45819 .47357-.18352.93421-.39766 1.3937-.61341 .69883-.33268 1.38943-.6822 2.08307-1.02549 .73596-.36585 1.47401-.72777 2.20395-1.10557 .71656-.37323 1.42126-.76876 2.12008-1.17408 .73226-.42396 1.43803-.89002 2.13461-1.36962 .8311-.57515 1.63073-1.19357 2.42217-1.82162 .87097-.69396 1.70117-1.43619 2.52518-2.1846 .91628-.83505 1.81448-1.68942 2.70179-2.5551 .87045-.84641 1.71184-1.72141 2.53701-2.61177 .81436-.87948 1.57901-1.80289 2.32378-2.74147 .79488-1.00896 1.54375-2.05274 2.26842-3.11289 .74131-1.08131 1.42995-2.1968 2.08845-3.33003 .68029-1.17286 1.2901-2.38402 1.88518-3.60166 .62968-1.29574 1.20858-2.61491 1.76859-3.94194 .5858-1.38789 1.12174-2.79585 1.63729-4.21109 .53555-1.46991 1.01464-2.95947 1.48338-4.45175 .51029-1.63381.97593-3.28097 1.42885-4.93143 .49275-1.79958.9454-3.60964 1.36682-5.42714 .45636-1.97736.86048-3.96612 1.25596-5.95637 .42045-2.10591.79-4.22153 1.14679-6.33901 .37029-2.22227.71949-4.44797 1.06162-6.67473 .35836-2.33602.69509-4.67526 1.02376-7.01562 .34775-2.47989.67133-4.96305.9881-7.44705 .33565-2.63618.64808-5.27522.95388-7.915 .32241-2.79267.62434-5.58763.9201-8.38323 .30962-2.9305.60128-5.86284.88702-8.79575 .2969-3.05498.5783-6.11142.85441-9.16834 .28288-3.13673.55388-6.27451.82177-9.41255 .27245-3.19974.53009-6.40071.80498-9.60024 .2783-3.25947.58099-6.5168.89674-9.77284 .32756-3.31798.67863-6.63358 1.04321-9.94768 .3749-3.39779.78751-6.79123 1.21476-10.18278 .43835-3.45827.90769-6.9125 1.4008-10.36335 .50392-3.53382 1.07689-7.05722 1.65895-10.57886 .58964-3.54328 1.2081-7.08171 1.84193-10.61733 .63746-3.54178 1.31492-7.07615 2.00634-10.60773 .69097-3.52241 1.41867-7.03744 2.15898-10.54977 .74337-3.53221 1.52878-7.05534 2.33465-10.57376 .81408-3.53814 1.66353-7.06794 2.53128-10.59326 .87338-3.54662 1.78739-7.083 2.71407-10.61601 .93706-3.5506 1.90366-7.09327 2.8894-10.63064 .99012-3.56265 2.01756-7.11481 3.06454-10.66112 1.06044-3.58408 2.15378-7.15829 3.2633-10.72744 1.11736-3.58076 2.26118-7.15318 3.41462-10.72246 1.15116-3.56038 2.32627-7.11293 3.51726-10.66016 1.17521-3.49287 2.38885-6.97262 3.60804-10.45033 1.20522-3.42444 2.45825-6.83165 3.73581-10.22967 1.25201-3.33493 2.57046-6.64423 3.91934-9.94099 1.31637-3.21454 2.70891-6.39696 4.13396-9.56457 1.39146-3.1079 2.89203-6.16459 4.44549-9.19417 1.53537-2.95065 3.19645-5.83282 4.8806-8.70026 1.63159-2.78779 3.36262-5.51481 5.13679-8.21344 1.7241-2.59702 3.5109-5.15152 5.32518-7.68609 1.76447-2.46497 3.60554-4.87323 5.47402-7.25982 1.8179-2.32504 3.70966-4.59049 5.63162-6.82976 1.86053-2.16621 3.79736-4.26462 5.75951-6.33858 1.92679-2.03607 3.93306-3.99419 5.97164-5.91754 1.98255-1.87077 4.04052-3.65821 6.14016-5.39566 2.02503-1.66284 4.13021-3.22325 6.25838-4.75046 2.0221-1.44702 4.10474-2.80565 6.19905-4.14493 1.99887-1.2747 4.02252-2.50984 6.05996-3.72172 1.99021-1.1799 4.00444-2.31856 6.02672-3.44238 2.04994-1.14368 4.13934-2.21346 6.24664-3.24679 2.09709-1.02403 4.22337-1.98598 6.36087-2.92208 2.14978-.93995 4.32716-1.81433 6.51326-2.66567 2.19543-.85358 4.40878-1.65937 6.6332-2.43387 2.24002-.76897 4.4975-1.48557 6.75729-2.19386 2.22265-.69855 4.45665-1.35988 6.6988-1.99278 2.21641-.62664 4.44676-1.20199 6.68028-1.76396 2.20481-.55321 4.42072-1.06063 6.63904-1.55637 2.19033-.49061 4.38867-.94392 6.59215-1.37122s4.40518-.80241 6.61539-1.15914c2.24417-.36626 4.49852-.66118 6.75796-.9142 2.29504-.24444 4.59939-.38336 6.90366-.50442 2.2855-.12181 4.57326-.17882 6.86178-.18682 2.35101.001 4.69923.12483 7.04436.27968 2.27457.14573 4.54397.35605 6.8091.60719 2.24713.25728 4.48399.5924 6.71688.95073 2.15206.35669 4.29716.75316 6.43944,1.16403 2.17237.4146 4.32639.91654 6.47399,1.44272 2.10596.51502 4.19675,1.08793 6.28078,1.68473 2.03403.58386 4.05404,1.21477 6.07131,1.85367 1.99907.62331 3.97964,1.30324 5.95632,1.99362 1.97437.69662 3.93367,1.43451 5.88556,2.19152 1.97193.76157 3.92273,1.57577 5.8589,2.42369 1.98412.87131 3.93153,1.82299 5.86677,2.79712 1.93812.9763 3.8465,2.0096 5.73831,3.07239 1.92641,1.08824 3.81672,2.23828 5.69171,3.41236 1.90734,1.19028 3.77514,2.44166 5.6222,3.72297 1.9097,1.32922 3.75348,2.7482 5.56878,4.20259 1.83646,1.47336 3.59924,3.0347 5.33582,4.62354 1.74136,1.59955 3.42157,3.26326 5.07542,4.95255 1.67202,1.70901 3.27665,3.48158 4.86025,5.27223 1.58381,1.79698 3.11504,3.63903 4.6278,5.49589 1.53706,1.88533 3.0106,3.8208 4.46406,5.77088 1.4369,1.93242 2.841,3.88885 4.2277,5.85747s2.7387,3.97172 4.0729,5.98132 2.633,4.03137 3.9125,6.07075c1.2964,2.07959 2.5532,4.18347 3.7752,6.30759 1.2638,2.19787 2.4349,4.4469 3.5841,6.70618 1.1695,2.29158 2.2558,4.62395 3.3118,6.96956 1.0474,2.34683 2.0321,4.72077 3.0061,7.09876 .9579,2.34564 1.8911,4.70124 2.8139,7.06083 .9385,2.38644 1.8284,4.79146 2.6966,7.2042 .8693,2.41633 1.6917,4.84897 2.497,7.28722 .7954,2.43518 1.5598,4.88027 2.3059,7.33095 .737,2.4354 1.4388,4.88114 2.1318,7.32935 .6818,2.41051 1.3467,4.82574 2.002,7.24358s1.2961,4.84226 1.9223,7.26917c.6234,2.4252 1.2251,4.85587 1.8207,7.288 .592,2.44225 1.165,4.88905 1.7242,7.339 .5555,2.44213 1.0759,4.89207 1.5956,7.34201 .5144,2.42273 1.0171,4.84787 1.5059,7.27586s.9348,4.87376 1.3808,7.31464c.4438,2.42948.8606,4.86377 1.2664,7.29984 .4061,2.41495.7852,4.83421 1.1508,7.25557 .3672,2.42746.7023,4.8596 1.0207,7.29389 .3157,2.42105.6024,4.84572.8875,7.27051 .2818,2.39705.5542,4.79518.8249,7.1935 .2638,2.38242.5344,4.76405.813,7.14479 .2751,2.38746.5689,4.77265.8693,7.15703 .3087,2.42453.6359,4.84665.9711,7.26763 .3369,2.44924.6968,4.8952 1.0545,7.34144 .357,2.43462.7347,4.86613 1.1071,7.29841 .3787,2.41694.7503,4.83499 1.1284,7.25201 .3754,2.40735.7565,4.81381 1.1386,7.22011 .3848,2.40412.77,4.80818 1.1648,7.21069 .3941,2.41056.8012,4.81897 1.2208,7.22522 .4126,2.381.8471,4.75807 1.2892,7.13374 .4339,2.33436.8902,4.66428 1.3752,6.98855s.9946,4.63233 1.5271,6.94067c.5236,2.27071 1.0877,4.53155 1.6637,6.78944 .5778,2.23704 1.1799,4.46779 1.7971,6.69429 .6207,2.22484 1.277,4.43946 1.9391,6.65226 .6576,2.19024 1.3432,4.37193 2.0406,6.54981 .7091,2.21204 1.4307,4.42006 2.1603,6.62541 .7461,2.24251 1.4825,4.48824 2.2118,6.73628l2.1757,6.67155c.753,2.30951 1.4854,4.62556 2.187,6.95122 .7381,2.40937 1.3934,4.84217 2.0063,7.28601 .6074,2.46575 1.1285,4.95135 1.6217,7.44207s.8994,5.00572 1.2821,7.51956c.3677,2.46681.6988,4.93886 1.009,7.41349 .3105,2.45286.5623,4.91234.7899,7.37409 .2326,2.46915.3906,4.94386.4635,7.4227 .069,2.54121-.103,5.07862-.3604,7.60492-.2608,2.46449-.7809,4.88725-1.3962,7.28427-.5992,2.29277-1.4219,4.51583-2.3236,6.70428-.8652,2.06245-1.8938,4.04926-2.9682,6.00884-1.0311,1.87479-2.181,3.67909-3.3786,5.45082-1.1665,1.71251-2.4344,3.35116-3.7494,4.95125-1.2818,1.54257-2.652,3.0081-4.0595,4.43579-1.4287,1.46056-3.006,2.75862-4.6364,3.98507-1.6068,1.21636-3.3478,2.22344-5.1541,3.10854-1.755.83959-3.6101,1.42191-5.4962,1.87906-1.7785.41381-3.6018.52949-5.421.57647-1.5362.0322-3.0716-.028-4.6035-.13824-1.6646-.12677-3.3079-.42577-4.9453-.73959-1.5934-.30732-3.179-.65209-4.7591-1.02105-1.7472-.41571-3.4807-.88602-5.212-1.36268-1.8432-.50288-3.6608-1.09232-5.476-1.68654-1.7244-.57021-3.4531-1.12688-5.1892-1.66059-1.7726-.55807-3.5763-1.00435-5.391-1.4004-1.9473-.43371-3.9207-.72108-5.9062-.90139-2.3415-.1611-4.691-.13125-7.0361-.0967-2.4164.0324-4.82664.20403-7.22944.45245-2.371.26743-4.72549.65717-7.07291,1.08038-2.28878.40457-4.54878.94616-6.79706,1.53116-2.29381.6066-4.56572,1.29162-6.83068,1.99724-2.30914.71866-4.59482,1.50945-6.8732,2.31952-2.39563.86088-4.78269,1.74541-7.16748,2.6358-2.48666.93073-4.96842,1.87442-7.45825,2.79669-2.6873.99438-5.39668,1.92683-8.1175,2.82483-2.777.91038-5.57416,1.75685-8.38152,2.5681-2.91957.84364-5.88218,1.52249-8.85788,2.13378-3.00673.62569-6.05228,1.01717-9.10925,1.28719-2.94291.24235-5.89623.26331-8.84588.17874-2.89106-.0973-5.76176-.46237-8.61675-.90844-2.74008-.43814-5.44385-1.06573-8.1273-1.76579-2.59168-.69417-5.14666-1.51491-7.68792-2.37309-2.51797-.85024-4.99863-1.804-7.46629-2.78921-2.47665-.99394-4.91602-2.07659-7.34044-3.19086-2.41952-1.11579-4.80085-2.3111-7.17772-3.51424-2.30524-1.17377-4.61241-2.34381-6.94577-3.46083-2.30978-1.10496-4.68437-2.06429-7.07273-2.98378-2.4414-.93744-4.93268-1.73308-7.45319-2.42683-2.46076-.68386-4.99191-1.03286-7.52263-1.33161-2.72886-.30981-5.47107-.46376-8.21483-.55524-2.67889-.0907-5.3579.008-8.03205.16468-2.61709.15864-5.22113.46554-7.81633.83123-2.59037.37302-5.15822.88062-7.71835,1.41947-2.56765.54013-5.11439,1.17048-7.65004,1.8434-2.48826.66306-4.95122,1.41424-7.39747,2.21728-2.38916.79161-4.73554,1.70303-7.06584,2.6519-2.3865.98414-4.73173,2.06406-7.07223,3.15191-2.46299,1.14994-4.9207,2.31099-7.38976,3.44789-2.65074,1.21087-5.32902,2.3601-8.01109,3.49943-2.73481,1.16641-5.4989,2.26059-8.27926,3.31304-2.81032,1.05951-5.65034,2.03665-8.505,2.96912-2.86679.92192-5.76233,1.74981-8.66396,2.55389-2.86205.7953-5.74795,1.49851-8.6461,2.14835-2.84685.62392-5.71461,1.14478-8.58707,1.63474-2.83763.49239-5.69503.85008-8.56143,1.12189-2.78748.25777-5.58596.33392-8.38379.34938-2.65329.0131-5.30391-.10885-7.95103-.27705-2.49756-.16476-4.9887-.41061-7.47731-.67551-2.3855-.25566-4.76452-.56611-7.14038-.89849-2.30287-.32364-4.59753-.70131-6.8883-1.10074-2.254-.39831-4.49296-.87525-6.7273-1.37062-2.15954-.47953-4.3063-1.01315-6.44508-1.57742-2.05919-.54955-4.10692-1.14054-6.14831-1.75253-1.96994-.5956-3.92549-1.23737-5.87495-1.89653-1.89645-.64114-3.77208-1.34084-5.63777-2.06596-1.75185-.68874-3.48423-1.42553-5.21184-2.17258-1.61493-.69368-3.20581-1.44088-4.79048-2.20055-1.48071-.71227-2.93837-1.47093-4.3861-2.24764-1.37838-.73303-2.71365-1.54216-4.03619-2.37052l-1.7287-1.11521 8.18569-12.59785 1.54094,1.00035c1.03255.65311 2.07257,1.29558 3.15048,1.87206 1.24546.67324 2.49948,1.33116 3.77332,1.94939 1.40615.67916 2.8172,1.34864 4.25046,1.96916 1.55437.67629 3.1128,1.34401 4.68865,1.96901 1.65493.64744 3.31906,1.27144 5.0017,1.84365 1.7842.60594 3.57367,1.19687 5.37644,1.74551 1.88172.56669 3.76909,1.11488 5.66728,1.62407 1.94662.51623 3.90075,1.00365 5.86636,1.44278 2.0125.44884 4.02897.88219 6.05917,1.24437 2.12552.37344 4.25469.72664 6.39151,1.02981 2.21327.3126 4.4295.60473 6.65183.84594 2.27884.24568 4.55994.47492 6.84704.62976 2.30574.1508 4.61458.26238 6.92601.25531 2.35803-.008 4.7168-.0635 7.06673-.27417 2.49534-.22857 4.982-.54007 7.45209-.96506 2.62004-.44381 5.23623-.91333 7.83311-1.47915 2.65758-.59342 5.30388-1.23593 7.9287-1.96189 2.68489-.7422 5.3641-1.50669 8.01673-2.35824 2.63728-.86024 5.25992-1.76481 7.85617-2.74267 2.59463-.98154 5.17383-2.00269 7.72547-3.09177 2.54166-1.08082 5.08022-2.17001 7.58926-3.32506 2.45627-1.13742 4.90324-2.29463 7.35688-3.43768 2.55904-1.18806 5.12298-2.36795 7.7325-3.44205 2.65171-1.07807 5.32298-2.11009 8.04215-3.00728 2.71909-.8891 5.45566-1.72429 8.22118-2.45816 2.78536-.73625 5.58268-1.42626 8.40284-2.01758 2.8904-.60544 5.78968-1.17484 8.71417-1.59214 2.99592-.41638 6.00193-.76493 9.02271-.94173 3.12678-.17688 6.25914-.28334 9.39087-.17394 3.15976.10927 6.31739.2923 9.45974.65222 3.27634.39018 6.54877.86763 9.73305,1.75739 2.98464.82791 5.93891,1.7622 8.83152,2.87339 2.75419,1.05848 5.49173,2.1645 8.15552,3.43666 2.4329,1.16253 4.84141,2.37446 7.24421,3.59787 2.21325,1.11785 4.42952,2.23069 6.68122,3.26974 2.1935,1.00915 4.40145,1.98753 6.64182,2.88875 2.21843.88589 4.4479,1.74515 6.71179,2.50916 2.21303.74837 4.43736,1.46616 6.69344,2.07508 2.20191.57964 4.42093,1.09897 6.6695,1.46523 2.23667.35588 4.48544.65329 6.75095.74062 2.37167.0772 4.74654.0636 7.1138-.11953 2.48576-.20832 4.96168-.52342 7.40614-1.02952 2.59134-.5288 5.17119-1.11735 7.71337-1.85044 2.62827-.75961 5.24635-1.55433 7.84632-2.40624 2.54882-.84208 5.0861-1.71869 7.60176-2.65576 2.47807-.92177 4.94711-1.86743 7.42332-2.79415 2.45633-.91895 4.91555-1.83038 7.383-2.7191 2.4659-.87972 4.93957-1.73922 7.44013-2.51616 2.49205-.77573 4.99241-1.52643 7.51657-2.19173 2.61649-.67813 5.24752-1.30185 7.91074-1.77053 2.71905-.48596 5.44668-.93074 8.19339-1.23098 2.83428-.28587 5.67669-.48811 8.52629-.52407 2.8642-.0403 5.7335-.0712 8.5927.13393 2.5988.23428 5.1841.58998 7.7337,1.15516 2.219.48017 4.4264,1.01516 6.596,1.68817 1.8289.55662 3.6496,1.13889 5.465,1.73821 1.5875.51804 3.1766,1.03389 4.7887,1.4712 1.5389.42079 3.079.83877 4.6325,1.20277 1.3908.31932 2.7867.61482 4.1885.88152 1.07.20309 2.1417.41169 3.2283.50282 1.051.079 2.105.11516 3.159.0995 .7825-.0146 1.5708-.0318 2.3417-.17919 .8257-.17588 1.6319-.43176 2.4052-.77203 .9537-.44382 1.8591-.9747 2.7029-1.6056 1.0415-.76851 2.0497-1.58278 2.9589-2.50696 1.094-1.10054 2.1566-2.23334 3.1537-3.42305 1.0226-1.23623 2.0068-2.50367 2.9159-3.82645 .9421-1.38491 1.8475-2.79507 2.6584-4.26175 .8154-1.47754 1.5993-2.97424 2.2618-4.52783 .6449-1.54241 1.2351-3.10948 1.6687-4.72611 .4392-1.67411.8171-3.36534 1.0088-5.0881 .2024-1.8737.339-3.75665.2976-5.64276-.054-2.16059-.2013-4.31679-.3979-6.46904-.2097-2.29914-.4435-4.59599-.7317-6.88679-.2927-2.34386-.6057-4.68521-.9531-7.02165-.3493-2.2952-.7183-4.58792-1.1686-6.86582-.4454-2.24743-.9148-4.49051-1.4609-6.71595-.554-2.21451-1.1494-4.41816-1.819-6.60087-.6705-2.22091-1.3727-4.43195-2.0924-6.63742-.7276-2.23069-1.4578-4.46055-2.1834-6.69191-.7196-2.2199-1.4462-4.43752-2.183-6.65178-.745-2.2507-1.4827-4.50386-2.2059-6.76165-.7272-2.27004-1.4436-4.54364-2.1265-6.82746-.6891-2.30744-1.3703-4.61728-2.0184-6.93663-.6464-2.32714-1.2751-4.65927-1.8774-6.99823-.6038-2.36991-1.1933-4.74338-1.7413-7.12692-.5541-2.40928-1.0907-4.82258-1.5925-7.24336-.5066-2.43-.984-4.86574-1.4363-7.30645-.4522-2.43253-.897-4.86645-1.3182-7.30458-.4258-2.4521-.8408-4.90606-1.2439-7.36199-.3997-2.4299-.7907-4.86122-1.1803-7.29277-.3833-2.41747-.7657-4.83507-1.1424-7.25359-.3803-2.43325-.7545-4.86744-1.1344-7.30075-.3767-2.46495-.7577-4.92927-1.1192-7.3965-.3629-2.48307-.7283-4.96581-1.0704-7.45185-.3439-2.47997-.6807-4.96095-.9991-7.44433-.3079-2.42972-.6086-4.86034-.889-7.29339-.2809-2.40109-.5555-4.80288-.8212-7.20571-.2678-2.3756-.5383-4.75091-.8168-7.12529-.277-2.36031-.5549-4.72059-.8632-7.07707-.3054-2.33714-.6271-4.67219-.98-7.00269-.3537-2.34666-.7205-4.69133-1.1132-7.03183-.3924-2.35951-.7949-4.7174-1.2256-7.07028s-.8601-4.70631-1.3293-7.05202c-.4779-2.37751-.9695-4.7522-1.4726-7.12451-.5034-2.37572-1.0075-4.75143-1.5458-7.11955s-1.0968-4.74209-1.6685-7.1076c-.5814-2.37355-1.1696-4.74547-1.7779-7.11229s-1.2338-4.73038-1.8733-7.08959c-.642-2.36562-1.2924-4.72895-1.9585-7.0879-.6652-2.35312-1.3383-4.70406-2.046-7.04481s-1.442-4.67454-2.2012-6.99972c-.7639-2.31407-1.5441-4.62277-2.3693-6.91579-.8211-2.28394-1.6646-4.55985-2.5524-6.81881-.8943-2.28551-1.7971-4.56775-2.7255-6.83962-.9101-2.2201-1.8283-4.43714-2.8061-6.62848-.9597-2.12986-1.9459-4.24827-3.0095-6.3286-1.0339-2.03071-2.0863-4.05282-3.2229-6.02839-1.1287-1.96031-2.29118-3.90103-3.48699-5.82121-1.21003-1.93026-2.44399-3.84538-3.7015-5.74508s-2.53172-3.7811-3.84131-5.64168-2.63519-3.7072-3.99191-5.53243c-1.32605-1.77823-2.67056-3.54296-4.07269-5.26224-1.38554-1.70061-2.78769-3.38793-4.23835-5.03366-1.41676-1.60175-2.85211-3.18751-4.34796-4.71624-1.46259-1.49385-2.94854-2.96504-4.4881-4.37997-1.49623-1.36918-3.01452-2.71525-4.59667-3.98511-1.54708-1.24038-3.11851-2.45045-4.74583-3.58453-1.65323-1.148-3.32623-2.26738-5.03432-3.33253-1.67472-1.04873-3.36446-2.07376-5.0849-3.04612-1.69362-.9523-3.40309-1.87643-5.13834-2.751-1.69719-.85499-3.40569-1.68915-5.14555-2.4544-1.74036-.76346-3.49585-1.49193-5.26814-2.17831-1.79378-.69695-3.5947-1.3755-5.40918-2.01693-1.83872-.64355-3.68128-1.27673-5.54113-1.85707-1.88398-.59829-3.77033-1.18989-5.67029-1.73578-1.89945-.54491-3.8045-1.07008-5.72441-1.53881-1.90072-.46726-3.80724-.91262-5.72988-1.28147-1.99486-.38342-3.99213-.75447-5.99583-1.08923-1.99393-.32192-3.99139-.62335-5.99805-.85564-2.04306-.22923-4.09042-.41807-6.1422-.55066-1.99973-.13323-4.00203-.24139-6.00686-.2453-2.04364.006-4.08663.0575-6.12762.1654-2.01145.10571-4.02302.22619-6.02686.43483-2.01957.22562-4.03468.48784-6.04056.81522-2.05616.33126-4.10998.67797-6.15427,1.07683-2.06647.39941-4.12781.82469-6.18201,1.28332-2.08704.46403-4.17127.94128-6.24561,1.45953-2.09645.52741-4.1906,1.06479-6.27112,1.65249-2.10655.59351-4.20536,1.21393-6.29374,1.86871-2.10933.65889-4.21593,1.32747-6.30618,2.04502-2.05419.71543-4.09758,1.46136-6.12502,2.24972-1.9935.77608-3.9791,1.57299-5.93937,2.43018-1.94218.85099-3.87507,1.72348-5.78053,2.65435-1.87771.91965-3.73914,1.8725-5.5659,2.89027-1.89678,1.05375-3.78772,2.11839-5.65488,3.22402-1.89996,1.12719-3.78629,2.27735-5.6506,3.46274-1.87304,1.19539-3.738,2.40451-5.54799,3.69431-1.85487,1.32602-3.69178,2.67829-5.45805,4.12139-1.85336,1.52429-3.66592,3.09752-5.41541,4.74061-1.83525,1.72543-3.63925,3.48442-5.37427,5.31121-1.80065,1.90004-3.58001,3.82069-5.28904,5.8041-1.77915,2.06453-3.52806,4.15527-5.20979,6.30032-1.73989,2.21779-3.45488,4.45527-5.09902,6.74539-1.70303,2.37283-3.38068,4.76413-4.99965,7.19534-1.63988,2.48725-3.23842,5.00175-4.74595,7.57194-1.54423,2.62262-3.07002,5.25726-4.48046,7.95498-1.44257,2.80251-2.83439,5.631-4.12631,8.50659-1.35907,3.01008-2.68588,6.03489-3.9419,9.08963-1.29804,3.16401-2.56678,6.34012-3.77171,9.54093-1.24133,3.29347-2.45831,6.59609-3.62969,9.91517-1.20015,3.41435-2.39371,6.83111-3.55078,10.26034-1.17474,3.49277-2.33324,6.99097-3.46633,10.4975-1.13675,3.5155-2.26282,7.03447-3.36341,10.56148-1.08715,3.50148-2.15806,7.00801-3.19738,10.52402-1.02362,3.47538-2.02999,6.95591-2.99986,10.44672-.96439,3.46502-1.91001,6.93523-2.82791,10.41288-.90637,3.46133-1.8035,6.92516-2.65722,10.39993-.84766,3.44801-1.67713,6.90046-2.47376,10.36066-.78588,3.43596-1.55156,6.87656-2.27731,10.32578-.72608,3.44233-1.43837,6.88761-2.11665,10.33972s-1.33964,6.91108-1.96339,10.37526c-.62159,3.46899-1.2284,6.94068-1.80532,10.4174-.56315,3.41542-1.11662,6.8327-1.60257,10.26012-.48008,3.36901-.9353,6.74153-1.36148,10.11781-.41515,3.31487-.81747,6.63139-1.18067,9.95241-.35556,3.25177-.69587,6.50522-1.01597,9.76069-.30945,3.20218-.60596,6.40563-.87853,9.61117-.27347,3.19591-.52965,6.39325-.80012,9.58941-.26755,3.16246-.54001,6.3245-.82234,9.48567-.27674,3.09046-.5567,6.18065-.85312,9.2693-.28578,2.97383-.57654,5.9472-.8864,8.91863-.29672,2.84347-.59882,5.6864-.92176,8.52702-.30701,2.69799-.62207,5.39509-.95903,8.08952-.32042,2.54674-.64736,5.0927-.99862,7.63541-.33334,2.40488-.67455,4.8087-1.03974,7.20899-.34956,2.30086-.70825,4.60036-1.08908,6.89627-.37874,2.25787-.77079,4.51378-1.21502,6.75982-.42192,2.14647-.85461,4.29101-1.34267,6.4236-.46248,2.01089-.95513,4.01474-1.49535,6.00629-.49669,1.82759-1.0078,3.65145-1.56804,5.46075-.53404,1.71449-1.08606,3.42383-1.69977,5.11174-.60055,1.64766-1.22273,3.28758-1.90395,4.90387-.66664,1.58268-1.3574,3.15535-2.10881,4.69995-.75455,1.54534-1.53223,3.08007-2.39553,4.56821-.84407,1.44744-1.72279,2.87463-2.67107,4.25667-.92504,1.35001-1.87849,2.6808-2.89141,3.96672-.98367,1.23999-1.99347,2.46003-3.06947,3.62164-.99687,1.07511-2.01205,2.13297-3.06378,3.15482-1.0126.98721-2.03698,1.96222-3.08149,2.91571-1.06811.97246-2.14758,1.93317-3.27693,2.83466-1.05374.83942-2.1196,1.66448-3.22573,2.43429-1.01716.70462-2.05018,1.3863-3.11952,2.00985-.91209.53105-1.83059,1.05161-2.76706,1.53871-.80637.41672-1.61812.82285-2.43118,1.22635-.77099.38278-1.53883.77198-2.31456,1.14513-.7723.36913-1.54843.73129-2.34381,1.04855-.48369.19161-.97012.37599-1.45634.56102-.58187.22037-1.17126.42028-1.77568.57003l-7.44895-2.84162z"/>
<path d="m432.3453,417.48129c0,19.24727-12.43717,34.85026-27.7792,34.85026s-27.77919-15.60299-27.77919-34.85026 12.43716-34.85026 27.77919-34.85026 27.7792,15.60299 27.7792,34.85026z" transform="matrix(.99369,-.11219,.11219,.99369,-21.04976,42.97336)"/>
<path d="m521.23873,428.59299c0,10.87889-9.04522,19.69797-20.20305,19.69797s-20.20306-8.81908-20.20306-19.69797 9.04522-19.69798 20.20306-19.69798 20.20305,8.81909 20.20305,19.69798z" transform="translate(6.06092,-22.22336)"/>
<path d="m521.08262,710.822c.002-.27166.006-.54336.004-.81504-.006-.40355-.0117-.80712-.0169-1.21068-.008-.54667-.0141-1.09335-.0205-1.64004-.007-.64063-.0135-1.28128-.0206-1.92192-.008-.69753-.0149-1.39507-.021-2.09262-.006-.77295-.0129-1.5459-.0192-2.31885-.007-.82439-.0132-1.64879-.0197-2.47319-.003-.83115-.0172-1.66213-.0371-2.49303-.023-.92498-.0458-1.84997-.0672-2.77499-.024-1.00878-.0457-2.0176-.0664-3.02645-.0228-1.06202-.0411-2.12414-.0678-3.18607s-.0558-2.1265-.0901-3.18956-.0753-2.12003-.11974-3.1798c-.0462-1.0601-.10405-2.11961-.16331-3.17904-.0609-1.07537-.13671-2.14976-.21605-3.22389-.0851-1.11207-.18133-2.22325-.28258-3.33396-.10194-1.13465-.21466-2.26826-.33279-3.40133-.11892-1.15096-.24316-2.30137-.37292-3.45115s-.26388-2.30357-.41158-3.45345c-.15255-1.16576-.31857-2.32968-.48443-3.4936-.13991-.98948-.28602-1.97807-.42972-2.967l10.4829-1.52447c.14536.99877.29322,1.99719.43469,2.99653 .17297,1.2131.34517,2.42631.50533,3.64119 .15392,1.20251.29667,2.40639.43212,3.61113 .13345,1.17985.26151,2.36031.38374,3.54138s.24097,2.35698.34739,3.53684c.10695,1.16922.20897,2.33891.29988,3.5095 .0857,1.1387.16706,2.27775.23221,3.41784 .0625,1.10908.1233,2.21825.1719,3.32805 .0461,1.09532.0894,2.19075.12382,3.28652 .0345,1.08829.0629,2.17677.0928,3.26521 .0263,1.0715.0459,2.14315.0716,3.21466 .0237.99925.0478,1.99849.0737,2.99768 .0246.92436.0497,1.8487.0755,2.77302 .0231.88894.0396,1.778.0436,2.66726 .008.82141.0159,1.64281.0242,2.46421 .008.76808.0161,1.53617.0265,2.30422 .009.69271.0172,1.38542.0264,2.07812 .008.63259.0176,1.26516.0286,1.89771 .009.5334.0189,1.06679.0305,1.60014 .01.42085.0222.84164.0317,1.2625 .005.31879.005.63761.008.95642h-10.69191z"/>
<path d="m313.6352,544.32414c.0197-.12636-.042-.52784.01-.22461 .0558.32292.10973.6463.17366.96774 .0779.40261.16607.80309.2615,1.20187 .12416.48741.24828.9748.37672,1.4611 .14103.54812.29617,1.09247.45329,1.63614 .19259.65623.38668,1.31203.58955,1.96515l.73046,2.33303c.27381.86114.55185,1.7209.83256,2.5798 .30433.93578.605,1.87284.91986,2.80515 .28076.84027.59534,1.66832.93088,2.48806 .38926.94772.79409,1.88896 1.20757,2.82633 .4399.97326.88837,1.94267 1.34213,2.90953 .50203,1.07093 1.00396,2.14186 1.49698,3.21698 .51347,1.11456 1.01305,2.23542 1.5243,3.35099 .54283,1.18533 1.07823,2.37401 1.61308,3.56294 .53465,1.20526 1.07679,2.40722 1.63071,3.60374 .52335,1.12955 1.07884,2.24357 1.6512,3.34894 .45453.89814.95969,1.7678 1.53576,2.59313 .38054.5525.84002,1.03976 1.31467,1.51078 .53975.52355 1.11694,1.00665 1.69735,1.48407 .42899.32855.83676.70289 1.31848.95535 .32713.18247.67007.33058 1.02243.45615 .10276.0694.37481.0897.41869.0877-.0267-.0496.00025.00041-.0307-.05-.057.0119-.11628-.009-.17388-.0175 .10824-.0742.0444-.0451.10095-.11809 .23645-.23136.45095-.48324.65801-.7408 .25429-.32702.47065-.6805.68287-1.03552 .29541-.50337.55142-1.02805.8018-1.55478 .28341-.58963.53285-1.19406.75988-1.80733 .256-.69583.47207-1.40529.67252-2.11881 .22632-.81623.39904-1.6455.56981-2.47467 .20708-1.01616.40206-2.03472.59238-3.05413 .18904-1.05042.36187-2.10366.53312-3.1571 .1814-1.1169.35398-2.23518.52214-3.35414 .17645-1.17906.34169-2.35976.50475-3.54074 .1694-1.23009.32976-2.46139.488-3.69295 .16231-1.26557.31803-2.53197.47119-3.79868 .1566-1.2588.28136-2.52115.40241-3.78376 .11803-1.28006.21992-2.56149.30559-3.84411 .0888-1.32864.15861-2.65846.21746-3.98873 .0614-1.36221.10661-2.72501.14734-4.08796 .0429-1.375.0665-2.75049.0829-4.12602 .0199-1.39803.0201-2.7962.0215-4.19434-.004-1.39208-.0164-2.7841-.0367-4.17604-.004-.23768-.007-.47537-.0112-.71306l15.00582-.23866c.004.24296.008.48592.0118.72888 .0221,1.47024.0359,2.94059.0393,4.411-.00088,1.45396-.002,2.90795-.0218,4.36181-.0175,1.46384-.0428,2.92763-.0872,4.39094-.0422,1.43781-.0894,2.87546-.154,4.31248s-.1386,2.88336-.23359,4.32359c-.0957,1.42421-.20557,2.84741-.33748,4.26877-.13179,1.38354-.26831,2.76671-.43853,4.14616-.15583,1.30623-.31631,2.61191-.48248,3.91686-.16328,1.27818-.32904,2.55604-.50245,3.83288-.16976,1.23722-.3416,2.47418-.52393,3.70962-.17506,1.18183-.35568,2.36284-.54644,3.54225-.18878,1.16794-.37954,2.33565-.58933,3.50004-.20574,1.11124-.41651,2.22155-.64128,3.32912-.24204,1.18355-.49425,2.36564-.81826,3.53003-.31307,1.11068-.64894,2.21531-1.04934,3.29812-.38347,1.02579-.79657,2.0401-1.27017,3.02809-.46169.96808-.94313,1.92764-1.49333,2.84914-.59103.97843-1.21473,1.9388-1.93895,2.82538-.72526.87759-1.48495,1.72845-2.33727,2.48611-1.02291.88573-2.10979,1.69554-3.32769,2.29745-1.29802.63368-2.64587,1.16558-4.07894,1.40249-1.41676.21875-2.84872.32132-4.2783.14676-1.3629-.18372-2.70684-.47458-3.99057-.98008-1.19666-.46644-2.36894-.99565-3.46906-1.66299-1.07936-.67117-2.1166-1.40444-3.087-2.2272-.96334-.80063-1.91509-1.6176-2.79936-2.50608-1.10792-1.13112-2.15514-2.3219-3.04163-3.63772-.89555-1.33397-1.7231-2.71071-2.44737-4.14608-.67149-1.30031-1.32441-2.61017-1.93952-3.93825-.57467-1.24178-1.1391-2.48828-1.69621-3.73804-.523-1.15757-1.04693-2.31471-1.5777-3.46874-.51103-1.11222-1.01168-2.22918-1.52597-3.33992-.47831-1.03784-.96494-2.07176-1.45082-3.10607-.5029-1.07134-1.00247-2.14435-1.48833-3.22354-.47005-1.06363-.93051-2.13158-1.37396-3.2066-.45407-1.11092-.88353-2.23168-1.26473-3.36996-.32806-.97228-.64487-1.94829-.96394-2.92355-.30081-.91248-.60073-1.82524-.89546-2.7397l-.75323-2.37332c-.23345-.74421-.45887-1.49088-.68227-2.23816-.19376-.66026-.38756-1.32067-.56035-1.98681-.16037-.60188-.31603-1.20499-.46977-1.8086-.1383-.57541-.26932-1.15257-.3876-1.73246-.0928-.45633-.17871-.91403-.2606-1.37243-.12239-.69926-.22348-1.40444-.22621-2.11597l15.11164-.24774z"/>
<g transform="matrix(.61269,0,0,.61269,62.70099,321.31964)">
<path d="m-515.80617,668.12304c-17.24644-1.70899-33.51501-5.32264-46.71219-10.3759l-2.07053-.79282 4.28417-3.54174c20.13549-16.64607 28.10063-35.74061 34.49108-82.68412 1.78923-13.14345 3.37395-28.55495 6.34987-61.75289 4.47449-49.91527 13.54441-94.69081 29.38352-145.058 13.3416-42.42525 23.51093-66.20546 36.57623-85.53066 24.51119-36.25512 52.72099-55.40415 98.25838-66.69853 15.41698-3.82379 25.26952-5.2207 36.82203-5.2207 25.68751,0 56.71815,9.208 78.22841,23.21342 17.19023,11.19264 37.69285,35.9994 49.62792,60.04638 14.77016,29.75899 28.16691,79.20011 33.73153,124.48657 4.05537,33.00315 8.6037,63.51434 12.60515,84.55643 2.8431,14.95084 7.1935,31.03069 14.07937,52.03915 7.06613,21.55868 9.21918,29.84947 11.00001,42.3579 1.86917,13.12976 1.80088,22.8922-.20413,29.18765-1.80935,5.68105-5.91275,12.42032-10.66077,17.50888-8.23635,8.82709-11.46095,9.11105-33.21336,2.92476-14.78277-4.20415-21.0046-5.08785-31.52757-4.47785-15.24652.8838-24.38942,3.11534-48.77187,11.90393-22.13071,7.97696-29.97915,9.86803-40.95228,9.86742-13.33597-.00073-22.71719-2.77235-45.01059-13.29795-11.22398-5.29929-20.7705-8.96256-26.8849-10.31652-7.02966-1.55664-18.76521-2.11458-28.42779-1.35152-17.97724,1.41963-33.01034,5.53648-53.20644,14.5707-16.92137,7.56934-26.67523,11.20065-37.96938,14.13577-15.95239,4.14572-28.12325,5.45988-39.82587,4.30024z" fill="#ff2a2a"/>
<path d="m-205.24521,641.73641-2.48492-2.49595-2.116-27.86505c-1.1638-15.32577-2.08324-27.8978-2.0432-27.93784 .0932-.0932 20.72534-4.6047 20.78217-4.54434 .10176.10809 20.0404,63.30352 20.0404,63.51797 0,.42931-1.31468.59245-6.69226.83046-2.91681.1291-6.49654.35389-7.95495.49954s-5.89045.31574-9.84899.37798l-7.19733.11318-2.48492-2.49595z" fill="#f55"/>
<path d="m-344.98762,645.6996c-.34724-.0563-.85863-.19835-1.13642-.31564-1.02814-.43408-2.58843-.757-4.9245-1.01917-1.31951-.14808-2.96732-.38755-3.6618-.53216s-3.08097-.36221-5.3033-.48356-4.61321-.29064-5.31305-.3762l-1.27245-.15557-.306-2.57701c-.4908-4.13333-.40429-8.65152.19924-10.4057 .43239-1.25677.50507-2.12573.50507-6.03839v-4.57036l6.8212-1.74299c3.75165-.95864 6.8768-1.68737 6.94477-1.6194 .23941.23941 11.99292,28.56991 11.99292,28.90758 0,.18817-.15747.34212-.34994.34212s-.67544.16976-1.07328.37725c-.69068.36021-1.75253.43135-3.12246.2092z" fill="#f55"/>
<path d="m-372.9805,640.5132c.0527-.21983.11305-.43766.17455-.65516 .0641-.22788.13857-.45263.20381-.68017 .0408-.14375.0782-.28836.10831-.43471 .0404-.18304.067-.36864.0951-.55386 .0268-.20711.049-.41465.0665-.62273 .0235-.31065.0498-.62121.0659-.93235 .0178-.33988.0308-.67993.0381-1.02018 .008-.41926.0141-.83856.0207-1.25785 .007-.47381.0134-.94764.0195-1.42147 .009-.48317.0102-.96635.009-1.44958-.002-.54396-.005-1.0879-.008-1.63185-.002-.57111-.003-1.14217-.0124-1.71321-.0116-.60255-.0187-1.20521-.0344-1.80767-.0133-.59444-.0392-1.1884-.0705-1.78212-.0321-.6462-.0761-1.2917-.11787-1.93733-.0465-.65544-.0966-1.31059-.15195-1.96535-.0365-.45132-.0779-.9022-.12022-1.35301l10.59645-.99871c.0457.48393.09.96799.13013,1.45244 .0614.72209.11739,1.44464.16868,2.16753 .0459.68919.0933,1.37831.1283,2.06816s.0686,1.38308.0848,2.07533c.0161.63569.0265,1.2715.039,1.90728 .0102.6083.014,1.21665.0179,1.82503 .004.54945.008,1.09889.0111,1.64833 .003.53984.002,1.07964-.006,1.61944-.005.47963-.0102.95925-.0156,1.43887-.005.44614-.0105.89229-.0181,1.33839-.009.45945-.0256.9187-.0479,1.37771-.023.41328-.0513.82626-.0834,1.23893-.0365.43977-.0816.87885-.14402,1.31577-.0598.40281-.12397.80508-.20973,1.20331-.0813.37898-.17184.75589-.27729,1.12895-.0585.20659-.12017.41226-.18069.61824l-.1203.43425-10.35947-2.64065z"/>
<path d="m-581.38199,659.09287c.0483-.0194 3.84046-11.85056 3.94037-11.88706 .41031-.15228.8219-.30111 1.23041-.45819 .47357-.18352.93421-.39766 1.3937-.61341 .69883-.33268 1.38943-.6822 2.08307-1.02549 .73596-.36585 1.47401-.72777 2.20395-1.10557 .71656-.37323 1.42126-.76876 2.12008-1.17408 .73226-.42396 1.43803-.89002 2.13461-1.36962 .8311-.57515 1.63073-1.19357 2.42217-1.82162 .87097-.69396 1.70117-1.43619 2.52518-2.1846 .91628-.83505 1.81448-1.68942 2.70179-2.5551 .87045-.84641 1.71184-1.72141 2.53701-2.61177 .81436-.87948 1.57901-1.80289 2.32378-2.74147 .79488-1.00896 1.54375-2.05274 2.26842-3.11289 .74131-1.08131 1.42995-2.1968 2.08845-3.33003 .68029-1.17286 1.2901-2.38402 1.88518-3.60166 .62968-1.29574 1.20858-2.61491 1.76859-3.94194 .5858-1.38789 1.12174-2.79585 1.63729-4.21109 .53555-1.46991 1.01464-2.95947 1.48338-4.45175 .51029-1.63381.97593-3.28097 1.42885-4.93143 .49275-1.79958.9454-3.60964 1.36682-5.42714 .45636-1.97736.86048-3.96612 1.25596-5.95637 .42045-2.10591.79-4.22153 1.14679-6.33901 .37029-2.22227.71949-4.44797 1.06162-6.67473 .35836-2.33602.69509-4.67526 1.02376-7.01562 .34775-2.47989.67133-4.96305.9881-7.44705 .33565-2.63618.64808-5.27522.95388-7.915 .32241-2.79267.62434-5.58763.9201-8.38323 .30962-2.9305.60128-5.86284.88702-8.79575 .2969-3.05498.5783-6.11142.85441-9.16834 .28288-3.13673.55388-6.27451.82177-9.41255 .27245-3.19974.53009-6.40071.80498-9.60024 .2783-3.25947.58099-6.5168.89674-9.77284 .32756-3.31798.67863-6.63358 1.04321-9.94768 .3749-3.39779.78751-6.79123 1.21476-10.18278 .43835-3.45827.90769-6.9125 1.4008-10.36335 .50392-3.53382 1.07689-7.05722 1.65895-10.57886 .58964-3.54328 1.2081-7.08171 1.84193-10.61733 .63746-3.54178 1.31492-7.07615 2.00634-10.60773 .69097-3.52241 1.41867-7.03744 2.15898-10.54977 .74337-3.53221 1.52878-7.05534 2.33465-10.57376 .81408-3.53814 1.66353-7.06794 2.53128-10.59326 .87338-3.54662 1.78739-7.083 2.71407-10.61601 .93706-3.5506 1.90366-7.09327 2.8894-10.63064 .99012-3.56265 2.01756-7.11481 3.06454-10.66112 1.06044-3.58408 2.15378-7.15829 3.2633-10.72744 1.11736-3.58076 2.26118-7.15318 3.41462-10.72246 1.15116-3.56038 2.32627-7.11293 3.51726-10.66016 1.17521-3.49287 2.38885-6.97262 3.60804-10.45033 1.20522-3.42444 2.45825-6.83165 3.73581-10.22967 1.25201-3.33493 2.57046-6.64423 3.91934-9.94099 1.31637-3.21454 2.70891-6.39696 4.13396-9.56457 1.39146-3.1079 2.89203-6.16459 4.44549-9.19417 1.53537-2.95065 3.19645-5.83282 4.8806-8.70026 1.63159-2.78779 3.36262-5.51481 5.13679-8.21344 1.7241-2.59702 3.5109-5.15152 5.32518-7.68609 1.76447-2.46497 3.60554-4.87323 5.47402-7.25982 1.8179-2.32504 3.70966-4.59049 5.63162-6.82976 1.86053-2.16621 3.79736-4.26462 5.75951-6.33858 1.92679-2.03607 3.93306-3.99419 5.97164-5.91754 1.98255-1.87077 4.04052-3.65821 6.14016-5.39566 2.02503-1.66284 4.13021-3.22325 6.25838-4.75046 2.0221-1.44702 4.10474-2.80565 6.19905-4.14493 1.99887-1.2747 4.02252-2.50984 6.05996-3.72172 1.99021-1.1799 4.00444-2.31856 6.02672-3.44238 2.04994-1.14368 4.13934-2.21346 6.24664-3.24679 2.09709-1.02403 4.22337-1.98598 6.36087-2.92208 2.14978-.93995 4.32716-1.81433 6.51326-2.66567 2.19543-.85358 4.40878-1.65937 6.6332-2.43387 2.24002-.76897 4.4975-1.48557 6.75729-2.19386 2.22265-.69855 4.45665-1.35988 6.6988-1.99278 2.21641-.62664 4.44676-1.20199 6.68028-1.76396 2.20481-.55321 4.42072-1.06063 6.63904-1.55637 2.19033-.49061 4.38867-.94392 6.59215-1.37122s4.40518-.80241 6.61539-1.15914c2.24417-.36626 4.49852-.66118 6.75796-.9142 2.29504-.24444 4.59939-.38336 6.90366-.50442 2.2855-.12181 4.57326-.17882 6.86178-.18682 2.35101.001 4.69923.12483 7.04436.27968 2.27457.14573 4.54397.35605 6.8091.60719 2.24713.25728 4.48399.5924 6.71688.95073 2.15206.35669 4.29716.75316 6.43944,1.16403 2.17237.4146 4.32639.91654 6.47399,1.44272 2.10596.51502 4.19675,1.08793 6.28078,1.68473 2.03403.58386 4.05404,1.21477 6.07131,1.85367 1.99907.62331 3.97964,1.30324 5.95632,1.99362 1.97437.69662 3.93367,1.43451 5.88556,2.19152 1.97193.76157 3.92273,1.57577 5.8589,2.42369 1.98412.87131 3.93153,1.82299 5.86677,2.79712 1.93812.9763 3.8465,2.0096 5.73831,3.07239 1.92641,1.08824 3.81672,2.23828 5.69171,3.41236 1.90734,1.19028 3.77514,2.44166 5.6222,3.72297 1.9097,1.32922 3.75348,2.7482 5.56878,4.20259 1.83646,1.47336 3.59924,3.0347 5.33582,4.62354 1.74136,1.59955 3.42157,3.26326 5.07542,4.95255 1.67202,1.70901 3.27665,3.48158 4.86025,5.27223 1.58381,1.79698 3.11504,3.63903 4.6278,5.49589 1.53706,1.88533 3.0106,3.8208 4.46406,5.77088 1.4369,1.93242 2.841,3.88885 4.2277,5.85747s2.7387,3.97172 4.0729,5.98132 2.633,4.03137 3.9125,6.07075c1.2964,2.07959 2.5532,4.18347 3.7752,6.30759 1.2638,2.19787 2.4349,4.4469 3.5841,6.70618 1.1695,2.29158 2.2558,4.62395 3.3118,6.96956 1.0474,2.34683 2.0321,4.72077 3.0061,7.09876 .9579,2.34564 1.8911,4.70124 2.8139,7.06083 .9385,2.38644 1.8284,4.79146 2.6966,7.2042 .8693,2.41633 1.6917,4.84897 2.497,7.28722 .7954,2.43518 1.5598,4.88027 2.3059,7.33095 .737,2.4354 1.4388,4.88114 2.1318,7.32935 .6818,2.41051 1.3467,4.82574 2.002,7.24358s1.2961,4.84226 1.9223,7.26917c.6234,2.4252 1.2251,4.85587 1.8207,7.288 .592,2.44225 1.165,4.88905 1.7242,7.339 .5555,2.44213 1.0759,4.89207 1.5956,7.34201 .5144,2.42273 1.0171,4.84787 1.5059,7.27586s.9348,4.87376 1.3808,7.31464c.4438,2.42948.8606,4.86377 1.2664,7.29984 .4061,2.41495.7852,4.83421 1.1508,7.25557 .3672,2.42746.7023,4.8596 1.0207,7.29389 .3157,2.42105.6024,4.84572.8875,7.27051 .2818,2.39705.5542,4.79518.8249,7.1935 .2638,2.38242.5344,4.76405.813,7.14479 .2751,2.38746.5689,4.77265.8693,7.15703 .3087,2.42453.6359,4.84665.9711,7.26763 .3369,2.44924.6968,4.8952 1.0545,7.34144 .357,2.43462.7347,4.86613 1.1071,7.29841 .3787,2.41694.7503,4.83499 1.1284,7.25201 .3754,2.40735.7565,4.81381 1.1386,7.22011 .3848,2.40412.77,4.80818 1.1648,7.21069 .3941,2.41056.8012,4.81897 1.2208,7.22522 .4126,2.381.8471,4.75807 1.2892,7.13374 .4339,2.33436.8902,4.66428 1.3752,6.98855s.9946,4.63233 1.5271,6.94067c.5236,2.27071 1.0877,4.53155 1.6637,6.78944 .5778,2.23704 1.1799,4.46779 1.7971,6.69429 .6207,2.22484 1.277,4.43946 1.9391,6.65226 .6576,2.19024 1.3432,4.37193 2.0406,6.54981 .7091,2.21204 1.4307,4.42006 2.1603,6.62541 .7461,2.24251 1.4825,4.48824 2.2118,6.73628l2.1757,6.67155c.753,2.30951 1.4854,4.62556 2.187,6.95122 .7381,2.40937 1.3934,4.84217 2.0063,7.28601 .6074,2.46575 1.1285,4.95135 1.6217,7.44207s.8994,5.00572 1.2821,7.51956c.3677,2.46681.6988,4.93886 1.009,7.41349 .3105,2.45286.5623,4.91234.7899,7.37409 .2326,2.46915.3906,4.94386.4635,7.4227 .069,2.54121-.103,5.07862-.3604,7.60492-.2608,2.46449-.7809,4.88725-1.3962,7.28427-.5992,2.29277-1.4219,4.51583-2.3236,6.70428-.8652,2.06245-1.8938,4.04926-2.9682,6.00884-1.0311,1.87479-2.181,3.67909-3.3786,5.45082-1.1665,1.71251-2.4344,3.35116-3.7494,4.95125-1.2818,1.54257-2.652,3.0081-4.0595,4.43579-1.4287,1.46056-3.006,2.75862-4.6364,3.98507-1.6068,1.21636-3.3478,2.22344-5.1541,3.10854-1.755.83959-3.6101,1.42191-5.4962,1.87906-1.7785.41381-3.6018.52949-5.421.57647-1.5362.0322-3.0716-.028-4.6035-.13824-1.6646-.12677-3.3079-.42577-4.9453-.73959-1.5934-.30732-3.179-.65209-4.7591-1.02105-1.7472-.41571-3.4807-.88602-5.212-1.36268-1.8432-.50288-3.6608-1.09232-5.476-1.68654-1.7244-.57021-3.4531-1.12688-5.1892-1.66059-1.7726-.55807-3.5763-1.00435-5.391-1.4004-1.9473-.43371-3.9207-.72108-5.9062-.90139-2.3415-.1611-4.691-.13125-7.0361-.0967-2.4164.0324-4.82664.20403-7.22944.45245-2.371.26743-4.72549.65717-7.07291,1.08038-2.28878.40457-4.54878.94616-6.79706,1.53116-2.29381.6066-4.56572,1.29162-6.83068,1.99724-2.30914.71866-4.59482,1.50945-6.8732,2.31952-2.39563.86088-4.78269,1.74541-7.16748,2.6358-2.48666.93073-4.96842,1.87442-7.45825,2.79669-2.6873.99438-5.39668,1.92683-8.1175,2.82483-2.777.91038-5.57416,1.75685-8.38152,2.5681-2.91957.84364-5.88218,1.52249-8.85788,2.13378-3.00673.62569-6.05228,1.01717-9.10925,1.28719-2.94291.24235-5.89623.26331-8.84588.17874-2.89106-.0973-5.76176-.46237-8.61675-.90844-2.74008-.43814-5.44385-1.06573-8.1273-1.76579-2.59168-.69417-5.14666-1.51491-7.68792-2.37309-2.51797-.85024-4.99863-1.804-7.46629-2.78921-2.47665-.99394-4.91602-2.07659-7.34044-3.19086-2.41952-1.11579-4.80085-2.3111-7.17772-3.51424-2.30524-1.17377-4.61241-2.34381-6.94577-3.46083-2.30978-1.10496-4.68437-2.06429-7.07273-2.98378-2.4414-.93744-4.93268-1.73308-7.45319-2.42683-2.46076-.68386-4.99191-1.03286-7.52263-1.33161-2.72886-.30981-5.47107-.46376-8.21483-.55524-2.67889-.0907-5.3579.008-8.03205.16468-2.61709.15864-5.22113.46554-7.81633.83123-2.59037.37302-5.15822.88062-7.71835,1.41947-2.56765.54013-5.11439,1.17048-7.65004,1.8434-2.48826.66306-4.95122,1.41424-7.39747,2.21728-2.38916.79161-4.73554,1.70303-7.06584,2.6519-2.3865.98414-4.73173,2.06406-7.07223,3.15191-2.46299,1.14994-4.9207,2.31099-7.38976,3.44789-2.65074,1.21087-5.32902,2.3601-8.01109,3.49943-2.73481,1.16641-5.4989,2.26059-8.27926,3.31304-2.81032,1.05951-5.65034,2.03665-8.505,2.96912-2.86679.92192-5.76233,1.74981-8.66396,2.55389-2.86205.7953-5.74795,1.49851-8.6461,2.14835-2.84685.62392-5.71461,1.14478-8.58707,1.63474-2.83763.49239-5.69503.85008-8.56143,1.12189-2.78748.25777-5.58596.33392-8.38379.34938-2.65329.0131-5.30391-.10885-7.95103-.27705-2.49756-.16476-4.9887-.41061-7.47731-.67551-2.3855-.25566-4.76452-.56611-7.14038-.89849-2.30287-.32364-4.59753-.70131-6.8883-1.10074-2.254-.39831-4.49296-.87525-6.7273-1.37062-2.15954-.47953-4.3063-1.01315-6.44508-1.57742-2.05919-.54955-4.10692-1.14054-6.14831-1.75253-1.96994-.5956-3.92549-1.23737-5.87495-1.89653-1.89645-.64114-3.77208-1.34084-5.63777-2.06596-1.75185-.68874-3.48423-1.42553-5.21184-2.17258-1.61493-.69368-3.20581-1.44088-4.79048-2.20055-1.48071-.71227-2.93837-1.47093-4.3861-2.24764-1.37838-.73303-2.71365-1.54216-4.03619-2.37052l-1.7287-1.11521 8.18569-12.59785 1.54094,1.00035c1.03255.65311 2.07257,1.29558 3.15048,1.87206 1.24546.67324 2.49948,1.33116 3.77332,1.94939 1.40615.67916 2.8172,1.34864 4.25046,1.96916 1.55437.67629 3.1128,1.34401 4.68865,1.96901 1.65493.64744 3.31906,1.27144 5.0017,1.84365 1.7842.60594 3.57367,1.19687 5.37644,1.74551 1.88172.56669 3.76909,1.11488 5.66728,1.62407 1.94662.51623 3.90075,1.00365 5.86636,1.44278 2.0125.44884 4.02897.88219 6.05917,1.24437 2.12552.37344 4.25469.72664 6.39151,1.02981 2.21327.3126 4.4295.60473 6.65183.84594 2.27884.24568 4.55994.47492 6.84704.62976 2.30574.1508 4.61458.26238 6.92601.25531 2.35803-.008 4.7168-.0635 7.06673-.27417 2.49534-.22857 4.982-.54007 7.45209-.96506 2.62004-.44381 5.23623-.91333 7.83311-1.47915 2.65758-.59342 5.30388-1.23593 7.9287-1.96189 2.68489-.7422 5.3641-1.50669 8.01673-2.35824 2.63728-.86024 5.25992-1.76481 7.85617-2.74267 2.59463-.98154 5.17383-2.00269 7.72547-3.09177 2.54166-1.08082 5.08022-2.17001 7.58926-3.32506 2.45627-1.13742 4.90324-2.29463 7.35688-3.43768 2.55904-1.18806 5.12298-2.36795 7.7325-3.44205 2.65171-1.07807 5.32298-2.11009 8.04215-3.00728 2.71909-.8891 5.45566-1.72429 8.22118-2.45816 2.78536-.73625 5.58268-1.42626 8.40284-2.01758 2.8904-.60544 5.78968-1.17484 8.71417-1.59214 2.99592-.41638 6.00193-.76493 9.02271-.94173 3.12678-.17688 6.25914-.28334 9.39087-.17394 3.15976.10927 6.31739.2923 9.45974.65222 3.27634.39018 6.54877.86763 9.73305,1.75739 2.98464.82791 5.93891,1.7622 8.83152,2.87339 2.75419,1.05848 5.49173,2.1645 8.15552,3.43666 2.4329,1.16253 4.84141,2.37446 7.24421,3.59787 2.21325,1.11785 4.42952,2.23069 6.68122,3.26974 2.1935,1.00915 4.40145,1.98753 6.64182,2.88875 2.21843.88589 4.4479,1.74515 6.71179,2.50916 2.21303.74837 4.43736,1.46616 6.69344,2.07508 2.20191.57964 4.42093,1.09897 6.6695,1.46523 2.23667.35588 4.48544.65329 6.75095.74062 2.37167.0772 4.74654.0636 7.1138-.11953 2.48576-.20832 4.96168-.52342 7.40614-1.02952 2.59134-.5288 5.17119-1.11735 7.71337-1.85044 2.62827-.75961 5.24635-1.55433 7.84632-2.40624 2.54882-.84208 5.0861-1.71869 7.60176-2.65576 2.47807-.92177 4.94711-1.86743 7.42332-2.79415 2.45633-.91895 4.91555-1.83038 7.383-2.7191 2.4659-.87972 4.93957-1.73922 7.44013-2.51616 2.49205-.77573 4.99241-1.52643 7.51657-2.19173 2.61649-.67813 5.24752-1.30185 7.91074-1.77053 2.71905-.48596 5.44668-.93074 8.19339-1.23098 2.83428-.28587 5.67669-.48811 8.52629-.52407 2.8642-.0403 5.7335-.0712 8.5927.13393 2.5988.23428 5.1841.58998 7.7337,1.15516 2.219.48017 4.4264,1.01516 6.596,1.68817 1.8289.55662 3.6496,1.13889 5.465,1.73821 1.5875.51804 3.1766,1.03389 4.7887,1.4712 1.5389.42079 3.079.83877 4.6325,1.20277 1.3908.31932 2.7867.61482 4.1885.88152 1.07.20309 2.1417.41169 3.2283.50282 1.051.079 2.105.11516 3.159.0995 .7825-.0146 1.5708-.0318 2.3417-.17919 .8257-.17588 1.6319-.43176 2.4052-.77203 .9537-.44382 1.8591-.9747 2.7029-1.6056 1.0415-.76851 2.0497-1.58278 2.9589-2.50696 1.094-1.10054 2.1566-2.23334 3.1537-3.42305 1.0226-1.23623 2.0068-2.50367 2.9159-3.82645 .9421-1.38491 1.8475-2.79507 2.6584-4.26175 .8154-1.47754 1.5993-2.97424 2.2618-4.52783 .6449-1.54241 1.2351-3.10948 1.6687-4.72611 .4392-1.67411.8171-3.36534 1.0088-5.0881 .2024-1.8737.339-3.75665.2976-5.64276-.054-2.16059-.2013-4.31679-.3979-6.46904-.2097-2.29914-.4435-4.59599-.7317-6.88679-.2927-2.34386-.6057-4.68521-.9531-7.02165-.3493-2.2952-.7183-4.58792-1.1686-6.86582-.4454-2.24743-.9148-4.49051-1.4609-6.71595-.554-2.21451-1.1494-4.41816-1.819-6.60087-.6705-2.22091-1.3727-4.43195-2.0924-6.63742-.7276-2.23069-1.4578-4.46055-2.1834-6.69191-.7196-2.2199-1.4462-4.43752-2.183-6.65178-.745-2.2507-1.4827-4.50386-2.2059-6.76165-.7272-2.27004-1.4436-4.54364-2.1265-6.82746-.6891-2.30744-1.3703-4.61728-2.0184-6.93663-.6464-2.32714-1.2751-4.65927-1.8774-6.99823-.6038-2.36991-1.1933-4.74338-1.7413-7.12692-.5541-2.40928-1.0907-4.82258-1.5925-7.24336-.5066-2.43-.984-4.86574-1.4363-7.30645-.4522-2.43253-.897-4.86645-1.3182-7.30458-.4258-2.4521-.8408-4.90606-1.2439-7.36199-.3997-2.4299-.7907-4.86122-1.1803-7.29277-.3833-2.41747-.7657-4.83507-1.1424-7.25359-.3803-2.43325-.7545-4.86744-1.1344-7.30075-.3767-2.46495-.7577-4.92927-1.1192-7.3965-.3629-2.48307-.7283-4.96581-1.0704-7.45185-.3439-2.47997-.6807-4.96095-.9991-7.44433-.3079-2.42972-.6086-4.86034-.889-7.29339-.2809-2.40109-.5555-4.80288-.8212-7.20571-.2678-2.3756-.5383-4.75091-.8168-7.12529-.277-2.36031-.5549-4.72059-.8632-7.07707-.3054-2.33714-.6271-4.67219-.98-7.00269-.3537-2.34666-.7205-4.69133-1.1132-7.03183-.3924-2.35951-.7949-4.7174-1.2256-7.07028s-.8601-4.70631-1.3293-7.05202c-.4779-2.37751-.9695-4.7522-1.4726-7.12451-.5034-2.37572-1.0075-4.75143-1.5458-7.11955s-1.0968-4.74209-1.6685-7.1076c-.5814-2.37355-1.1696-4.74547-1.7779-7.11229s-1.2338-4.73038-1.8733-7.08959c-.642-2.36562-1.2924-4.72895-1.9585-7.0879-.6652-2.35312-1.3383-4.70406-2.046-7.04481s-1.442-4.67454-2.2012-6.99972c-.7639-2.31407-1.5441-4.62277-2.3693-6.91579-.8211-2.28394-1.6646-4.55985-2.5524-6.81881-.8943-2.28551-1.7971-4.56775-2.7255-6.83962-.9101-2.2201-1.8283-4.43714-2.8061-6.62848-.9597-2.12986-1.9459-4.24827-3.0095-6.3286-1.0339-2.03071-2.0863-4.05282-3.2229-6.02839-1.1287-1.96031-2.29118-3.90103-3.48699-5.82121-1.21003-1.93026-2.44399-3.84538-3.7015-5.74508s-2.53172-3.7811-3.84131-5.64168-2.63519-3.7072-3.99191-5.53243c-1.32605-1.77823-2.67056-3.54296-4.07269-5.26224-1.38554-1.70061-2.78769-3.38793-4.23835-5.03366-1.41676-1.60175-2.85211-3.18751-4.34796-4.71624-1.46259-1.49385-2.94854-2.96504-4.4881-4.37997-1.49623-1.36918-3.01452-2.71525-4.59667-3.98511-1.54708-1.24038-3.11851-2.45045-4.74583-3.58453-1.65323-1.148-3.32623-2.26738-5.03432-3.33253-1.67472-1.04873-3.36446-2.07376-5.0849-3.04612-1.69362-.9523-3.40309-1.87643-5.13834-2.751-1.69719-.85499-3.40569-1.68915-5.14555-2.4544-1.74036-.76346-3.49585-1.49193-5.26814-2.17831-1.79378-.69695-3.5947-1.3755-5.40918-2.01693-1.83872-.64355-3.68128-1.27673-5.54113-1.85707-1.88398-.59829-3.77033-1.18989-5.67029-1.73578-1.89945-.54491-3.8045-1.07008-5.72441-1.53881-1.90072-.46726-3.80724-.91262-5.72988-1.28147-1.99486-.38342-3.99213-.75447-5.99583-1.08923-1.99393-.32192-3.99139-.62335-5.99805-.85564-2.04306-.22923-4.09042-.41807-6.1422-.55066-1.99973-.13323-4.00203-.24139-6.00686-.2453-2.04364.006-4.08663.0575-6.12762.1654-2.01145.10571-4.02302.22619-6.02686.43483-2.01957.22562-4.03468.48784-6.04056.81522-2.05616.33126-4.10998.67797-6.15427,1.07683-2.06647.39941-4.12781.82469-6.18201,1.28332-2.08704.46403-4.17127.94128-6.24561,1.45953-2.09645.52741-4.1906,1.06479-6.27112,1.65249-2.10655.59351-4.20536,1.21393-6.29374,1.86871-2.10933.65889-4.21593,1.32747-6.30618,2.04502-2.05419.71543-4.09758,1.46136-6.12502,2.24972-1.9935.77608-3.9791,1.57299-5.93937,2.43018-1.94218.85099-3.87507,1.72348-5.78053,2.65435-1.87771.91965-3.73914,1.8725-5.5659,2.89027-1.89678,1.05375-3.78772,2.11839-5.65488,3.22402-1.89996,1.12719-3.78629,2.27735-5.6506,3.46274-1.87304,1.19539-3.738,2.40451-5.54799,3.69431-1.85487,1.32602-3.69178,2.67829-5.45805,4.12139-1.85336,1.52429-3.66592,3.09752-5.41541,4.74061-1.83525,1.72543-3.63925,3.48442-5.37427,5.31121-1.80065,1.90004-3.58001,3.82069-5.28904,5.8041-1.77915,2.06453-3.52806,4.15527-5.20979,6.30032-1.73989,2.21779-3.45488,4.45527-5.09902,6.74539-1.70303,2.37283-3.38068,4.76413-4.99965,7.19534-1.63988,2.48725-3.23842,5.00175-4.74595,7.57194-1.54423,2.62262-3.07002,5.25726-4.48046,7.95498-1.44257,2.80251-2.83439,5.631-4.12631,8.50659-1.35907,3.01008-2.68588,6.03489-3.9419,9.08963-1.29804,3.16401-2.56678,6.34012-3.77171,9.54093-1.24133,3.29347-2.45831,6.59609-3.62969,9.91517-1.20015,3.41435-2.39371,6.83111-3.55078,10.26034-1.17474,3.49277-2.33324,6.99097-3.46633,10.4975-1.13675,3.5155-2.26282,7.03447-3.36341,10.56148-1.08715,3.50148-2.15806,7.00801-3.19738,10.52402-1.02362,3.47538-2.02999,6.95591-2.99986,10.44672-.96439,3.46502-1.91001,6.93523-2.82791,10.41288-.90637,3.46133-1.8035,6.92516-2.65722,10.39993-.84766,3.44801-1.67713,6.90046-2.47376,10.36066-.78588,3.43596-1.55156,6.87656-2.27731,10.32578-.72608,3.44233-1.43837,6.88761-2.11665,10.33972s-1.33964,6.91108-1.96339,10.37526c-.62159,3.46899-1.2284,6.94068-1.80532,10.4174-.56315,3.41542-1.11662,6.8327-1.60257,10.26012-.48008,3.36901-.9353,6.74153-1.36148,10.11781-.41515,3.31487-.81747,6.63139-1.18067,9.95241-.35556,3.25177-.69587,6.50522-1.01597,9.76069-.30945,3.20218-.60596,6.40563-.87853,9.61117-.27347,3.19591-.52965,6.39325-.80012,9.58941-.26755,3.16246-.54001,6.3245-.82234,9.48567-.27674,3.09046-.5567,6.18065-.85312,9.2693-.28578,2.97383-.57654,5.9472-.8864,8.91863-.29672,2.84347-.59882,5.6864-.92176,8.52702-.30701,2.69799-.62207,5.39509-.95903,8.08952-.32042,2.54674-.64736,5.0927-.99862,7.63541-.33334,2.40488-.67455,4.8087-1.03974,7.20899-.34956,2.30086-.70825,4.60036-1.08908,6.89627-.37874,2.25787-.77079,4.51378-1.21502,6.75982-.42192,2.14647-.85461,4.29101-1.34267,6.4236-.46248,2.01089-.95513,4.01474-1.49535,6.00629-.49669,1.82759-1.0078,3.65145-1.56804,5.46075-.53404,1.71449-1.08606,3.42383-1.69977,5.11174-.60055,1.64766-1.22273,3.28758-1.90395,4.90387-.66664,1.58268-1.3574,3.15535-2.10881,4.69995-.75455,1.54534-1.53223,3.08007-2.39553,4.56821-.84407,1.44744-1.72279,2.87463-2.67107,4.25667-.92504,1.35001-1.87849,2.6808-2.89141,3.96672-.98367,1.23999-1.99347,2.46003-3.06947,3.62164-.99687,1.07511-2.01205,2.13297-3.06378,3.15482-1.0126.98721-2.03698,1.96222-3.08149,2.91571-1.06811.97246-2.14758,1.93317-3.27693,2.83466-1.05374.83942-2.1196,1.66448-3.22573,2.43429-1.01716.70462-2.05018,1.3863-3.11952,2.00985-.91209.53105-1.83059,1.05161-2.76706,1.53871-.80637.41672-1.61812.82285-2.43118,1.22635-.77099.38278-1.53883.77198-2.31456,1.14513-.7723.36913-1.54843.73129-2.34381,1.04855-.48369.19161-.97012.37599-1.45634.56102-.58187.22037-1.17126.42028-1.77568.57003l-7.44895-2.84162z"/>
<path d="m432.3453,417.48129c0,19.24727-12.43717,34.85026-27.7792,34.85026s-27.77919-15.60299-27.77919-34.85026 12.43716-34.85026 27.77919-34.85026 27.7792,15.60299 27.7792,34.85026z" transform="matrix(.99369,-.11219,.11219,.99369,-757.45097,-26.72717)"/>
<path d="m521.23873,428.59299c0,10.87889-9.04522,19.69797-20.20305,19.69797s-20.20306-8.81908-20.20306-19.69797 9.04522-19.69798 20.20306-19.69798 20.20305,8.81909 20.20305,19.69798z" transform="translate(-730.34029,-91.92388)"/>
<path d="m-215.31859,641.12147c.002-.27166.006-.54336.004-.81504-.006-.40355-.0117-.80712-.0169-1.21068-.008-.54667-.0141-1.09335-.0205-1.64004-.007-.64063-.0135-1.28128-.0206-1.92192-.008-.69753-.0149-1.39507-.021-2.09262-.006-.77295-.0129-1.5459-.0192-2.31885-.007-.82439-.0132-1.64879-.0197-2.47319-.003-.83115-.0172-1.66213-.0371-2.49303-.023-.92498-.0458-1.84997-.0672-2.77499-.024-1.00878-.0457-2.0176-.0664-3.02645-.0228-1.06202-.0411-2.12414-.0678-3.18607s-.0558-2.1265-.0901-3.18956-.0753-2.12003-.11974-3.1798c-.0462-1.0601-.10405-2.11961-.16331-3.17904-.0609-1.07537-.13671-2.14976-.21605-3.22389-.0851-1.11207-.18133-2.22325-.28258-3.33396-.10194-1.13465-.21466-2.26826-.33279-3.40133-.11892-1.15096-.24316-2.30137-.37292-3.45115s-.26388-2.30357-.41158-3.45345c-.15255-1.16576-.31857-2.32968-.48443-3.4936-.13991-.98948-.28602-1.97807-.42972-2.967l10.4829-1.52447c.14536.99877.29322,1.99719.43469,2.99653 .17297,1.2131.34517,2.42631.50533,3.64119 .15392,1.20251.29667,2.40639.43212,3.61113 .13345,1.17985.26151,2.36031.38374,3.54138s.24097,2.35698.34739,3.53684c.10695,1.16922.20897,2.33891.29988,3.5095 .0857,1.1387.16706,2.27775.23221,3.41784 .0625,1.10908.1233,2.21825.1719,3.32805 .0461,1.09532.0894,2.19075.12382,3.28652 .0345,1.08829.0629,2.17677.0928,3.26521 .0263,1.0715.0459,2.14315.0716,3.21466 .0237.99925.0478,1.99849.0737,2.99768 .0246.92436.0497,1.8487.0755,2.77302 .0231.88894.0396,1.778.0436,2.66726 .008.82141.0159,1.64281.0242,2.46421 .008.76808.0161,1.53617.0265,2.30422 .009.69271.0172,1.38542.0264,2.07812 .008.63259.0176,1.26516.0286,1.89771 .009.5334.0189,1.06679.0305,1.60014 .01.42085.0222.84164.0317,1.2625 .005.31879.005.63761.008.95642h-10.69191z"/>
<path d="m-422.76601,474.62361c.0197-.12636-.042-.52784.01-.22461 .0558.32292.10973.6463.17366.96774 .0779.40261.16607.80309.2615,1.20187 .12416.48741.24828.9748.37672,1.4611 .14103.54812.29617,1.09247.45329,1.63614 .19259.65623.38668,1.31203.58955,1.96515l.73046,2.33303c.27381.86114.55185,1.7209.83256,2.5798 .30433.93578.605,1.87284.91986,2.80515 .28076.84027.59534,1.66832.93088,2.48806 .38926.94772.79409,1.88896 1.20757,2.82633 .4399.97326.88837,1.94267 1.34213,2.90953 .50203,1.07093 1.00396,2.14186 1.49698,3.21698 .51347,1.11456 1.01305,2.23542 1.5243,3.35099 .54283,1.18533 1.07823,2.37401 1.61308,3.56294 .53465,1.20526 1.07679,2.40722 1.63071,3.60374 .52335,1.12955 1.07884,2.24357 1.6512,3.34894 .45453.89814.95969,1.7678 1.53576,2.59313 .38054.5525.84002,1.03976 1.31467,1.51078 .53975.52355 1.11694,1.00665 1.69735,1.48407 .42899.32855.83676.70289 1.31848.95535 .32713.18247.67007.33058 1.02243.45615 .10276.0694.37481.0897.41869.0877-.0267-.0496.00025.00041-.0307-.05-.057.0119-.11628-.009-.17388-.0175 .10824-.0742.0444-.0451.10095-.11809 .23645-.23136.45095-.48324.65801-.7408 .25429-.32702.47065-.6805.68287-1.03552 .29541-.50337.55142-1.02805.8018-1.55478 .28341-.58963.53285-1.19406.75988-1.80733 .256-.69583.47207-1.40529.67252-2.11881 .22632-.81623.39904-1.6455.56981-2.47467 .20708-1.01616.40206-2.03472.59238-3.05413 .18904-1.05042.36187-2.10366.53312-3.1571 .1814-1.1169.35398-2.23518.52214-3.35414 .17645-1.17906.34169-2.35976.50475-3.54074 .1694-1.23009.32976-2.46139.488-3.69295 .16231-1.26557.31803-2.53197.47119-3.79868 .1566-1.2588.28136-2.52115.40241-3.78376 .11803-1.28006.21992-2.56149.30559-3.84411 .0888-1.32864.15861-2.65846.21746-3.98873 .0614-1.36221.10661-2.72501.14734-4.08796 .0429-1.375.0665-2.75049.0829-4.12602 .0199-1.39803.0201-2.7962.0215-4.19434-.004-1.39208-.0164-2.7841-.0367-4.17604-.004-.23768-.007-.47537-.0112-.71306l15.00582-.23866c.004.24296.008.48592.0118.72888 .0221,1.47024.0359,2.94059.0393,4.411-.00088,1.45396-.002,2.90795-.0218,4.36181-.0175,1.46384-.0428,2.92763-.0872,4.39094-.0422,1.43781-.0894,2.87546-.154,4.31248s-.1386,2.88336-.23359,4.32359c-.0957,1.42421-.20557,2.84741-.33748,4.26877-.13179,1.38354-.26831,2.76671-.43853,4.14616-.15583,1.30623-.31631,2.61191-.48248,3.91686-.16328,1.27818-.32904,2.55604-.50245,3.83288-.16976,1.23722-.3416,2.47418-.52393,3.70962-.17506,1.18183-.35568,2.36284-.54644,3.54225-.18878,1.16794-.37954,2.33565-.58933,3.50004-.20574,1.11124-.41651,2.22155-.64128,3.32912-.24204,1.18355-.49425,2.36564-.81826,3.53003-.31307,1.11068-.64894,2.21531-1.04934,3.29812-.38347,1.02579-.79657,2.0401-1.27017,3.02809-.46169.96808-.94313,1.92764-1.49333,2.84914-.59103.97843-1.21473,1.9388-1.93895,2.82538-.72526.87759-1.48495,1.72845-2.33727,2.48611-1.02291.88573-2.10979,1.69554-3.32769,2.29745-1.29802.63368-2.64587,1.16558-4.07894,1.40249-1.41676.21875-2.84872.32132-4.2783.14676-1.3629-.18372-2.70684-.47458-3.99057-.98008-1.19666-.46644-2.36894-.99565-3.46906-1.66299-1.07936-.67117-2.1166-1.40444-3.087-2.2272-.96334-.80063-1.91509-1.6176-2.79936-2.50608-1.10792-1.13112-2.15514-2.3219-3.04163-3.63772-.89555-1.33397-1.7231-2.71071-2.44737-4.14608-.67149-1.30031-1.32441-2.61017-1.93952-3.93825-.57467-1.24178-1.1391-2.48828-1.69621-3.73804-.523-1.15757-1.04693-2.31471-1.5777-3.46874-.51103-1.11222-1.01168-2.22918-1.52597-3.33992-.47831-1.03784-.96494-2.07176-1.45082-3.10607-.5029-1.07134-1.00247-2.14435-1.48833-3.22354-.47005-1.06363-.93051-2.13158-1.37396-3.2066-.45407-1.11092-.88353-2.23168-1.26473-3.36996-.32806-.97228-.64487-1.94829-.96394-2.92355-.30081-.91248-.60073-1.82524-.89546-2.7397l-.75323-2.37332c-.23345-.74421-.45887-1.49088-.68227-2.23816-.19376-.66026-.38756-1.32067-.56035-1.98681-.16037-.60188-.31603-1.20499-.46977-1.8086-.1383-.57541-.26932-1.15257-.3876-1.73246-.0928-.45633-.17871-.91403-.2606-1.37243-.12239-.69926-.22348-1.40444-.22621-2.11597l15.11164-.24774z"/>
</g>
</g>
</svg>
