<?xml version="1.0" encoding="UTF-8" standalone="no"?>
<svg
   xmlns:dc="http://purl.org/dc/elements/1.1/"
   xmlns:cc="http://creativecommons.org/ns#"
   xmlns:rdf="http://www.w3.org/1999/02/22-rdf-syntax-ns#"
   xmlns:svg="http://www.w3.org/2000/svg"
   xmlns="http://www.w3.org/2000/svg"
   viewBox="0 0 908.0625 582.03748"
   height="582.03748"
   width="908.0625"
   xml:space="preserve"
   version="1.1"
   id="svg2"><metadata
     id="metadata8"><rdf:RDF><cc:Work
         rdf:about=""><dc:format>image/svg+xml</dc:format><dc:type
           rdf:resource="http://purl.org/dc/dcmitype/StillImage" /></cc:Work></rdf:RDF></metadata><defs
     id="defs6" /><g
     transform="matrix(1.25,0,0,-1.25,0,582.0375)"
     id="g10"><g
       transform="scale(0.1,0.1)"
       id="g12"><path
         id="path14"
         style="fill:#ee2722;fill-opacity:1;fill-rule:nonzero;stroke:none"
         d="m 5491.49,1945.37 -79.93,0.01 0,450.8 c 0,26.65 -21.6,48.25 -48.24,48.25 -13.34,0 -25.41,-5.41 -34.14,-14.16 l -298.5,-298.48 -318.75,318.76 293.84,293.82 c 8.98,8.98 14.95,21.18 14.95,34.91 0,19.86 -12.24,36.44 -29.13,44.31 l -369.44,172.27 190.52,408.56 384.13,-179.12 c 6.38,-2.97 13.51,-4.82 21.05,-4.82 26.64,0 48.24,21.6 48.24,48.24 l 0.01,483.87 225.4,-0.01 -0.01,-1807.21" /><path
         id="path16"
         style="fill:#aa1228;fill-opacity:1;fill-rule:nonzero;stroke:none"
         d="m 5491.5,1945.37 79.93,0.01 0,450.8 c 0,26.65 21.6,48.25 48.24,48.25 13.34,0 25.41,-5.41 34.14,-14.16 l 298.5,-298.48 318.75,318.76 -293.84,293.82 c -8.98,8.98 -14.95,21.18 -14.95,34.91 0,19.86 12.24,36.44 29.13,44.31 l 369.44,172.27 -190.52,408.56 -384.13,-179.12 c -6.38,-2.97 -13.5,-4.82 -21.05,-4.82 -26.64,0 -48.24,21.6 -48.24,48.24 l -0.01,483.87 -225.39,-0.01 0,-1807.21" /><path
         id="path18"
         style="fill:#223142;fill-opacity:1;fill-rule:nonzero;stroke:none"
         d="m 1594.7,875.332 c -121,0 -221.83,39.43 -291.98,91.047 -13.68,10.07 -32.27,0.473 -32.88,-16.508 l -1.44,-46.18 -364.693,0 0,1807.429 366.133,0 0,-581.95 c 0,-16.59 18.5,-26.45 32.15,-17.01 67.49,46.64 169.83,85.86 292.71,85.86 348.08,0 631.71,-262.99 631.71,-662.63 0,-407.38 -283.63,-660.058 -631.71,-660.058 m -36.09,330.028 c 167.59,0 293.93,134.07 293.93,330.03 0,195.95 -126.34,330.03 -293.93,330.03 -167.59,0 -293.94,-134.08 -293.94,-330.03 0,-195.96 126.35,-330.03 293.94,-330.03" /><path
         id="path20"
         style="fill:#223142;fill-opacity:1;fill-rule:nonzero;stroke:none"
         d="m 2911.39,875.332 c -348.08,0 -631.71,252.678 -631.71,660.058 0,399.64 283.63,662.63 631.71,662.63 122.88,0 225.22,-39.22 292.71,-85.86 13.65,-9.44 32.15,0.42 32.15,17.01 l 0,581.95 366.13,0 0,-1807.429 -364.69,0 -1.44,46.18 c -0.61,16.981 -19.2,26.578 -32.88,16.508 -70.15,-51.617 -170.98,-91.047 -291.98,-91.047 m 36.09,330.028 c 167.59,0 293.94,134.07 293.94,330.03 0,195.95 -126.35,330.03 -293.94,330.03 -167.59,0 -293.93,-134.08 -293.93,-330.03 0,-195.96 126.34,-330.03 293.93,-330.03" /><path
         id="path22"
         style="fill:#223142;fill-opacity:1;fill-rule:nonzero;stroke:none"
         d="m 4630.25,1383.27 c -79.93,-103.14 -167.59,-165.02 -293.93,-165.02 -172.75,0 -306.83,131.5 -306.83,317.14 0,185.64 134.08,317.14 306.83,317.14 116.01,0 195.93,-59.3 268.14,-146.96 l 243.84,243.84 c -133.23,147.33 -287.28,248.61 -524.87,248.61 -379.02,0 -667.79,-283.61 -667.79,-662.63 0,-379.02 288.77,-660.058 667.79,-660.058 242.83,0 422.27,96.336 550.97,263.808 l -244.15,244.13" /></g></g></svg>