<?xml version="1.0" encoding="utf-8"?>
<!-- Generator: Adobe Illustrator 19.1.0, SVG Export Plug-In . SVG Version: 6.00 Build 0)  -->
<svg version="1.1" id="Layer_1" xmlns="http://www.w3.org/2000/svg" xmlns:xlink="http://www.w3.org/1999/xlink" x="0px" y="0px"
	 viewBox="0 0 260 260" style="enable-background:new 0 0 260 260;" xml:space="preserve">
<style type="text/css">
	.st0{clip-path:url(#SVGID_2_);fill:#FFFFFF;}
	.st1{clip-path:url(#SVGID_2_);fill:#079C58;}
	.st2{clip-path:url(#SVGID_2_);fill:#DA4535;}
	.st3{clip-path:url(#SVGID_2_);fill:#547DBF;}
	.st4{clip-path:url(#SVGID_2_);fill:#F0B31D;}
	.st5{fill:#FFFFFF;}
	.st6{fill:#607E8A;}
</style>
<g>
	<g>
		<defs>
			<rect id="SVGID_1_" x="2.6" y="2.6" width="254.7" height="254.7"/>
		</defs>
		<clipPath id="SVGID_2_">
			<use xlink:href="#SVGID_1_"  style="overflow:visible;"/>
		</clipPath>
		<path class="st0" d="M247.4,130c0-64.9-52.6-117.5-117.5-117.5C65.1,12.5,12.5,65.1,12.5,130c0,64.9,52.6,117.5,117.5,117.5
			C194.9,247.4,247.4,194.9,247.4,130L247.4,130z"/>
		<path class="st1" d="M13.1,130h-11C2.1,59.5,59.5,2.1,130,2.1v11C65.5,13.1,13.1,65.5,13.1,130L13.1,130z"/>
		<path class="st2" d="M257.8,130h-11c0-64.4-52.4-116.9-116.9-116.9v-11C200.5,2.1,257.8,59.5,257.8,130L257.8,130z"/>
		<path class="st3" d="M130,257.8v-11c64.4,0,116.9-52.4,116.9-116.9h11C257.8,200.5,200.5,257.8,130,257.8L130,257.8z"/>
		<path class="st4" d="M130,257.8C59.5,257.8,2.1,200.5,2.1,130h11c0,64.4,52.4,116.9,116.9,116.9V257.8L130,257.8z"/>
	</g>
	<path class="st5" d="M244.4,130c0,63.2-51.2,114.5-114.5,114.5c-63.2,0-114.5-51.2-114.5-114.5C15.5,66.8,66.8,15.5,130,15.5
		C193.2,15.5,244.4,66.8,244.4,130L244.4,130z"/>
	<path class="st6" d="M130,19C68.8,19,19,68.8,19,130c0,61.2,49.8,111,111,111c61.2,0,111-49.8,111-111C241,68.8,191.2,19,130,19
		L130,19z M130,247.9C64.9,247.9,12,195,12,130C12,64.9,64.9,12,130,12c65,0,117.9,52.9,117.9,117.9C247.9,195,195,247.9,130,247.9
		L130,247.9z"/>
	<path class="st6" d="M15.5,130c0,63.2,51.2,114.5,114.5,114.5c63.2,0,114.5-51.2,114.5-114.5H15.5L15.5,130z"/>
	<polygon class="st5" points="70,149.4 64.1,149.4 64.1,171.4 59,171.4 59,149.4 53.2,149.4 53.2,145.4 70,145.4 70,149.4 	"/>
	<polygon class="st5" points="86.7,160 77.9,160 77.9,167.4 88.2,167.4 88.2,171.4 72.8,171.4 72.8,145.4 88.2,145.4 88.2,149.4 
		77.9,149.4 77.9,155.9 86.7,155.9 86.7,160 	"/>
	<path class="st5" d="M107.6,163l0.1,0.1c0,2.9-0.7,5-2,6.5c-1.4,1.5-3.4,2.2-6.1,2.2c-2.7,0-4.9-0.8-6.5-2.5c-1.6-1.7-2.4-4-2.4-7
		v-7.8c0-3,0.8-5.4,2.3-7c1.6-1.7,3.6-2.5,6.3-2.5c2.8,0,4.9,0.7,6.3,2.2c1.4,1.5,2.1,3.7,2.2,6.6l-0.1,0.1h-4.9
		c0.1-1.7-0.2-2.9-0.7-3.7c-0.5-0.8-1.5-1.1-2.8-1.1c-1.1,0-2,0.4-2.6,1.3c-0.6,0.9-0.9,2.3-0.9,4.1v7.8c0,1.8,0.3,3.2,1,4.1
		c0.7,0.9,1.6,1.3,2.9,1.3c1.2,0,2.1-0.4,2.6-1.1c0.5-0.7,0.7-1.9,0.6-3.6H107.6L107.6,163z"/>
	<polygon class="st5" points="130.1,171.4 125,171.4 125,160.6 116.9,160.6 116.9,171.4 111.8,171.4 111.8,145.4 116.9,145.4 
		116.9,156.6 125,156.6 125,145.4 130.1,145.4 130.1,171.4 	"/>
	<polygon class="st5" points="162.6,171.4 157.5,171.4 157.5,160.6 149.4,160.6 149.4,171.4 144.3,171.4 144.3,145.4 149.4,145.4 
		149.4,156.6 157.5,156.6 157.5,145.4 162.6,145.4 162.6,171.4 	"/>
	<path class="st5" d="M185.1,145.4v17.8c0,2.8-0.8,4.9-2.4,6.4c-1.6,1.5-3.8,2.3-6.4,2.3c-2.6,0-4.8-0.8-6.4-2.3
		c-1.6-1.5-2.4-3.7-2.4-6.4v-17.8h5.1v17.8c0,1.6,0.3,2.8,1,3.5c0.7,0.8,1.6,1.1,2.8,1.1c1.2,0,2.2-0.4,2.8-1.1c0.6-0.7,1-1.9,1-3.6
		v-17.8H185.1L185.1,145.4z"/>
	<path class="st5" d="M194.9,159.9v7.4h3.6c1.1,0,1.9-0.3,2.4-0.9c0.5-0.6,0.8-1.5,0.8-2.7c0-1.2-0.2-2.2-0.7-2.9
		c-0.5-0.7-1.2-1-2.2-1H194.9L194.9,159.9z M194.9,156.4h2.8c1,0,1.8-0.3,2.4-0.9c0.6-0.6,0.8-1.4,0.8-2.5c0-1.2-0.3-2.1-0.9-2.7
		c-0.6-0.6-1.4-0.9-2.6-0.9h-2.6V156.4L194.9,156.4z M189.8,171.4v-26.1h7.7c2.7,0,4.8,0.6,6.3,1.8c1.5,1.2,2.3,3,2.3,5.3
		c0,1.2-0.3,2.3-0.8,3.3c-0.5,1-1.4,1.7-2.5,2.2c1.4,0.3,2.4,1,3,2.1c0.7,1.1,1,2.3,1,3.8c0,2.5-0.7,4.4-2.1,5.7
		c-1.4,1.3-3.5,1.9-6.1,1.9H189.8L189.8,171.4z"/>
	<path class="st5" d="M65.7,194h4c1.1,0,1.9-0.4,2.5-1.2c0.6-0.8,0.9-1.8,0.9-3.1c0-1.2-0.3-2.3-0.9-3.1c-0.6-0.8-1.4-1.2-2.5-1.2
		h-4V194L65.7,194z M65.7,198v9.4h-5.1v-26.1h9.1c2.6,0,4.7,0.8,6.2,2.3c1.5,1.5,2.3,3.6,2.3,6.1c0,2.5-0.8,4.5-2.3,6.1
		c-1.5,1.5-3.6,2.3-6.2,2.3H65.7L65.7,198z"/>
	<path class="st5" d="M85.9,197.8h4.8l-2.3-9.2h-0.1L85.9,197.8L85.9,197.8z M91.7,201.8h-6.9l-1.4,5.6h-5.1l7.3-26.1H91l7.3,26.1
		h-5.1L91.7,201.8L91.7,201.8z"/>
	<path class="st5" d="M106.5,193h3.4c1,0,1.8-0.3,2.4-1c0.5-0.6,0.8-1.5,0.8-2.7c0-1.2-0.3-2.1-0.8-2.9c-0.5-0.7-1.3-1.1-2.3-1.1
		h-3.4V193L106.5,193z M106.5,197v10.4h-5.1v-26.1h8.5c2.6,0,4.6,0.7,6,2c1.5,1.4,2.2,3.2,2.2,5.7c0,1.4-0.3,2.5-0.9,3.5
		c-0.6,1-1.5,1.8-2.7,2.4c1.3,0.5,2.3,1.2,2.9,2.3c0.6,1.1,0.9,2.4,0.9,3.9v1.8c0,0.7,0.1,1.5,0.3,2.3c0.2,0.8,0.5,1.4,0.9,1.8v0.4
		h-5.3c-0.4-0.4-0.7-1-0.8-1.9c-0.1-0.9-0.2-1.7-0.2-2.6v-1.8c0-1.3-0.3-2.3-0.8-3c-0.5-0.7-1.3-1.1-2.3-1.1H106.5L106.5,197z"/>
	<polygon class="st5" points="137.3,185.4 131.4,185.4 131.4,207.4 126.3,207.4 126.3,185.4 120.5,185.4 120.5,181.3 137.3,181.3 
		137.3,185.4 	"/>
	<polygon class="st5" points="159.1,207.4 154,207.4 146,190.7 145.9,190.8 145.9,207.4 140.8,207.4 140.8,181.3 145.9,181.3 
		153.9,198 154,198 154,181.3 159.1,181.3 159.1,207.4 	"/>
	<polygon class="st5" points="178,196 169.3,196 169.3,203.3 179.6,203.3 179.6,207.4 164.2,207.4 164.2,181.3 179.5,181.3 
		179.5,185.4 169.3,185.4 169.3,191.9 178,191.9 178,196 	"/>
	<path class="st5" d="M188.4,193h3.4c1,0,1.8-0.3,2.4-1c0.5-0.6,0.8-1.5,0.8-2.7c0-1.2-0.3-2.1-0.8-2.9c-0.5-0.7-1.3-1.1-2.3-1.1
		h-3.4V193L188.4,193z M188.4,197v10.4h-5.1v-26.1h8.5c2.6,0,4.6,0.7,6,2c1.5,1.4,2.2,3.2,2.2,5.7c0,1.4-0.3,2.5-0.9,3.5
		c-0.6,1-1.5,1.8-2.7,2.4c1.3,0.5,2.3,1.2,2.9,2.3c0.6,1.1,0.9,2.4,0.9,3.9v1.8c0,0.7,0.1,1.5,0.3,2.3c0.2,0.8,0.5,1.4,0.9,1.8v0.4
		h-5.3c-0.4-0.4-0.7-1-0.8-1.9c-0.1-0.9-0.2-1.7-0.2-2.6v-1.8c0-1.3-0.3-2.3-0.8-3c-0.5-0.7-1.3-1.1-2.3-1.1H188.4L188.4,197z"/>
	<polygon class="st5" points="151.8,228.7 108.2,228.7 108.2,222.5 151.8,222.5 151.8,228.7 	"/>
	<path class="st6" d="M117.9,73.1c0-2.1-1.6-3.6-3.4-3.6c-1.8,0-3.4,1.5-3.4,3.6c0,2.1,1.6,3.6,3.4,3.6
		C116.4,76.7,117.9,75.2,117.9,73.1L117.9,73.1z M120.5,73.1c0,3.4-2.7,6-6,6c-3.3,0-6-2.5-6-6c0-3.5,2.7-6,6-6
		C117.8,67.1,120.5,69.6,120.5,73.1L120.5,73.1z"/>
	<path class="st6" d="M131.1,73.1c0-2.1-1.6-3.6-3.4-3.6c-1.8,0-3.4,1.5-3.4,3.6c0,2.1,1.6,3.6,3.4,3.6
		C129.5,76.7,131.1,75.2,131.1,73.1L131.1,73.1z M133.7,73.1c0,3.4-2.7,6-6,6c-3.3,0-6-2.5-6-6c0-3.5,2.7-6,6-6
		C131,67.1,133.7,69.6,133.7,73.1L133.7,73.1z"/>
	<path class="st6" d="M144.1,73.1c0-2.1-1.4-3.6-3.2-3.6c-1.8,0-3.3,1.5-3.3,3.6c0,2.1,1.5,3.6,3.3,3.6
		C142.7,76.7,144.1,75.2,144.1,73.1L144.1,73.1z M146.4,67.5v10.7c0,4.4-2.6,6.2-5.7,6.2c-2.9,0-4.6-1.9-5.3-3.5l2.3-0.9
		c0.4,1,1.4,2.1,3,2.1c2,0,3.2-1.2,3.2-3.5v-0.9h-0.1c-0.6,0.7-1.7,1.4-3.1,1.4c-3,0-5.7-2.6-5.7-5.9c0-3.4,2.7-6,5.7-6
		c1.4,0,2.6,0.6,3.1,1.3h0.1v-1H146.4L146.4,67.5z"/>
	<polygon class="st6" points="151.1,61.2 151.1,78.7 148.5,78.7 148.5,61.2 151.1,61.2 	"/>
	<path class="st6" d="M155,72.9l5.3-2.2c-0.3-0.7-1.2-1.3-2.2-1.3C156.8,69.4,155,70.6,155,72.9L155,72.9z M161.3,75l2,1.4
		c-0.7,1-2.2,2.6-5,2.6c-3.4,0-5.9-2.6-5.9-6c0-3.6,2.6-6,5.6-6c3.1,0,4.6,2.5,5.1,3.8l0.3,0.7l-8,3.3c0.6,1.2,1.6,1.8,2.9,1.8
		C159.7,76.7,160.6,76,161.3,75L161.3,75z"/>
	<path class="st6" d="M107.2,68.9c0.1,0.6,0.1,1.1,0.1,1.6c0,1.9-0.5,4.3-2.2,5.9c-1.6,1.7-3.7,2.6-6.5,2.6c-5.1,0-9.4-4.2-9.4-9.3
		c0-5.1,4.3-9.3,9.4-9.3c2.8,0,4.8,1.1,6.4,2.6l-1.8,1.8c-1.1-1-2.6-1.8-4.6-1.8C95,63,92,66,92,69.8c0,3.7,2.9,6.7,6.7,6.7
		c2.4,0,3.8-1,4.7-1.9c0.7-0.7,1.2-1.8,1.4-3.2h-6.1v-2.5H107.2L107.2,68.9z"/>
	<path class="st6" d="M48.9,95.1h-2.8v9.7h-1.7v-9.7h-2v-0.8l2-0.6v-0.6c0-2.7,1.2-4.1,3.5-4.1c0.6,0,1.3,0.1,2.1,0.4l-0.4,1.3
		c-0.6-0.2-1.2-0.3-1.6-0.3c-0.6,0-1.1,0.2-1.4,0.6c-0.3,0.4-0.5,1.1-0.5,2v0.7h2.8V95.1L48.9,95.1z"/>
	<path class="st6" d="M52.3,99.3c0,1.4,0.3,2.5,0.8,3.2c0.6,0.7,1.4,1.1,2.5,1.1c1.1,0,1.9-0.4,2.5-1.1c0.6-0.7,0.9-1.8,0.9-3.2
		c0-1.4-0.3-2.5-0.9-3.2c-0.6-0.7-1.4-1.1-2.5-1.1c-1.1,0-1.9,0.4-2.5,1.1C52.6,96.8,52.3,97.9,52.3,99.3L52.3,99.3z M60.7,99.3
		c0,1.8-0.5,3.2-1.4,4.2c-0.9,1-2.2,1.5-3.7,1.5c-1,0-1.9-0.2-2.6-0.7c-0.8-0.5-1.3-1.1-1.8-2c-0.4-0.9-0.6-1.9-0.6-3
		c0-1.8,0.4-3.2,1.3-4.2c0.9-1,2.1-1.5,3.7-1.5c1.5,0,2.8,0.5,3.7,1.5C60.2,96.1,60.7,97.5,60.7,99.3L60.7,99.3z"/>
	<path class="st6" d="M68.9,93.6c0.5,0,0.9,0,1.3,0.1L70,95.2c-0.5-0.1-0.9-0.1-1.2-0.1c-0.9,0-1.7,0.4-2.3,1.1
		c-0.6,0.7-1,1.6-1,2.7v5.9h-1.7v-11h1.4l0.2,2h0.1c0.4-0.7,0.9-1.3,1.5-1.7C67.6,93.8,68.3,93.6,68.9,93.6L68.9,93.6z"/>
	<polygon class="st6" points="85.7,104.8 77.5,104.8 77.5,90.1 85.7,90.1 85.7,91.6 79.2,91.6 79.2,96.4 85.3,96.4 85.3,97.9 
		79.2,97.9 79.2,103.3 85.7,103.3 85.7,104.8 	"/>
	<path class="st6" d="M96.4,104.8v-7.1c0-0.9-0.2-1.6-0.6-2c-0.4-0.4-1.1-0.7-1.9-0.7c-1.2,0-2,0.3-2.5,0.9
		c-0.5,0.6-0.8,1.7-0.8,3.1v5.8h-1.7v-11h1.4l0.3,1.5h0.1c0.3-0.5,0.8-1,1.4-1.3c0.6-0.3,1.3-0.4,2.1-0.4c1.3,0,2.3,0.3,3,1
		c0.7,0.6,1,1.7,1,3.1v7.2H96.4L96.4,104.8z"/>
	<path class="st6" d="M105.4,103.6c0.3,0,0.6,0,0.9-0.1c0.3,0,0.5-0.1,0.7-0.1v1.3c-0.2,0.1-0.4,0.2-0.8,0.2c-0.4,0.1-0.7,0.1-1,0.1
		c-2.1,0-3.2-1.1-3.2-3.4v-6.6h-1.6v-0.8l1.6-0.7l0.7-2.4h1v2.6h3.2v1.3h-3.2v6.5c0,0.7,0.2,1.2,0.5,1.5
		C104.4,103.4,104.9,103.6,105.4,103.6L105.4,103.6z"/>
	<path class="st6" d="M114.6,93.6c0.5,0,0.9,0,1.3,0.1l-0.2,1.5c-0.5-0.1-0.9-0.1-1.2-0.1c-0.9,0-1.7,0.4-2.3,1.1
		c-0.6,0.7-1,1.6-1,2.7v5.9h-1.7v-11h1.4l0.2,2h0.1c0.4-0.7,0.9-1.3,1.5-1.7C113.3,93.8,113.9,93.6,114.6,93.6L114.6,93.6z"/>
	<path class="st6" d="M122.4,95c-0.9,0-1.6,0.3-2.1,0.9c-0.5,0.6-0.8,1.4-0.9,2.4h5.8c0-1.1-0.2-1.9-0.7-2.4
		C124,95.3,123.3,95,122.4,95L122.4,95z M122.9,105c-1.6,0-2.9-0.5-3.9-1.5c-0.9-1-1.4-2.4-1.4-4.1c0-1.8,0.4-3.2,1.3-4.2
		c0.9-1,2-1.6,3.5-1.6c1.4,0,2.5,0.5,3.3,1.4c0.8,0.9,1.2,2.1,1.2,3.6v1.1h-7.6c0,1.3,0.4,2.3,1,2.9c0.6,0.7,1.5,1,2.6,1
		c1.2,0,2.4-0.2,3.5-0.7v1.5c-0.6,0.3-1.1,0.4-1.7,0.5C124.3,104.9,123.6,105,122.9,105L122.9,105z"/>
	<path class="st6" d="M135,95c-1.1,0-1.9,0.3-2.4,0.9c-0.5,0.6-0.8,1.6-0.8,3v0.4c0,1.5,0.3,2.7,0.8,3.3c0.5,0.7,1.3,1,2.5,1
		c1,0,1.7-0.4,2.2-1.2c0.5-0.8,0.8-1.8,0.8-3.2c0-1.4-0.3-2.4-0.8-3.2C136.7,95.4,136,95,135,95L135,95z M135.3,105
		c-0.7,0-1.4-0.1-2-0.4c-0.6-0.3-1.1-0.7-1.5-1.2h-0.1c0.1,0.6,0.1,1.3,0.1,1.8v4.5h-1.7v-16h1.4l0.2,1.5h0.1c0.4-0.6,0.9-1,1.5-1.3
		c0.6-0.3,1.2-0.4,2-0.4c1.5,0,2.6,0.5,3.4,1.5c0.8,1,1.2,2.4,1.2,4.2c0,1.8-0.4,3.2-1.2,4.2C137.8,104.5,136.7,105,135.3,105
		L135.3,105z"/>
	<path class="st6" d="M148.1,93.6c0.5,0,0.9,0,1.3,0.1l-0.2,1.5c-0.5-0.1-0.9-0.1-1.2-0.1c-0.9,0-1.7,0.4-2.3,1.1
		c-0.6,0.7-1,1.6-1,2.7v5.9h-1.7v-11h1.4l0.2,2h0.1c0.4-0.7,0.9-1.3,1.5-1.7C146.8,93.8,147.4,93.6,148.1,93.6L148.1,93.6z"/>
	<path class="st6" d="M155.9,95c-0.9,0-1.6,0.3-2.1,0.9c-0.5,0.6-0.8,1.4-0.9,2.4h5.8c0-1.1-0.2-1.9-0.7-2.4
		C157.5,95.3,156.8,95,155.9,95L155.9,95z M156.4,105c-1.6,0-2.9-0.5-3.9-1.5c-0.9-1-1.4-2.4-1.4-4.1c0-1.8,0.4-3.2,1.3-4.2
		c0.9-1,2-1.6,3.5-1.6c1.4,0,2.5,0.5,3.3,1.4c0.8,0.9,1.2,2.1,1.2,3.6v1.1h-7.6c0,1.3,0.4,2.3,1,2.9c0.6,0.7,1.5,1,2.6,1
		c1.2,0,2.4-0.2,3.5-0.7v1.5c-0.6,0.3-1.1,0.4-1.7,0.5C157.8,104.9,157.1,105,156.4,105L156.4,105z"/>
	<path class="st6" d="M171.1,104.8v-7.1c0-0.9-0.2-1.6-0.6-2c-0.4-0.4-1.1-0.7-1.9-0.7c-1.2,0-2,0.3-2.5,0.9
		c-0.5,0.6-0.8,1.7-0.8,3.1v5.8h-1.7v-11h1.4l0.3,1.5h0.1c0.3-0.5,0.8-1,1.4-1.3c0.6-0.3,1.3-0.4,2.1-0.4c1.3,0,2.3,0.3,3,1
		c0.7,0.6,1,1.7,1,3.1v7.2H171.1L171.1,104.8z"/>
	<path class="st6" d="M180.8,95c-0.9,0-1.6,0.3-2.1,0.9c-0.5,0.6-0.8,1.4-0.9,2.4h5.8c0-1.1-0.2-1.9-0.7-2.4
		C182.3,95.3,181.6,95,180.8,95L180.8,95z M181.2,105c-1.6,0-2.9-0.5-3.9-1.5c-0.9-1-1.4-2.4-1.4-4.1c0-1.8,0.4-3.2,1.3-4.2
		c0.9-1,2-1.6,3.5-1.6c1.4,0,2.5,0.5,3.3,1.4c0.8,0.9,1.2,2.1,1.2,3.6v1.1h-7.6c0,1.3,0.4,2.3,1,2.9c0.6,0.7,1.5,1,2.6,1
		c1.2,0,2.4-0.2,3.5-0.7v1.5c-0.6,0.3-1.1,0.4-1.7,0.5C182.6,104.9,182,105,181.2,105L181.2,105z"/>
	<path class="st6" d="M190,93.8v7.1c0,0.9,0.2,1.6,0.6,2c0.4,0.4,1,0.7,1.9,0.7c1.2,0,2-0.3,2.5-0.9c0.5-0.6,0.8-1.7,0.8-3.1v-5.8
		h1.7v11h-1.4l-0.2-1.5h-0.1c-0.3,0.5-0.8,1-1.4,1.2c-0.6,0.3-1.3,0.4-2.1,0.4c-1.3,0-2.3-0.3-3-1c-0.7-0.6-1-1.7-1-3.1v-7.2H190
		L190,93.8z"/>
	<path class="st6" d="M206.4,93.6c0.5,0,0.9,0,1.3,0.1l-0.2,1.5c-0.5-0.1-0.9-0.1-1.2-0.1c-0.9,0-1.7,0.4-2.3,1.1
		c-0.6,0.7-1,1.6-1,2.7v5.9h-1.7v-11h1.4l0.2,2h0.1c0.4-0.7,0.9-1.3,1.5-1.7C205.1,93.8,205.7,93.6,206.4,93.6L206.4,93.6z"/>
	<path class="st6" d="M217.5,101.8c0,1-0.4,1.8-1.1,2.4c-0.8,0.6-1.8,0.8-3.2,0.8c-1.5,0-2.6-0.2-3.4-0.7v-1.6
		c0.5,0.3,1.1,0.5,1.7,0.6c0.6,0.2,1.2,0.2,1.8,0.2c0.9,0,1.5-0.1,2-0.4c0.5-0.3,0.7-0.7,0.7-1.3c0-0.4-0.2-0.8-0.6-1.1
		c-0.4-0.3-1.1-0.7-2.2-1.1c-1-0.4-1.8-0.7-2.2-1c-0.4-0.3-0.8-0.6-1-1c-0.2-0.4-0.3-0.8-0.3-1.3c0-0.9,0.4-1.6,1.1-2.1
		c0.7-0.5,1.7-0.8,3-0.8c1.2,0,2.3,0.2,3.5,0.7l-0.6,1.4c-1.1-0.5-2.1-0.7-3-0.7c-0.8,0-1.4,0.1-1.8,0.4c-0.4,0.2-0.6,0.6-0.6,1
		c0,0.3,0.1,0.5,0.2,0.8c0.1,0.2,0.4,0.4,0.7,0.6c0.3,0.2,1,0.5,1.9,0.8c1.3,0.5,2.2,1,2.6,1.4C217.3,100.5,217.5,101.1,217.5,101.8
		L217.5,101.8z"/>
</g>
</svg>
