<?xml version="1.0" encoding="UTF-8" standalone="no"?>
<!-- Created with Inkscape (http://www.inkscape.org/) -->
<svg
   xmlns:dc="http://purl.org/dc/elements/1.1/"
   xmlns:cc="http://creativecommons.org/ns#"
   xmlns:rdf="http://www.w3.org/1999/02/22-rdf-syntax-ns#"
   xmlns:svg="http://www.w3.org/2000/svg"
   xmlns="http://www.w3.org/2000/svg"
   xmlns:sodipodi="http://sodipodi.sourceforge.net/DTD/sodipodi-0.dtd"
   xmlns:inkscape="http://www.inkscape.org/namespaces/inkscape"
   width="400"
   height="80.492302"
   id="svg5106"
   sodipodi:version="0.32"
   inkscape:version="0.46"
   version="1.0"
   sodipodi:docname="Logo Vidéotron.svg"
   inkscape:output_extension="org.inkscape.output.svg.inkscape">
  <defs
     id="defs5108">
    <inkscape:perspective
       sodipodi:type="inkscape:persp3d"
       inkscape:vp_x="0 : 526.18109 : 1"
       inkscape:vp_y="0 : 1000 : 0"
       inkscape:vp_z="744.09448 : 526.18109 : 1"
       inkscape:persp3d-origin="372.04724 : 350.78739 : 1"
       id="perspective5114" />
  </defs>
  <sodipodi:namedview
     id="base"
     pagecolor="#ffffff"
     bordercolor="#666666"
     borderopacity="1.0"
     inkscape:pageopacity="0.0"
     inkscape:pageshadow="2"
     inkscape:zoom="1.4"
     inkscape:cx="375"
     inkscape:cy="49.166151"
     inkscape:document-units="px"
     inkscape:current-layer="layer1"
     showgrid="false"
     inkscape:window-width="1280"
     inkscape:window-height="750"
     inkscape:window-x="-8"
     inkscape:window-y="-8" />
  <metadata
     id="metadata5111">
    <rdf:RDF>
      <cc:Work
         rdf:about="">
        <dc:format>image/svg+xml</dc:format>
        <dc:type
           rdf:resource="http://purl.org/dc/dcmitype/StillImage" />
      </cc:Work>
    </rdf:RDF>
  </metadata>
  <g
     inkscape:label="Calque 1"
     inkscape:groupmode="layer"
     id="layer1"
     transform="translate(-302.36829,-123.02452)">
    <path
       id="path3522"
       style="fill:#fcc622;fill-opacity:1;fill-rule:nonzero;stroke:none"
       d="M 362.8027,123.02452 L 320.87352,126.7634 L 320.87352,182.46851 L 342.93392,203.51682 L 396.9021,192.39204 L 396.93457,132.54768" />
    <path
       id="path3526"
       style="fill:#a8a6a6;fill-opacity:1;fill-rule:nonzero;stroke:none"
       d="M 342.93392,203.51682 L 302.36829,176.08908 L 320.87352,172.35011 L 320.87352,182.46851" />
    <path
       id="path3530"
       style="fill:#e1b11e;fill-opacity:1;fill-rule:nonzero;stroke:none"
       d="M 320.87352,126.7634 L 320.87352,182.4631 L 342.93392,203.51145 L 342.96076,137.70421" />
    <path
       id="path3534"
       style="fill:#eebb20;fill-opacity:1;fill-rule:nonzero;stroke:none"
       d="M 320.87352,126.7634 L 342.96076,137.70421 L 396.93457,132.54227 L 362.80789,123.02988" />
    <path
       id="path3538"
       style="fill:#fcc622;fill-opacity:1;fill-rule:nonzero;stroke:none"
       d="M 342.93392,203.51145 L 396.9021,192.39749 L 396.92894,132.54227 L 342.96076,137.70421" />
    <path
       id="path3542"
       style="fill:#000000;fill-opacity:1;fill-rule:nonzero;stroke:none"
       d="M 352.39735,147.48168 L 388.65029,163.99571 L 352.35406,191.46678 L 376.2758,165.83541" />
    <path
       id="path3546"
       style="fill:#000000;fill-opacity:1;fill-rule:nonzero;stroke:none"
       d="M 441.62849,146.34003 L 435.36269,146.34003 L 427.00265,172.88038 L 418.70798,146.34003 L 412.37724,146.34003 L 423.50202,180.62336 L 430.45479,180.62336" />
    <path
       id="path3550"
       style="fill:#000000;fill-opacity:1;fill-rule:nonzero;stroke:none"
       d="M 624.41343,159.272 L 624.35932,159.49926 C 623.90481,160.32717 622.7577,161.40389 622.24908,161.40389 L 612.17963,161.40389 L 612.17963,152.01605 L 622.52525,152.01605 C 623.0988,152.07011 624.01303,153.2335 624.35932,153.86657 L 624.41343,154.27239 L 624.41343,159.272 z M 630.40869,159.32074 L 630.40869,154.21282 C 630.40869,153.00078 630.07885,151.73468 629.38625,150.68492 C 628.88282,149.91121 627.09204,148.07692 626.30724,147.4925 C 625.16013,146.68632 623.6018,146.20475 622.24908,146.20475 L 606.18437,146.20475 L 606.18437,180.90473 L 612.17963,180.90473 L 612.17963,167.20977 L 618.76447,167.20977 L 625.0952,180.90473 L 631.62636,180.90473 L 624.81384,166.74989 C 625.3441,166.57133 625.85273,166.29533 626.30724,165.93826 C 627.09204,165.37007 628.88282,163.61153 629.38625,162.85942 C 630.07885,161.83135 630.40869,160.60308 630.40869,159.32074" />
    <path
       id="path3554"
       style="fill:#000000;fill-opacity:1;fill-rule:nonzero;stroke:none"
       d="M 702.36829,180.91018 L 702.36829,146.21016 L 696.37303,146.21016 L 696.37303,169.5365 L 684.65305,146.21016 L 678.176,146.21016 L 678.176,180.91018 L 684.19291,180.91018 L 684.19291,157.87599 L 696.02673,180.91018" />
    <path
       id="path3558"
       style="fill:#000000;fill-opacity:1;fill-rule:nonzero;stroke:none"
       d="M 596.81791,152.02146 L 596.81791,146.21016 L 572.29577,146.21016 L 572.29577,152.02146 L 581.56484,152.02146 L 581.56484,180.91018 L 587.56529,180.91018 L 587.56529,152.02146" />
    <path
       id="path3562"
       style="fill:#000000;fill-opacity:1;fill-rule:nonzero;stroke:none"
       d="M 543.91026,154.6782 L 543.97519,154.39138 C 544.66259,153.34167 545.85299,152.18374 546.48065,151.83203 L 546.77284,151.77792 L 555.00821,151.77792 L 555.28957,151.83203 C 555.91724,152.18374 557.11845,153.34167 557.80542,154.39138 L 557.86516,154.6782 L 557.86516,172.59901 L 557.80542,172.84796 C 557.11845,173.88685 555.91724,174.98526 555.28957,175.33692 L 555.00821,175.4019 L 546.77284,175.4019 L 546.48065,175.33692 C 545.85299,174.98526 544.66259,173.88685 543.97519,172.84796 L 543.91026,172.59901 L 543.91026,154.6782 z M 563.86561,172.66395 L 563.86561,154.50501 C 563.86561,153.4066 563.63835,152.24867 562.95139,151.20441 C 562.20988,150.21422 559.98622,147.72517 558.78501,147.01639 C 557.86516,146.44279 556.42586,145.98286 555.24066,145.98286 L 546.53476,145.98286 C 545.27943,145.98286 543.91026,146.44279 543.00123,147.01639 C 541.7892,147.72517 539.51143,150.21422 538.81321,151.20441 C 538.13706,152.24867 537.90981,153.4066 537.90981,154.50501 L 537.90981,172.66395 C 537.90981,173.75694 538.13706,174.92028 538.81321,175.98082 C 539.51143,176.96019 541.7892,179.45465 543.00123,180.14724 C 543.91026,180.73158 545.27943,181.19691 546.53476,181.19691 L 555.24629,181.19691 C 556.42586,181.19691 557.86516,180.73158 558.78501,180.14724 C 559.98622,179.45465 562.20988,176.96019 562.95139,175.98082 C 563.63835,174.92028 563.86561,173.75694 563.86561,172.66395" />
    <path
       id="path3566"
       style="fill:#000000;fill-opacity:1;fill-rule:nonzero;stroke:none"
       d="M 526.53612,180.91018 L 526.53612,175.10967 L 511.06099,175.10967 L 511.06099,166.5767 L 525.45914,166.5767 L 525.45914,160.77082 L 511.06099,160.77082 L 511.06099,152.02146 L 526.53612,152.02146 L 526.53612,146.21016 L 505.0549,146.21016 L 505.0549,180.91018" />
    <path
       id="path3570"
       style="fill:#000000;fill-opacity:1;fill-rule:nonzero;stroke:none"
       d="M 517.51076,142.6498 L 522.9052,137.02785 L 516.39049,137.00084 L 512.08343,142.67144" />
    <path
       id="path3574"
       style="fill:#000000;fill-opacity:1;fill-rule:nonzero;stroke:none"
       d="M 475.67379,175.10967 L 475.67379,152.02146 L 484.76927,152.02146 L 485.2727,152.07011 C 485.9653,152.42727 487.10678,153.46612 487.79418,154.61864 L 487.84828,154.91083 L 487.84828,172.38258 C 487.84828,173.07522 486.13282,174.57944 485.33201,175.04474 L 484.93723,175.10967 L 475.67379,175.10967 z M 493.84874,172.50162 L 493.84874,154.73772 C 493.84874,153.6339 493.6704,152.48138 492.93452,151.43704 C 492.24712,150.44685 490.07757,147.95788 488.82744,147.1949 C 487.84828,146.55642 486.41981,146.21016 485.33201,146.21016 L 469.6729,146.21016 L 469.6729,180.91018 L 485.33201,180.91018 C 486.53885,180.91018 487.84828,180.38528 488.76251,179.86047 C 490.02346,179.17328 492.30685,176.84656 492.99382,175.79689 C 493.6704,174.76337 493.84874,173.53514 493.84874,172.50162" />
    <path
       id="path3576"
       style="fill:#000000;fill-opacity:1;fill-rule:nonzero;stroke:none"
       d="M 451.75204,180.91018 L 457.75293,180.91018 L 457.75293,146.21016 L 451.75204,146.21016 L 451.75204,180.91018 z" />
    <path
       id="path3580"
       style="fill:#000000;fill-opacity:1;fill-rule:nonzero;stroke:none"
       d="M 660.87761,172.60443 L 660.81268,172.84796 C 660.1361,173.88685 658.93489,174.99067 658.30203,175.33692 L 658.02066,175.40731 L 649.7853,175.40731 L 649.50393,175.33692 C 648.88146,174.99067 647.66423,173.88685 646.98246,172.84796 L 646.93354,172.60443 L 646.93354,154.68357 L 646.98246,154.39684 C 647.66423,153.34167 648.88146,152.18915 649.50393,151.83203 L 649.7853,151.78333 L 658.02066,151.78333 L 658.30203,151.83203 C 658.93489,152.18915 660.1361,153.34167 660.81268,154.39684 L 660.87761,154.68357 L 660.87761,172.60443 z M 665.97467,151.20982 C 665.21714,150.21422 662.99305,147.72517 661.78664,147.01639 C 660.87761,146.44824 659.44914,145.98832 658.24229,145.98832 L 649.55241,145.98832 C 648.30271,145.98832 646.93354,146.44824 646.01932,147.01639 C 644.80165,147.72517 642.53471,150.21422 641.84211,151.20982 C 641.15471,152.24867 640.93308,153.4066 640.93308,154.51046 L 640.93308,172.6694 C 640.93308,173.7624 641.15471,174.92028 641.84211,175.98082 C 642.53471,176.9656 644.80165,179.46006 646.01932,180.15266 C 646.93354,180.73158 648.30271,181.20237 649.55241,181.20237 L 658.24229,181.20237 C 659.44914,181.20237 660.87761,180.73158 661.78664,180.15266 C 662.99305,179.46006 665.21714,176.9656 665.97467,175.98082 C 666.65644,174.92028 666.8837,173.7624 666.8837,172.6694 L 666.8837,154.51046 C 666.8837,153.4066 666.65644,152.24867 665.97467,151.20982" />
  </g>
</svg>
